M48
; DRILL file {KiCad 5.1.4} date Sun 18 Aug 2019 12:02:09 AM EDT
; FORMAT={-:-/ absolute / inch / decimal}
; #@! TF.CreationDate,2019-08-18T00:02:09-04:00
; #@! TF.GenerationSoftware,Kicad,Pcbnew,5.1.4
; #@! TF.FileFunction,Plated,1,2,PTH
FMAT,2
INCH
T1C0.0157
T2C0.0315
T3C0.0394
T4C0.0433
%
G90
G05
T1
X3.85Y-2.5
X3.85Y-2.65
X3.9Y-2.5
X3.9Y-2.65
X4.05Y-2.05
X4.05Y-2.4
X4.15Y-2.05
X4.2Y-2.1
X4.25Y-2.1
X4.25Y-2.4
X4.3Y-2.0
X4.3Y-2.05
X4.35Y-2.1
X4.35Y-3.0
X4.4Y-1.95
X4.45Y-2.4
X4.45Y-2.75
X4.5Y-2.1
X4.55Y-2.05
X4.6Y-2.05
X4.65Y-2.35
X4.7Y-2.0
X4.75Y-3.0
X4.8Y-1.95
X4.95Y-2.25
X4.95Y-2.4
X4.9503Y-2.1329
X5.0Y-2.65
X6.0Y-2.3
X6.0Y-2.95
X6.1Y-2.25
X6.1Y-2.35
X6.1Y-2.95
T2
X4.0Y-3.3
X4.4Y-3.3
X5.05Y-1.9
X5.05Y-2.2
X5.15Y-1.9
X5.15Y-2.2
X5.25Y-1.9
X5.25Y-2.2
X5.35Y-1.9
X5.35Y-2.2
X5.45Y-1.9
X5.45Y-2.2
X5.55Y-1.9
X5.55Y-2.2
X5.65Y-1.9
X5.65Y-2.2
X5.75Y-1.9
X5.75Y-2.2
X5.85Y-1.9
X5.85Y-2.2
X5.95Y-1.9
X5.95Y-2.2
X6.05Y-1.9
X6.05Y-2.2
X6.15Y-1.9
X6.15Y-2.2
X6.25Y-1.9
X6.25Y-2.2
X6.35Y-1.9
X6.35Y-2.2
X6.45Y-1.9
X6.45Y-2.2
X4.9Y-2.7071
X4.9Y-2.9
X4.0Y-2.5
X4.0Y-3.1
X4.1Y-2.5
X4.1Y-3.1
X4.2Y-2.5
X4.2Y-3.1
X4.3Y-2.5
X4.3Y-3.1
X4.4Y-2.5
X4.4Y-3.1
X4.5Y-2.5
X4.5Y-3.1
X4.6Y-2.5
X4.6Y-3.1
X4.7Y-2.5
X4.7Y-3.1
X4.8Y-2.5
X4.8Y-3.1
X4.9Y-2.5
X4.9Y-3.1
X5.0Y-2.5
X5.0Y-3.1
X5.1Y-2.5
X5.1Y-3.1
X5.2Y-2.5
X5.2Y-3.1
X5.3Y-2.5
X5.3Y-3.1
X5.4Y-2.5
X5.4Y-3.1
X5.5Y-2.5
X5.5Y-3.1
X5.6Y-2.5
X5.6Y-3.1
X5.7Y-2.5
X5.7Y-3.1
X5.8Y-2.5
X5.8Y-3.1
X5.9Y-2.5
X5.9Y-3.1
X3.35Y-1.9
X3.35Y-2.2
X3.45Y-1.9
X3.45Y-2.2
X3.55Y-1.9
X3.55Y-2.2
X3.65Y-1.9
X3.65Y-2.2
X3.75Y-1.9
X3.75Y-2.2
X3.85Y-1.9
X3.85Y-2.2
X3.95Y-1.9
X3.95Y-2.2
X4.05Y-1.9
X4.05Y-2.2
X4.15Y-1.9
X4.15Y-2.2
X4.25Y-1.9
X4.25Y-2.2
X4.35Y-1.9
X4.35Y-2.2
X4.45Y-1.9
X4.45Y-2.2
X4.55Y-1.9
X4.55Y-2.2
X4.65Y-1.9
X4.65Y-2.2
X4.75Y-1.9
X4.75Y-2.2
T3
X6.1531Y-2.45
X6.35Y-2.45
X3.55Y-2.4
X3.7469Y-2.4
X5.9Y-3.3
X5.9Y-3.4
X3.75Y-2.7031
X3.75Y-2.9
T4
X4.55Y-3.3
X4.55Y-3.4772
X4.8059Y-3.3
X4.8059Y-3.4772
T0
M30
