G04 #@! TF.GenerationSoftware,KiCad,Pcbnew,5.1.4*
G04 #@! TF.CreationDate,2019-08-18T00:01:38-04:00*
G04 #@! TF.ProjectId,6500badge,36353030-6261-4646-9765-2e6b69636164,rev?*
G04 #@! TF.SameCoordinates,Original*
G04 #@! TF.FileFunction,Legend,Top*
G04 #@! TF.FilePolarity,Positive*
%FSLAX46Y46*%
G04 Gerber Fmt 4.6, Leading zero omitted, Abs format (unit mm)*
G04 Created by KiCad (PCBNEW 5.1.4) date 2019-08-18 00:01:38*
%MOMM*%
%LPD*%
G04 APERTURE LIST*
%ADD10C,0.150000*%
%ADD11C,0.300000*%
%ADD12C,0.120000*%
G04 APERTURE END LIST*
D10*
X125547619Y-86812380D02*
X125214285Y-86336190D01*
X124976190Y-86812380D02*
X124976190Y-85812380D01*
X125357142Y-85812380D01*
X125452380Y-85860000D01*
X125500000Y-85907619D01*
X125547619Y-86002857D01*
X125547619Y-86145714D01*
X125500000Y-86240952D01*
X125452380Y-86288571D01*
X125357142Y-86336190D01*
X124976190Y-86336190D01*
X125976190Y-86288571D02*
X126309523Y-86288571D01*
X126452380Y-86812380D02*
X125976190Y-86812380D01*
X125976190Y-85812380D01*
X126452380Y-85812380D01*
X126833333Y-86764761D02*
X126976190Y-86812380D01*
X127214285Y-86812380D01*
X127309523Y-86764761D01*
X127357142Y-86717142D01*
X127404761Y-86621904D01*
X127404761Y-86526666D01*
X127357142Y-86431428D01*
X127309523Y-86383809D01*
X127214285Y-86336190D01*
X127023809Y-86288571D01*
X126928571Y-86240952D01*
X126880952Y-86193333D01*
X126833333Y-86098095D01*
X126833333Y-86002857D01*
X126880952Y-85907619D01*
X126928571Y-85860000D01*
X127023809Y-85812380D01*
X127261904Y-85812380D01*
X127404761Y-85860000D01*
X127833333Y-86288571D02*
X128166666Y-86288571D01*
X128309523Y-86812380D02*
X127833333Y-86812380D01*
X127833333Y-85812380D01*
X128309523Y-85812380D01*
X128595238Y-85812380D02*
X129166666Y-85812380D01*
X128880952Y-86812380D02*
X128880952Y-85812380D01*
X129088095Y-52522380D02*
X129088095Y-51522380D01*
X129469047Y-51522380D01*
X129564285Y-51570000D01*
X129611904Y-51617619D01*
X129659523Y-51712857D01*
X129659523Y-51855714D01*
X129611904Y-51950952D01*
X129564285Y-51998571D01*
X129469047Y-52046190D01*
X129088095Y-52046190D01*
X130088095Y-52522380D02*
X130088095Y-51522380D01*
X130326190Y-51522380D01*
X130469047Y-51570000D01*
X130564285Y-51665238D01*
X130611904Y-51760476D01*
X130659523Y-51950952D01*
X130659523Y-52093809D01*
X130611904Y-52284285D01*
X130564285Y-52379523D01*
X130469047Y-52474761D01*
X130326190Y-52522380D01*
X130088095Y-52522380D01*
X131040476Y-52474761D02*
X131183333Y-52522380D01*
X131421428Y-52522380D01*
X131516666Y-52474761D01*
X131564285Y-52427142D01*
X131611904Y-52331904D01*
X131611904Y-52236666D01*
X131564285Y-52141428D01*
X131516666Y-52093809D01*
X131421428Y-52046190D01*
X131230952Y-51998571D01*
X131135714Y-51950952D01*
X131088095Y-51903333D01*
X131040476Y-51808095D01*
X131040476Y-51712857D01*
X131088095Y-51617619D01*
X131135714Y-51570000D01*
X131230952Y-51522380D01*
X131469047Y-51522380D01*
X131611904Y-51570000D01*
X132040476Y-52522380D02*
X132040476Y-51522380D01*
X132421428Y-51522380D01*
X132516666Y-51570000D01*
X132564285Y-51617619D01*
X132611904Y-51712857D01*
X132611904Y-51855714D01*
X132564285Y-51950952D01*
X132516666Y-51998571D01*
X132421428Y-52046190D01*
X132040476Y-52046190D01*
X133040476Y-52141428D02*
X133802380Y-52141428D01*
X134802380Y-52522380D02*
X134230952Y-52522380D01*
X134516666Y-52522380D02*
X134516666Y-51522380D01*
X134421428Y-51665238D01*
X134326190Y-51760476D01*
X134230952Y-51808095D01*
X135373809Y-51950952D02*
X135278571Y-51903333D01*
X135230952Y-51855714D01*
X135183333Y-51760476D01*
X135183333Y-51712857D01*
X135230952Y-51617619D01*
X135278571Y-51570000D01*
X135373809Y-51522380D01*
X135564285Y-51522380D01*
X135659523Y-51570000D01*
X135707142Y-51617619D01*
X135754761Y-51712857D01*
X135754761Y-51760476D01*
X135707142Y-51855714D01*
X135659523Y-51903333D01*
X135564285Y-51950952D01*
X135373809Y-51950952D01*
X135278571Y-51998571D01*
X135230952Y-52046190D01*
X135183333Y-52141428D01*
X135183333Y-52331904D01*
X135230952Y-52427142D01*
X135278571Y-52474761D01*
X135373809Y-52522380D01*
X135564285Y-52522380D01*
X135659523Y-52474761D01*
X135707142Y-52427142D01*
X135754761Y-52331904D01*
X135754761Y-52141428D01*
X135707142Y-52046190D01*
X135659523Y-51998571D01*
X135564285Y-51950952D01*
X136326190Y-51950952D02*
X136230952Y-51903333D01*
X136183333Y-51855714D01*
X136135714Y-51760476D01*
X136135714Y-51712857D01*
X136183333Y-51617619D01*
X136230952Y-51570000D01*
X136326190Y-51522380D01*
X136516666Y-51522380D01*
X136611904Y-51570000D01*
X136659523Y-51617619D01*
X136707142Y-51712857D01*
X136707142Y-51760476D01*
X136659523Y-51855714D01*
X136611904Y-51903333D01*
X136516666Y-51950952D01*
X136326190Y-51950952D01*
X136230952Y-51998571D01*
X136183333Y-52046190D01*
X136135714Y-52141428D01*
X136135714Y-52331904D01*
X136183333Y-52427142D01*
X136230952Y-52474761D01*
X136326190Y-52522380D01*
X136516666Y-52522380D01*
X136611904Y-52474761D01*
X136659523Y-52427142D01*
X136707142Y-52331904D01*
X136707142Y-52141428D01*
X136659523Y-52046190D01*
X136611904Y-51998571D01*
X136516666Y-51950952D01*
X137659523Y-52522380D02*
X137088095Y-52522380D01*
X137373809Y-52522380D02*
X137373809Y-51522380D01*
X137278571Y-51665238D01*
X137183333Y-51760476D01*
X137088095Y-51808095D01*
X85908095Y-52522380D02*
X85908095Y-51522380D01*
X86289047Y-51522380D01*
X86384285Y-51570000D01*
X86431904Y-51617619D01*
X86479523Y-51712857D01*
X86479523Y-51855714D01*
X86431904Y-51950952D01*
X86384285Y-51998571D01*
X86289047Y-52046190D01*
X85908095Y-52046190D01*
X86908095Y-52522380D02*
X86908095Y-51522380D01*
X87146190Y-51522380D01*
X87289047Y-51570000D01*
X87384285Y-51665238D01*
X87431904Y-51760476D01*
X87479523Y-51950952D01*
X87479523Y-52093809D01*
X87431904Y-52284285D01*
X87384285Y-52379523D01*
X87289047Y-52474761D01*
X87146190Y-52522380D01*
X86908095Y-52522380D01*
X87860476Y-52474761D02*
X88003333Y-52522380D01*
X88241428Y-52522380D01*
X88336666Y-52474761D01*
X88384285Y-52427142D01*
X88431904Y-52331904D01*
X88431904Y-52236666D01*
X88384285Y-52141428D01*
X88336666Y-52093809D01*
X88241428Y-52046190D01*
X88050952Y-51998571D01*
X87955714Y-51950952D01*
X87908095Y-51903333D01*
X87860476Y-51808095D01*
X87860476Y-51712857D01*
X87908095Y-51617619D01*
X87955714Y-51570000D01*
X88050952Y-51522380D01*
X88289047Y-51522380D01*
X88431904Y-51570000D01*
X88860476Y-52522380D02*
X88860476Y-51522380D01*
X89241428Y-51522380D01*
X89336666Y-51570000D01*
X89384285Y-51617619D01*
X89431904Y-51712857D01*
X89431904Y-51855714D01*
X89384285Y-51950952D01*
X89336666Y-51998571D01*
X89241428Y-52046190D01*
X88860476Y-52046190D01*
X89860476Y-52141428D02*
X90622380Y-52141428D01*
X91622380Y-52522380D02*
X91050952Y-52522380D01*
X91336666Y-52522380D02*
X91336666Y-51522380D01*
X91241428Y-51665238D01*
X91146190Y-51760476D01*
X91050952Y-51808095D01*
X92193809Y-51950952D02*
X92098571Y-51903333D01*
X92050952Y-51855714D01*
X92003333Y-51760476D01*
X92003333Y-51712857D01*
X92050952Y-51617619D01*
X92098571Y-51570000D01*
X92193809Y-51522380D01*
X92384285Y-51522380D01*
X92479523Y-51570000D01*
X92527142Y-51617619D01*
X92574761Y-51712857D01*
X92574761Y-51760476D01*
X92527142Y-51855714D01*
X92479523Y-51903333D01*
X92384285Y-51950952D01*
X92193809Y-51950952D01*
X92098571Y-51998571D01*
X92050952Y-52046190D01*
X92003333Y-52141428D01*
X92003333Y-52331904D01*
X92050952Y-52427142D01*
X92098571Y-52474761D01*
X92193809Y-52522380D01*
X92384285Y-52522380D01*
X92479523Y-52474761D01*
X92527142Y-52427142D01*
X92574761Y-52331904D01*
X92574761Y-52141428D01*
X92527142Y-52046190D01*
X92479523Y-51998571D01*
X92384285Y-51950952D01*
X93146190Y-51950952D02*
X93050952Y-51903333D01*
X93003333Y-51855714D01*
X92955714Y-51760476D01*
X92955714Y-51712857D01*
X93003333Y-51617619D01*
X93050952Y-51570000D01*
X93146190Y-51522380D01*
X93336666Y-51522380D01*
X93431904Y-51570000D01*
X93479523Y-51617619D01*
X93527142Y-51712857D01*
X93527142Y-51760476D01*
X93479523Y-51855714D01*
X93431904Y-51903333D01*
X93336666Y-51950952D01*
X93146190Y-51950952D01*
X93050952Y-51998571D01*
X93003333Y-52046190D01*
X92955714Y-52141428D01*
X92955714Y-52331904D01*
X93003333Y-52427142D01*
X93050952Y-52474761D01*
X93146190Y-52522380D01*
X93336666Y-52522380D01*
X93431904Y-52474761D01*
X93479523Y-52427142D01*
X93527142Y-52331904D01*
X93527142Y-52141428D01*
X93479523Y-52046190D01*
X93431904Y-51998571D01*
X93336666Y-51950952D01*
X94479523Y-52522380D02*
X93908095Y-52522380D01*
X94193809Y-52522380D02*
X94193809Y-51522380D01*
X94098571Y-51665238D01*
X94003333Y-51760476D01*
X93908095Y-51808095D01*
X109672380Y-73715238D02*
X109196190Y-74048571D01*
X109672380Y-74286666D02*
X108672380Y-74286666D01*
X108672380Y-73905714D01*
X108720000Y-73810476D01*
X108767619Y-73762857D01*
X108862857Y-73715238D01*
X109005714Y-73715238D01*
X109100952Y-73762857D01*
X109148571Y-73810476D01*
X109196190Y-73905714D01*
X109196190Y-74286666D01*
X108672380Y-72858095D02*
X108672380Y-73048571D01*
X108720000Y-73143809D01*
X108767619Y-73191428D01*
X108910476Y-73286666D01*
X109100952Y-73334285D01*
X109481904Y-73334285D01*
X109577142Y-73286666D01*
X109624761Y-73239047D01*
X109672380Y-73143809D01*
X109672380Y-72953333D01*
X109624761Y-72858095D01*
X109577142Y-72810476D01*
X109481904Y-72762857D01*
X109243809Y-72762857D01*
X109148571Y-72810476D01*
X109100952Y-72858095D01*
X109053333Y-72953333D01*
X109053333Y-73143809D01*
X109100952Y-73239047D01*
X109148571Y-73286666D01*
X109243809Y-73334285D01*
X108672380Y-71858095D02*
X108672380Y-72334285D01*
X109148571Y-72381904D01*
X109100952Y-72334285D01*
X109053333Y-72239047D01*
X109053333Y-72000952D01*
X109100952Y-71905714D01*
X109148571Y-71858095D01*
X109243809Y-71810476D01*
X109481904Y-71810476D01*
X109577142Y-71858095D01*
X109624761Y-71905714D01*
X109672380Y-72000952D01*
X109672380Y-72239047D01*
X109624761Y-72334285D01*
X109577142Y-72381904D01*
X108672380Y-71191428D02*
X108672380Y-71096190D01*
X108720000Y-71000952D01*
X108767619Y-70953333D01*
X108862857Y-70905714D01*
X109053333Y-70858095D01*
X109291428Y-70858095D01*
X109481904Y-70905714D01*
X109577142Y-70953333D01*
X109624761Y-71000952D01*
X109672380Y-71096190D01*
X109672380Y-71191428D01*
X109624761Y-71286666D01*
X109577142Y-71334285D01*
X109481904Y-71381904D01*
X109291428Y-71429523D01*
X109053333Y-71429523D01*
X108862857Y-71381904D01*
X108767619Y-71334285D01*
X108720000Y-71286666D01*
X108672380Y-71191428D01*
X108672380Y-70239047D02*
X108672380Y-70143809D01*
X108720000Y-70048571D01*
X108767619Y-70000952D01*
X108862857Y-69953333D01*
X109053333Y-69905714D01*
X109291428Y-69905714D01*
X109481904Y-69953333D01*
X109577142Y-70000952D01*
X109624761Y-70048571D01*
X109672380Y-70143809D01*
X109672380Y-70239047D01*
X109624761Y-70334285D01*
X109577142Y-70381904D01*
X109481904Y-70429523D01*
X109291428Y-70477142D01*
X109053333Y-70477142D01*
X108862857Y-70429523D01*
X108767619Y-70381904D01*
X108720000Y-70334285D01*
X108672380Y-70239047D01*
X108624761Y-68762857D02*
X109910476Y-69620000D01*
X109672380Y-67905714D02*
X109672380Y-68477142D01*
X109672380Y-68191428D02*
X108672380Y-68191428D01*
X108815238Y-68286666D01*
X108910476Y-68381904D01*
X108958095Y-68477142D01*
X133135714Y-72429523D02*
X133802380Y-72429523D01*
X132754761Y-72667619D02*
X133469047Y-72905714D01*
X133469047Y-72286666D01*
X133802380Y-71905714D02*
X132802380Y-71905714D01*
X133516666Y-71572380D01*
X132802380Y-71239047D01*
X133802380Y-71239047D01*
X133802380Y-70762857D02*
X132802380Y-70762857D01*
X133278571Y-70762857D02*
X133278571Y-70191428D01*
X133802380Y-70191428D02*
X132802380Y-70191428D01*
X133135714Y-69810476D02*
X133135714Y-69286666D01*
X133802380Y-69810476D01*
X133802380Y-69286666D01*
D11*
X151828571Y-86467142D02*
X152971428Y-86467142D01*
X151828571Y-83927142D02*
X152971428Y-83927142D01*
X152400000Y-84498571D02*
X152400000Y-83355714D01*
D10*
X88646190Y-88352380D02*
X88979523Y-89352380D01*
X89312857Y-88352380D01*
X90170000Y-89352380D02*
X89598571Y-89352380D01*
X89884285Y-89352380D02*
X89884285Y-88352380D01*
X89789047Y-88495238D01*
X89693809Y-88590476D01*
X89598571Y-88638095D01*
X90598571Y-89257142D02*
X90646190Y-89304761D01*
X90598571Y-89352380D01*
X90550952Y-89304761D01*
X90598571Y-89257142D01*
X90598571Y-89352380D01*
X91265238Y-88352380D02*
X91360476Y-88352380D01*
X91455714Y-88400000D01*
X91503333Y-88447619D01*
X91550952Y-88542857D01*
X91598571Y-88733333D01*
X91598571Y-88971428D01*
X91550952Y-89161904D01*
X91503333Y-89257142D01*
X91455714Y-89304761D01*
X91360476Y-89352380D01*
X91265238Y-89352380D01*
X91170000Y-89304761D01*
X91122380Y-89257142D01*
X91074761Y-89161904D01*
X91027142Y-88971428D01*
X91027142Y-88733333D01*
X91074761Y-88542857D01*
X91122380Y-88447619D01*
X91170000Y-88400000D01*
X91265238Y-88352380D01*
X83701904Y-85812380D02*
X84273333Y-85812380D01*
X83987619Y-86812380D02*
X83987619Y-85812380D01*
X84559047Y-86526666D02*
X85035238Y-86526666D01*
X84463809Y-86812380D02*
X84797142Y-85812380D01*
X85130476Y-86812380D01*
X85463809Y-86812380D02*
X85463809Y-85812380D01*
X86035238Y-86812380D01*
X86035238Y-85812380D01*
X86511428Y-86431428D02*
X87273333Y-86431428D01*
X88320952Y-86812380D02*
X87987619Y-86336190D01*
X87749523Y-86812380D02*
X87749523Y-85812380D01*
X88130476Y-85812380D01*
X88225714Y-85860000D01*
X88273333Y-85907619D01*
X88320952Y-86002857D01*
X88320952Y-86145714D01*
X88273333Y-86240952D01*
X88225714Y-86288571D01*
X88130476Y-86336190D01*
X87749523Y-86336190D01*
X89178095Y-85812380D02*
X88987619Y-85812380D01*
X88892380Y-85860000D01*
X88844761Y-85907619D01*
X88749523Y-86050476D01*
X88701904Y-86240952D01*
X88701904Y-86621904D01*
X88749523Y-86717142D01*
X88797142Y-86764761D01*
X88892380Y-86812380D01*
X89082857Y-86812380D01*
X89178095Y-86764761D01*
X89225714Y-86717142D01*
X89273333Y-86621904D01*
X89273333Y-86383809D01*
X89225714Y-86288571D01*
X89178095Y-86240952D01*
X89082857Y-86193333D01*
X88892380Y-86193333D01*
X88797142Y-86240952D01*
X88749523Y-86288571D01*
X88701904Y-86383809D01*
X90178095Y-85812380D02*
X89701904Y-85812380D01*
X89654285Y-86288571D01*
X89701904Y-86240952D01*
X89797142Y-86193333D01*
X90035238Y-86193333D01*
X90130476Y-86240952D01*
X90178095Y-86288571D01*
X90225714Y-86383809D01*
X90225714Y-86621904D01*
X90178095Y-86717142D01*
X90130476Y-86764761D01*
X90035238Y-86812380D01*
X89797142Y-86812380D01*
X89701904Y-86764761D01*
X89654285Y-86717142D01*
X90844761Y-85812380D02*
X90940000Y-85812380D01*
X91035238Y-85860000D01*
X91082857Y-85907619D01*
X91130476Y-86002857D01*
X91178095Y-86193333D01*
X91178095Y-86431428D01*
X91130476Y-86621904D01*
X91082857Y-86717142D01*
X91035238Y-86764761D01*
X90940000Y-86812380D01*
X90844761Y-86812380D01*
X90749523Y-86764761D01*
X90701904Y-86717142D01*
X90654285Y-86621904D01*
X90606666Y-86431428D01*
X90606666Y-86193333D01*
X90654285Y-86002857D01*
X90701904Y-85907619D01*
X90749523Y-85860000D01*
X90844761Y-85812380D01*
X91797142Y-85812380D02*
X91892380Y-85812380D01*
X91987619Y-85860000D01*
X92035238Y-85907619D01*
X92082857Y-86002857D01*
X92130476Y-86193333D01*
X92130476Y-86431428D01*
X92082857Y-86621904D01*
X92035238Y-86717142D01*
X91987619Y-86764761D01*
X91892380Y-86812380D01*
X91797142Y-86812380D01*
X91701904Y-86764761D01*
X91654285Y-86717142D01*
X91606666Y-86621904D01*
X91559047Y-86431428D01*
X91559047Y-86193333D01*
X91606666Y-86002857D01*
X91654285Y-85907619D01*
X91701904Y-85860000D01*
X91797142Y-85812380D01*
X93082857Y-86812380D02*
X92511428Y-86812380D01*
X92797142Y-86812380D02*
X92797142Y-85812380D01*
X92701904Y-85955238D01*
X92606666Y-86050476D01*
X92511428Y-86098095D01*
X93511428Y-86431428D02*
X94273333Y-86431428D01*
X95082857Y-86288571D02*
X95225714Y-86336190D01*
X95273333Y-86383809D01*
X95320952Y-86479047D01*
X95320952Y-86621904D01*
X95273333Y-86717142D01*
X95225714Y-86764761D01*
X95130476Y-86812380D01*
X94749523Y-86812380D01*
X94749523Y-85812380D01*
X95082857Y-85812380D01*
X95178095Y-85860000D01*
X95225714Y-85907619D01*
X95273333Y-86002857D01*
X95273333Y-86098095D01*
X95225714Y-86193333D01*
X95178095Y-86240952D01*
X95082857Y-86288571D01*
X94749523Y-86288571D01*
X95701904Y-86526666D02*
X96178095Y-86526666D01*
X95606666Y-86812380D02*
X95940000Y-85812380D01*
X96273333Y-86812380D01*
X96606666Y-86812380D02*
X96606666Y-85812380D01*
X96844761Y-85812380D01*
X96987619Y-85860000D01*
X97082857Y-85955238D01*
X97130476Y-86050476D01*
X97178095Y-86240952D01*
X97178095Y-86383809D01*
X97130476Y-86574285D01*
X97082857Y-86669523D01*
X96987619Y-86764761D01*
X96844761Y-86812380D01*
X96606666Y-86812380D01*
X98130476Y-85860000D02*
X98035238Y-85812380D01*
X97892380Y-85812380D01*
X97749523Y-85860000D01*
X97654285Y-85955238D01*
X97606666Y-86050476D01*
X97559047Y-86240952D01*
X97559047Y-86383809D01*
X97606666Y-86574285D01*
X97654285Y-86669523D01*
X97749523Y-86764761D01*
X97892380Y-86812380D01*
X97987619Y-86812380D01*
X98130476Y-86764761D01*
X98178095Y-86717142D01*
X98178095Y-86383809D01*
X97987619Y-86383809D01*
X98606666Y-86288571D02*
X98940000Y-86288571D01*
X99082857Y-86812380D02*
X98606666Y-86812380D01*
X98606666Y-85812380D01*
X99082857Y-85812380D01*
D12*
X126260000Y-65210000D02*
X126260000Y-77210000D01*
X126140000Y-65210000D02*
X126260000Y-65210000D01*
X126140000Y-77210000D02*
X126140000Y-65210000D01*
X126260000Y-77210000D02*
X126140000Y-77210000D01*
X125410000Y-68760000D02*
X125410000Y-68760000D01*
X126260000Y-68760000D02*
X125410000Y-68760000D01*
X125410000Y-73660000D02*
X125410000Y-73660000D01*
X126260000Y-73660000D02*
X125410000Y-73660000D01*
X126260000Y-65560000D02*
X126260000Y-76860000D01*
X139660000Y-65560000D02*
X126260000Y-65560000D01*
X139660000Y-76860000D02*
X139660000Y-65560000D01*
X126260000Y-76860000D02*
X139660000Y-76860000D01*
X126880000Y-53070000D02*
X126880000Y-54840000D01*
X126880000Y-54840000D02*
X165100000Y-54840000D01*
X165100000Y-54840000D02*
X165100000Y-49300000D01*
X165100000Y-49300000D02*
X126880000Y-49300000D01*
X126880000Y-49300000D02*
X126880000Y-51070000D01*
X126880000Y-51070000D02*
G75*
G02X126880000Y-53070000I0J-1000000D01*
G01*
X100270000Y-65060000D02*
X100270000Y-70120000D01*
X151190000Y-65060000D02*
X100270000Y-65060000D01*
X151190000Y-77180000D02*
X151190000Y-65060000D01*
X100270000Y-77180000D02*
X151190000Y-77180000D01*
X100270000Y-72120000D02*
X100270000Y-77180000D01*
X100270000Y-70120000D02*
G75*
G02X100270000Y-72120000I0J-1000000D01*
G01*
X83700000Y-53070000D02*
X83700000Y-54840000D01*
X83700000Y-54840000D02*
X121920000Y-54840000D01*
X121920000Y-54840000D02*
X121920000Y-49300000D01*
X121920000Y-49300000D02*
X83700000Y-49300000D01*
X83700000Y-49300000D02*
X83700000Y-51070000D01*
X83700000Y-51070000D02*
G75*
G02X83700000Y-53070000I0J-1000000D01*
G01*
X122320000Y-86820000D02*
X122320000Y-85320000D01*
X121070000Y-82820000D02*
X116570000Y-82820000D01*
X115320000Y-85320000D02*
X115320000Y-86820000D01*
X116570000Y-89320000D02*
X121070000Y-89320000D01*
X110720000Y-83820000D02*
X109950000Y-83820000D01*
X102640000Y-83820000D02*
X103410000Y-83820000D01*
X109950000Y-82450000D02*
X103410000Y-82450000D01*
X109950000Y-85190000D02*
X109950000Y-82450000D01*
X103410000Y-85190000D02*
X109950000Y-85190000D01*
X103410000Y-82450000D02*
X103410000Y-85190000D01*
X148530000Y-82490000D02*
X149860000Y-82490000D01*
X148530000Y-83820000D02*
X148530000Y-82490000D01*
X148530000Y-85090000D02*
X151190000Y-85090000D01*
X151190000Y-85090000D02*
X151190000Y-87690000D01*
X148530000Y-85090000D02*
X148530000Y-87690000D01*
X148530000Y-87690000D02*
X151190000Y-87690000D01*
X96540000Y-59590000D02*
X96540000Y-62330000D01*
X88800000Y-59590000D02*
X88800000Y-62330000D01*
X88800000Y-62330000D02*
X96540000Y-62330000D01*
X88800000Y-59590000D02*
X96540000Y-59590000D01*
X93880000Y-67290000D02*
X96620000Y-67290000D01*
X93880000Y-75030000D02*
X96620000Y-75030000D01*
X96620000Y-75030000D02*
X96620000Y-67290000D01*
X93880000Y-75030000D02*
X93880000Y-67290000D01*
X162660000Y-60860000D02*
X162660000Y-63600000D01*
X154920000Y-60860000D02*
X154920000Y-63600000D01*
X154920000Y-63600000D02*
X162660000Y-63600000D01*
X154920000Y-60860000D02*
X162660000Y-60860000D01*
D10*
X130786190Y-71596190D02*
X131262380Y-71596190D01*
X130262380Y-71929523D02*
X130786190Y-71596190D01*
X130262380Y-71262857D01*
X131262380Y-70405714D02*
X131262380Y-70977142D01*
X131262380Y-70691428D02*
X130262380Y-70691428D01*
X130405238Y-70786666D01*
X130500476Y-70881904D01*
X130548095Y-70977142D01*
X125332380Y-52831904D02*
X126141904Y-52831904D01*
X126237142Y-52784285D01*
X126284761Y-52736666D01*
X126332380Y-52641428D01*
X126332380Y-52450952D01*
X126284761Y-52355714D01*
X126237142Y-52308095D01*
X126141904Y-52260476D01*
X125332380Y-52260476D01*
X125332380Y-51879523D02*
X125332380Y-51260476D01*
X125713333Y-51593809D01*
X125713333Y-51450952D01*
X125760952Y-51355714D01*
X125808571Y-51308095D01*
X125903809Y-51260476D01*
X126141904Y-51260476D01*
X126237142Y-51308095D01*
X126284761Y-51355714D01*
X126332380Y-51450952D01*
X126332380Y-51736666D01*
X126284761Y-51831904D01*
X126237142Y-51879523D01*
X98722380Y-71881904D02*
X99531904Y-71881904D01*
X99627142Y-71834285D01*
X99674761Y-71786666D01*
X99722380Y-71691428D01*
X99722380Y-71500952D01*
X99674761Y-71405714D01*
X99627142Y-71358095D01*
X99531904Y-71310476D01*
X98722380Y-71310476D01*
X99722380Y-70310476D02*
X99722380Y-70881904D01*
X99722380Y-70596190D02*
X98722380Y-70596190D01*
X98865238Y-70691428D01*
X98960476Y-70786666D01*
X99008095Y-70881904D01*
X82152380Y-52831904D02*
X82961904Y-52831904D01*
X83057142Y-52784285D01*
X83104761Y-52736666D01*
X83152380Y-52641428D01*
X83152380Y-52450952D01*
X83104761Y-52355714D01*
X83057142Y-52308095D01*
X82961904Y-52260476D01*
X82152380Y-52260476D01*
X82247619Y-51831904D02*
X82200000Y-51784285D01*
X82152380Y-51689047D01*
X82152380Y-51450952D01*
X82200000Y-51355714D01*
X82247619Y-51308095D01*
X82342857Y-51260476D01*
X82438095Y-51260476D01*
X82580952Y-51308095D01*
X83152380Y-51879523D01*
X83152380Y-51260476D01*
X117486666Y-82224761D02*
X117629523Y-82272380D01*
X117867619Y-82272380D01*
X117962857Y-82224761D01*
X118010476Y-82177142D01*
X118058095Y-82081904D01*
X118058095Y-81986666D01*
X118010476Y-81891428D01*
X117962857Y-81843809D01*
X117867619Y-81796190D01*
X117677142Y-81748571D01*
X117581904Y-81700952D01*
X117534285Y-81653333D01*
X117486666Y-81558095D01*
X117486666Y-81462857D01*
X117534285Y-81367619D01*
X117581904Y-81320000D01*
X117677142Y-81272380D01*
X117915238Y-81272380D01*
X118058095Y-81320000D01*
X118391428Y-81272380D02*
X118629523Y-82272380D01*
X118820000Y-81558095D01*
X119010476Y-82272380D01*
X119248571Y-81272380D01*
X120153333Y-82272380D02*
X119581904Y-82272380D01*
X119867619Y-82272380D02*
X119867619Y-81272380D01*
X119772380Y-81415238D01*
X119677142Y-81510476D01*
X119581904Y-81558095D01*
X106513333Y-81902380D02*
X106180000Y-81426190D01*
X105941904Y-81902380D02*
X105941904Y-80902380D01*
X106322857Y-80902380D01*
X106418095Y-80950000D01*
X106465714Y-80997619D01*
X106513333Y-81092857D01*
X106513333Y-81235714D01*
X106465714Y-81330952D01*
X106418095Y-81378571D01*
X106322857Y-81426190D01*
X105941904Y-81426190D01*
X107465714Y-81902380D02*
X106894285Y-81902380D01*
X107180000Y-81902380D02*
X107180000Y-80902380D01*
X107084761Y-81045238D01*
X106989523Y-81140476D01*
X106894285Y-81188095D01*
X149526666Y-80942380D02*
X149526666Y-81656666D01*
X149479047Y-81799523D01*
X149383809Y-81894761D01*
X149240952Y-81942380D01*
X149145714Y-81942380D01*
X150526666Y-81942380D02*
X149955238Y-81942380D01*
X150240952Y-81942380D02*
X150240952Y-80942380D01*
X150145714Y-81085238D01*
X150050476Y-81180476D01*
X149955238Y-81228095D01*
X92503333Y-58817142D02*
X92455714Y-58864761D01*
X92312857Y-58912380D01*
X92217619Y-58912380D01*
X92074761Y-58864761D01*
X91979523Y-58769523D01*
X91931904Y-58674285D01*
X91884285Y-58483809D01*
X91884285Y-58340952D01*
X91931904Y-58150476D01*
X91979523Y-58055238D01*
X92074761Y-57960000D01*
X92217619Y-57912380D01*
X92312857Y-57912380D01*
X92455714Y-57960000D01*
X92503333Y-58007619D01*
X92836666Y-57912380D02*
X93455714Y-57912380D01*
X93122380Y-58293333D01*
X93265238Y-58293333D01*
X93360476Y-58340952D01*
X93408095Y-58388571D01*
X93455714Y-58483809D01*
X93455714Y-58721904D01*
X93408095Y-58817142D01*
X93360476Y-58864761D01*
X93265238Y-58912380D01*
X92979523Y-58912380D01*
X92884285Y-58864761D01*
X92836666Y-58817142D01*
X93107142Y-71326666D02*
X93154761Y-71374285D01*
X93202380Y-71517142D01*
X93202380Y-71612380D01*
X93154761Y-71755238D01*
X93059523Y-71850476D01*
X92964285Y-71898095D01*
X92773809Y-71945714D01*
X92630952Y-71945714D01*
X92440476Y-71898095D01*
X92345238Y-71850476D01*
X92250000Y-71755238D01*
X92202380Y-71612380D01*
X92202380Y-71517142D01*
X92250000Y-71374285D01*
X92297619Y-71326666D01*
X92297619Y-70945714D02*
X92250000Y-70898095D01*
X92202380Y-70802857D01*
X92202380Y-70564761D01*
X92250000Y-70469523D01*
X92297619Y-70421904D01*
X92392857Y-70374285D01*
X92488095Y-70374285D01*
X92630952Y-70421904D01*
X93202380Y-70993333D01*
X93202380Y-70374285D01*
X158623333Y-60087142D02*
X158575714Y-60134761D01*
X158432857Y-60182380D01*
X158337619Y-60182380D01*
X158194761Y-60134761D01*
X158099523Y-60039523D01*
X158051904Y-59944285D01*
X158004285Y-59753809D01*
X158004285Y-59610952D01*
X158051904Y-59420476D01*
X158099523Y-59325238D01*
X158194761Y-59230000D01*
X158337619Y-59182380D01*
X158432857Y-59182380D01*
X158575714Y-59230000D01*
X158623333Y-59277619D01*
X159575714Y-60182380D02*
X159004285Y-60182380D01*
X159290000Y-60182380D02*
X159290000Y-59182380D01*
X159194761Y-59325238D01*
X159099523Y-59420476D01*
X159004285Y-59468095D01*
M02*
