G04 #@! TF.GenerationSoftware,KiCad,Pcbnew,5.1.4*
G04 #@! TF.CreationDate,2019-08-18T00:01:38-04:00*
G04 #@! TF.ProjectId,6500badge,36353030-6261-4646-9765-2e6b69636164,rev?*
G04 #@! TF.SameCoordinates,Original*
G04 #@! TF.FileFunction,Copper,L2,Bot*
G04 #@! TF.FilePolarity,Positive*
%FSLAX46Y46*%
G04 Gerber Fmt 4.6, Leading zero omitted, Abs format (unit mm)*
G04 Created by KiCad (PCBNEW 5.1.4) date 2019-08-18 00:01:38*
%MOMM*%
%LPD*%
G04 APERTURE LIST*
%ADD10C,1.500000*%
%ADD11R,1.600000X1.600000*%
%ADD12O,1.600000X1.600000*%
%ADD13O,1.600000X2.400000*%
%ADD14R,1.600000X2.400000*%
%ADD15C,2.000000*%
%ADD16C,1.600000*%
%ADD17O,1.700000X1.700000*%
%ADD18R,1.700000X1.700000*%
%ADD19C,0.800000*%
%ADD20C,0.250000*%
%ADD21C,0.254000*%
G04 APERTURE END LIST*
D10*
X124460000Y-68760000D03*
X124460000Y-73660000D03*
D11*
X128270000Y-55880000D03*
D12*
X130810000Y-55880000D03*
X163830000Y-48260000D03*
X133350000Y-55880000D03*
X161290000Y-48260000D03*
X135890000Y-55880000D03*
X158750000Y-48260000D03*
X138430000Y-55880000D03*
X156210000Y-48260000D03*
X140970000Y-55880000D03*
X153670000Y-48260000D03*
X143510000Y-55880000D03*
X151130000Y-48260000D03*
X146050000Y-55880000D03*
X148590000Y-48260000D03*
X148590000Y-55880000D03*
X146050000Y-48260000D03*
X151130000Y-55880000D03*
X143510000Y-48260000D03*
X153670000Y-55880000D03*
X140970000Y-48260000D03*
X156210000Y-55880000D03*
X138430000Y-48260000D03*
X158750000Y-55880000D03*
X135890000Y-48260000D03*
X161290000Y-55880000D03*
X133350000Y-48260000D03*
X163830000Y-55880000D03*
X130810000Y-48260000D03*
X128270000Y-48260000D03*
D13*
X101600000Y-63500000D03*
X149860000Y-78740000D03*
X104140000Y-63500000D03*
X147320000Y-78740000D03*
X106680000Y-63500000D03*
X144780000Y-78740000D03*
X109220000Y-63500000D03*
X142240000Y-78740000D03*
X111760000Y-63500000D03*
X139700000Y-78740000D03*
X114300000Y-63500000D03*
X137160000Y-78740000D03*
X116840000Y-63500000D03*
X134620000Y-78740000D03*
X119380000Y-63500000D03*
X132080000Y-78740000D03*
X121920000Y-63500000D03*
X129540000Y-78740000D03*
X124460000Y-63500000D03*
X127000000Y-78740000D03*
X127000000Y-63500000D03*
X124460000Y-78740000D03*
X129540000Y-63500000D03*
X121920000Y-78740000D03*
X132080000Y-63500000D03*
X119380000Y-78740000D03*
X134620000Y-63500000D03*
X116840000Y-78740000D03*
X137160000Y-63500000D03*
X114300000Y-78740000D03*
X139700000Y-63500000D03*
X111760000Y-78740000D03*
X142240000Y-63500000D03*
X109220000Y-78740000D03*
X144780000Y-63500000D03*
X106680000Y-78740000D03*
X147320000Y-63500000D03*
X104140000Y-78740000D03*
X149860000Y-63500000D03*
D14*
X101600000Y-78740000D03*
D11*
X85090000Y-55880000D03*
D12*
X87630000Y-55880000D03*
X120650000Y-48260000D03*
X90170000Y-55880000D03*
X118110000Y-48260000D03*
X92710000Y-55880000D03*
X115570000Y-48260000D03*
X95250000Y-55880000D03*
X113030000Y-48260000D03*
X97790000Y-55880000D03*
X110490000Y-48260000D03*
X100330000Y-55880000D03*
X107950000Y-48260000D03*
X102870000Y-55880000D03*
X105410000Y-48260000D03*
X105410000Y-55880000D03*
X102870000Y-48260000D03*
X107950000Y-55880000D03*
X100330000Y-48260000D03*
X110490000Y-55880000D03*
X97790000Y-48260000D03*
X113030000Y-55880000D03*
X95250000Y-48260000D03*
X115570000Y-55880000D03*
X92710000Y-48260000D03*
X118110000Y-55880000D03*
X90170000Y-48260000D03*
X120650000Y-55880000D03*
X87630000Y-48260000D03*
X85090000Y-48260000D03*
D15*
X122070000Y-83820000D03*
X122070000Y-88320000D03*
X115570000Y-83820000D03*
X115570000Y-88320000D03*
D12*
X111760000Y-83820000D03*
D16*
X101600000Y-83820000D03*
D17*
X149860000Y-86360000D03*
D18*
X149860000Y-83820000D03*
D15*
X95170000Y-60960000D03*
X90170000Y-60960000D03*
X95250000Y-68660000D03*
X95250000Y-73660000D03*
X161290000Y-62230000D03*
X156290000Y-62230000D03*
D19*
X102870000Y-52070000D03*
X105410000Y-52070000D03*
X109220000Y-52070000D03*
X97790000Y-63500000D03*
X97790000Y-67310000D03*
X99060000Y-67310000D03*
X99060000Y-63500000D03*
X115570000Y-52070000D03*
X107950000Y-53340000D03*
X125738258Y-54176771D03*
X152400000Y-58420000D03*
X110490000Y-76200000D03*
X125730000Y-57150000D03*
X109220000Y-50800000D03*
X102870000Y-60960000D03*
X120650000Y-76200000D03*
X154940000Y-59690000D03*
X154940000Y-57150000D03*
X106680000Y-53340000D03*
X110490000Y-53340000D03*
X111760000Y-49530000D03*
X114300000Y-53340000D03*
X116840000Y-52070000D03*
X119380000Y-50800000D03*
X121920000Y-49530000D03*
X107950000Y-60960000D03*
X127000000Y-67310000D03*
X125730000Y-60960000D03*
X118110000Y-59690000D03*
X113030000Y-60960000D03*
X113030000Y-69850000D03*
X152400000Y-74930000D03*
X154940000Y-74930000D03*
D20*
X105410000Y-52070000D02*
X109220000Y-52070000D01*
X109220000Y-52070000D02*
X109220000Y-52070000D01*
X111760000Y-83820000D02*
X115570000Y-83820000D01*
X115570000Y-83820000D02*
X122070000Y-83820000D01*
X110490000Y-82550000D02*
X111760000Y-83820000D01*
X110490000Y-76200000D02*
X110490000Y-82550000D01*
X150910000Y-78740000D02*
X149860000Y-78740000D01*
X153670000Y-75980000D02*
X150910000Y-78740000D01*
X125730000Y-57150000D02*
X125730000Y-57150000D01*
X127000000Y-58420000D02*
X125730000Y-57150000D01*
X152400000Y-58420000D02*
X127000000Y-58420000D01*
X153670000Y-75980000D02*
X153670000Y-59690000D01*
X153670000Y-59690000D02*
X152400000Y-58420000D01*
X109220000Y-50800000D02*
X105410000Y-50800000D01*
X104140000Y-52070000D02*
X104140000Y-59690000D01*
X105410000Y-50800000D02*
X104140000Y-52070000D01*
X104140000Y-59690000D02*
X102870000Y-60960000D01*
X102870000Y-60960000D02*
X102870000Y-60960000D01*
X147320000Y-77470000D02*
X147320000Y-78740000D01*
X120650000Y-76200000D02*
X146050000Y-76200000D01*
X146050000Y-76200000D02*
X147320000Y-77470000D01*
X154940000Y-59690000D02*
X154940000Y-57150000D01*
X154940000Y-57150000D02*
X154940000Y-57150000D01*
X106680000Y-63500000D02*
X106680000Y-63100000D01*
X106680000Y-63500000D02*
X106680000Y-53340000D01*
X106680000Y-53340000D02*
X106680000Y-53340000D01*
X107405001Y-52614999D02*
X107079999Y-52940001D01*
X110490000Y-48260000D02*
X110490000Y-52070000D01*
X107079999Y-52940001D02*
X106680000Y-53340000D01*
X110490000Y-52070000D02*
X110490000Y-53340000D01*
X110490000Y-53340000D02*
X110490000Y-53340000D01*
X108298001Y-52614999D02*
X107405001Y-52614999D01*
X109023002Y-53340000D02*
X108298001Y-52614999D01*
X110490000Y-53340000D02*
X109023002Y-53340000D01*
X109220000Y-54610000D02*
X109220000Y-63500000D01*
X107950000Y-53340000D02*
X109220000Y-54610000D01*
X128270000Y-54830000D02*
X128270000Y-55880000D01*
X127616771Y-54176771D02*
X128270000Y-54830000D01*
X125738258Y-54176771D02*
X127616771Y-54176771D01*
X98915001Y-47134999D02*
X98589999Y-47460001D01*
X111030001Y-47134999D02*
X98915001Y-47134999D01*
X98589999Y-47460001D02*
X97790000Y-48260000D01*
X111760000Y-47864998D02*
X111030001Y-47134999D01*
X111760000Y-63500000D02*
X111760000Y-49530000D01*
X111760000Y-49530000D02*
X111760000Y-47864998D01*
X113119992Y-46684990D02*
X96825010Y-46684990D01*
X96049999Y-47460001D02*
X95250000Y-48260000D01*
X114300000Y-47864998D02*
X113119992Y-46684990D01*
X96825010Y-46684990D02*
X96049999Y-47460001D01*
X114300000Y-63500000D02*
X114300000Y-53340000D01*
X114300000Y-53340000D02*
X114300000Y-47864998D01*
X94735019Y-46234981D02*
X93509999Y-47460001D01*
X115209983Y-46234981D02*
X94735019Y-46234981D01*
X116840000Y-47864998D02*
X115209983Y-46234981D01*
X93509999Y-47460001D02*
X92710000Y-48260000D01*
X116840000Y-63500000D02*
X116840000Y-52070000D01*
X116840000Y-52070000D02*
X116840000Y-47864998D01*
X117299974Y-45784972D02*
X92645028Y-45784972D01*
X119380000Y-47864998D02*
X117299974Y-45784972D01*
X90969999Y-47460001D02*
X90170000Y-48260000D01*
X92645028Y-45784972D02*
X90969999Y-47460001D01*
X119380000Y-63500000D02*
X119380000Y-50800000D01*
X119380000Y-50800000D02*
X119380000Y-47864998D01*
X88429999Y-47460001D02*
X87630000Y-48260000D01*
X90555038Y-45334962D02*
X88429999Y-47460001D01*
X121920000Y-47864998D02*
X119389964Y-45334962D01*
X119389964Y-45334962D02*
X90555038Y-45334962D01*
X121920000Y-63500000D02*
X121920000Y-49530000D01*
X121920000Y-49530000D02*
X121920000Y-47864998D01*
X88465047Y-44884953D02*
X85889999Y-47460001D01*
X85889999Y-47460001D02*
X85090000Y-48260000D01*
X120058801Y-44884953D02*
X88465047Y-44884953D01*
X124460000Y-49286152D02*
X120058801Y-44884953D01*
X124460000Y-63500000D02*
X124460000Y-49286152D01*
X125486152Y-48260000D02*
X124460000Y-49286152D01*
X128270000Y-48260000D02*
X125486152Y-48260000D01*
X90170000Y-57011370D02*
X90170000Y-55880000D01*
X128414990Y-65025010D02*
X97274008Y-65025010D01*
X90170000Y-57921002D02*
X90170000Y-57011370D01*
X97274008Y-65025010D02*
X90170000Y-57921002D01*
X129540000Y-63900000D02*
X128414990Y-65025010D01*
X129540000Y-63500000D02*
X129540000Y-63900000D01*
X91910001Y-55080001D02*
X92710000Y-55880000D01*
X89629999Y-54754999D02*
X91584999Y-54754999D01*
X89044999Y-55339999D02*
X89629999Y-54754999D01*
X89044999Y-57432411D02*
X89044999Y-55339999D01*
X97087607Y-65475019D02*
X89044999Y-57432411D01*
X130504981Y-65475019D02*
X97087607Y-65475019D01*
X132080000Y-63900000D02*
X130504981Y-65475019D01*
X91584999Y-54754999D02*
X91910001Y-55080001D01*
X132080000Y-63500000D02*
X132080000Y-63900000D01*
X94450001Y-55080001D02*
X95250000Y-55880000D01*
X93674990Y-54304990D02*
X94450001Y-55080001D01*
X87540008Y-54304990D02*
X93674990Y-54304990D01*
X86504999Y-55339999D02*
X87540008Y-54304990D01*
X132594972Y-65925028D02*
X93174026Y-65925028D01*
X86504999Y-59256001D02*
X86504999Y-55339999D01*
X93174026Y-65925028D02*
X86504999Y-59256001D01*
X134620000Y-63900000D02*
X132594972Y-65925028D01*
X134620000Y-63500000D02*
X134620000Y-63900000D01*
X96990001Y-55080001D02*
X97790000Y-55880000D01*
X95764981Y-53854981D02*
X96990001Y-55080001D01*
X84930017Y-53854981D02*
X95764981Y-53854981D01*
X83964999Y-54819999D02*
X84930017Y-53854981D01*
X83964999Y-57352411D02*
X83964999Y-54819999D01*
X92987625Y-66375037D02*
X83964999Y-57352411D01*
X134284963Y-66375037D02*
X92987625Y-66375037D01*
X137160000Y-63500000D02*
X134284963Y-66375037D01*
X107950000Y-55880000D02*
X107950000Y-60960000D01*
X107950000Y-60960000D02*
X107950000Y-60960000D01*
X139700000Y-63900000D02*
X139700000Y-63500000D01*
X136290000Y-67310000D02*
X139700000Y-63900000D01*
X127000000Y-67310000D02*
X136290000Y-67310000D01*
X142240000Y-63100000D02*
X140100000Y-60960000D01*
X142240000Y-63500000D02*
X142240000Y-63100000D01*
X140100000Y-60960000D02*
X127000000Y-60960000D01*
X127000000Y-60960000D02*
X125730000Y-60960000D01*
X125730000Y-60960000D02*
X125730000Y-60960000D01*
X118110000Y-59690000D02*
X118110000Y-55880000D01*
X113030000Y-55880000D02*
X113030000Y-60960000D01*
X113030000Y-60960000D02*
X113030000Y-60960000D01*
X113030000Y-69850000D02*
X114300000Y-71120000D01*
X124976001Y-67684999D02*
X132221002Y-74930000D01*
X114300000Y-71120000D02*
X117735001Y-67684999D01*
X117735001Y-67684999D02*
X124976001Y-67684999D01*
X132221002Y-74930000D02*
X152400000Y-74930000D01*
X152400000Y-74930000D02*
X152400000Y-74930000D01*
X156210000Y-55880000D02*
X156210000Y-58420000D01*
X155339999Y-74530001D02*
X154940000Y-74930000D01*
X157615001Y-72254999D02*
X155339999Y-74530001D01*
X157615001Y-59825001D02*
X157615001Y-72254999D01*
X156210000Y-58420000D02*
X157615001Y-59825001D01*
D21*
G36*
X121465192Y-42575922D02*
G01*
X121456389Y-42578647D01*
X121220131Y-42653592D01*
X121165209Y-42677132D01*
X121109842Y-42699952D01*
X121101736Y-42704336D01*
X120884534Y-42823744D01*
X120835171Y-42857543D01*
X120785352Y-42890643D01*
X120778252Y-42896517D01*
X120588379Y-43055839D01*
X120546516Y-43098588D01*
X120504082Y-43140727D01*
X120498258Y-43147868D01*
X120342947Y-43341035D01*
X120310186Y-43391099D01*
X120276740Y-43440685D01*
X120272418Y-43448814D01*
X120272415Y-43448819D01*
X120272414Y-43448822D01*
X120157582Y-43668476D01*
X120135173Y-43723942D01*
X120111994Y-43779081D01*
X120109330Y-43787903D01*
X120039348Y-44025679D01*
X120028139Y-44084441D01*
X120019822Y-44124953D01*
X88502370Y-44124953D01*
X88465047Y-44121277D01*
X88427724Y-44124953D01*
X88427714Y-44124953D01*
X88316061Y-44135950D01*
X88172800Y-44179407D01*
X88040771Y-44249979D01*
X87925046Y-44344952D01*
X87901248Y-44373950D01*
X85415907Y-46859292D01*
X85371309Y-46845764D01*
X85160492Y-46825000D01*
X85019508Y-46825000D01*
X84808691Y-46845764D01*
X84538192Y-46927818D01*
X84288899Y-47061068D01*
X84070392Y-47240392D01*
X83891068Y-47458899D01*
X83757818Y-47708192D01*
X83675764Y-47978691D01*
X83648057Y-48260000D01*
X83675764Y-48541309D01*
X83757818Y-48811808D01*
X83891068Y-49061101D01*
X84070392Y-49279608D01*
X84288899Y-49458932D01*
X84538192Y-49592182D01*
X84808691Y-49674236D01*
X85019508Y-49695000D01*
X85160492Y-49695000D01*
X85371309Y-49674236D01*
X85641808Y-49592182D01*
X85891101Y-49458932D01*
X86109608Y-49279608D01*
X86288932Y-49061101D01*
X86360000Y-48928142D01*
X86431068Y-49061101D01*
X86610392Y-49279608D01*
X86828899Y-49458932D01*
X87078192Y-49592182D01*
X87348691Y-49674236D01*
X87559508Y-49695000D01*
X87700492Y-49695000D01*
X87911309Y-49674236D01*
X88181808Y-49592182D01*
X88431101Y-49458932D01*
X88649608Y-49279608D01*
X88828932Y-49061101D01*
X88900000Y-48928142D01*
X88971068Y-49061101D01*
X89150392Y-49279608D01*
X89368899Y-49458932D01*
X89618192Y-49592182D01*
X89888691Y-49674236D01*
X90099508Y-49695000D01*
X90240492Y-49695000D01*
X90451309Y-49674236D01*
X90721808Y-49592182D01*
X90971101Y-49458932D01*
X91189608Y-49279608D01*
X91368932Y-49061101D01*
X91440000Y-48928142D01*
X91511068Y-49061101D01*
X91690392Y-49279608D01*
X91908899Y-49458932D01*
X92158192Y-49592182D01*
X92428691Y-49674236D01*
X92639508Y-49695000D01*
X92780492Y-49695000D01*
X92991309Y-49674236D01*
X93261808Y-49592182D01*
X93511101Y-49458932D01*
X93729608Y-49279608D01*
X93908932Y-49061101D01*
X93980000Y-48928142D01*
X94051068Y-49061101D01*
X94230392Y-49279608D01*
X94448899Y-49458932D01*
X94698192Y-49592182D01*
X94968691Y-49674236D01*
X95179508Y-49695000D01*
X95320492Y-49695000D01*
X95531309Y-49674236D01*
X95801808Y-49592182D01*
X96051101Y-49458932D01*
X96269608Y-49279608D01*
X96448932Y-49061101D01*
X96520000Y-48928142D01*
X96591068Y-49061101D01*
X96770392Y-49279608D01*
X96988899Y-49458932D01*
X97238192Y-49592182D01*
X97508691Y-49674236D01*
X97719508Y-49695000D01*
X97860492Y-49695000D01*
X98071309Y-49674236D01*
X98341808Y-49592182D01*
X98591101Y-49458932D01*
X98809608Y-49279608D01*
X98988932Y-49061101D01*
X99060000Y-48928142D01*
X99131068Y-49061101D01*
X99310392Y-49279608D01*
X99528899Y-49458932D01*
X99778192Y-49592182D01*
X100048691Y-49674236D01*
X100259508Y-49695000D01*
X100400492Y-49695000D01*
X100611309Y-49674236D01*
X100881808Y-49592182D01*
X101131101Y-49458932D01*
X101349608Y-49279608D01*
X101528932Y-49061101D01*
X101600000Y-48928142D01*
X101671068Y-49061101D01*
X101850392Y-49279608D01*
X102068899Y-49458932D01*
X102318192Y-49592182D01*
X102588691Y-49674236D01*
X102799508Y-49695000D01*
X102940492Y-49695000D01*
X103151309Y-49674236D01*
X103421808Y-49592182D01*
X103671101Y-49458932D01*
X103889608Y-49279608D01*
X104068932Y-49061101D01*
X104140000Y-48928142D01*
X104211068Y-49061101D01*
X104390392Y-49279608D01*
X104608899Y-49458932D01*
X104858192Y-49592182D01*
X105128691Y-49674236D01*
X105339508Y-49695000D01*
X105480492Y-49695000D01*
X105691309Y-49674236D01*
X105961808Y-49592182D01*
X106211101Y-49458932D01*
X106429608Y-49279608D01*
X106608932Y-49061101D01*
X106680000Y-48928142D01*
X106751068Y-49061101D01*
X106930392Y-49279608D01*
X107148899Y-49458932D01*
X107398192Y-49592182D01*
X107668691Y-49674236D01*
X107879508Y-49695000D01*
X108020492Y-49695000D01*
X108231309Y-49674236D01*
X108501808Y-49592182D01*
X108751101Y-49458932D01*
X108969608Y-49279608D01*
X109148932Y-49061101D01*
X109220000Y-48928142D01*
X109291068Y-49061101D01*
X109470392Y-49279608D01*
X109688899Y-49458932D01*
X109730000Y-49480901D01*
X109730000Y-49895988D01*
X109710256Y-49882795D01*
X109521898Y-49804774D01*
X109321939Y-49765000D01*
X109118061Y-49765000D01*
X108918102Y-49804774D01*
X108729744Y-49882795D01*
X108560226Y-49996063D01*
X108516289Y-50040000D01*
X105447322Y-50040000D01*
X105409999Y-50036324D01*
X105372676Y-50040000D01*
X105372667Y-50040000D01*
X105261014Y-50050997D01*
X105117753Y-50094454D01*
X104985724Y-50165026D01*
X104869999Y-50259999D01*
X104846201Y-50288997D01*
X103629003Y-51506196D01*
X103599999Y-51529999D01*
X103559175Y-51579744D01*
X103505026Y-51645724D01*
X103439613Y-51768102D01*
X103434454Y-51777754D01*
X103390997Y-51921015D01*
X103380000Y-52032668D01*
X103380000Y-52032678D01*
X103376324Y-52070000D01*
X103380000Y-52107322D01*
X103380000Y-54535136D01*
X103151309Y-54465764D01*
X102940492Y-54445000D01*
X102799508Y-54445000D01*
X102588691Y-54465764D01*
X102318192Y-54547818D01*
X102068899Y-54681068D01*
X101850392Y-54860392D01*
X101671068Y-55078899D01*
X101600000Y-55211858D01*
X101528932Y-55078899D01*
X101349608Y-54860392D01*
X101131101Y-54681068D01*
X100881808Y-54547818D01*
X100611309Y-54465764D01*
X100400492Y-54445000D01*
X100259508Y-54445000D01*
X100048691Y-54465764D01*
X99778192Y-54547818D01*
X99528899Y-54681068D01*
X99310392Y-54860392D01*
X99131068Y-55078899D01*
X99060000Y-55211858D01*
X98988932Y-55078899D01*
X98809608Y-54860392D01*
X98591101Y-54681068D01*
X98341808Y-54547818D01*
X98071309Y-54465764D01*
X97860492Y-54445000D01*
X97719508Y-54445000D01*
X97508691Y-54465764D01*
X97464094Y-54479292D01*
X96328785Y-53343984D01*
X96304982Y-53314980D01*
X96189257Y-53220007D01*
X96057228Y-53149435D01*
X95913967Y-53105978D01*
X95802314Y-53094981D01*
X95802303Y-53094981D01*
X95764981Y-53091305D01*
X95727659Y-53094981D01*
X84967350Y-53094981D01*
X84930017Y-53091304D01*
X84892684Y-53094981D01*
X84781031Y-53105978D01*
X84637770Y-53149435D01*
X84505741Y-53220007D01*
X84390016Y-53314980D01*
X84366218Y-53343978D01*
X83453997Y-54256200D01*
X83424999Y-54279998D01*
X83401201Y-54308996D01*
X83401200Y-54308997D01*
X83330025Y-54395723D01*
X83259453Y-54527753D01*
X83236330Y-54603984D01*
X83220635Y-54655725D01*
X83215997Y-54671014D01*
X83201323Y-54819999D01*
X83205000Y-54857331D01*
X83204999Y-57315088D01*
X83201323Y-57352411D01*
X83204999Y-57389733D01*
X83204999Y-57389743D01*
X83215996Y-57501396D01*
X83240264Y-57581397D01*
X83259453Y-57644657D01*
X83330025Y-57776687D01*
X83336869Y-57785026D01*
X83424998Y-57892412D01*
X83454002Y-57916215D01*
X92423826Y-66886040D01*
X92447624Y-66915038D01*
X92476622Y-66938836D01*
X92563348Y-67010011D01*
X92660685Y-67062039D01*
X92695378Y-67080583D01*
X92838639Y-67124040D01*
X92950292Y-67135037D01*
X92950301Y-67135037D01*
X92987624Y-67138713D01*
X93024947Y-67135037D01*
X94657025Y-67135037D01*
X94563912Y-67167205D01*
X94389956Y-67260186D01*
X94294192Y-67524587D01*
X95250000Y-68480395D01*
X96205808Y-67524587D01*
X96110044Y-67260186D01*
X95852786Y-67135037D01*
X117207138Y-67135037D01*
X117195000Y-67144998D01*
X117171202Y-67173996D01*
X114300000Y-70045199D01*
X114065000Y-69810199D01*
X114065000Y-69748061D01*
X114025226Y-69548102D01*
X113947205Y-69359744D01*
X113833937Y-69190226D01*
X113689774Y-69046063D01*
X113520256Y-68932795D01*
X113331898Y-68854774D01*
X113131939Y-68815000D01*
X112928061Y-68815000D01*
X112728102Y-68854774D01*
X112539744Y-68932795D01*
X112370226Y-69046063D01*
X112226063Y-69190226D01*
X112112795Y-69359744D01*
X112034774Y-69548102D01*
X111995000Y-69748061D01*
X111995000Y-69951939D01*
X112034774Y-70151898D01*
X112112795Y-70340256D01*
X112226063Y-70509774D01*
X112370226Y-70653937D01*
X112539744Y-70767205D01*
X112728102Y-70845226D01*
X112928061Y-70885000D01*
X112990199Y-70885000D01*
X113736201Y-71631003D01*
X113759999Y-71660001D01*
X113875724Y-71754974D01*
X113937181Y-71787824D01*
X114007753Y-71825546D01*
X114151013Y-71869002D01*
X114299999Y-71883676D01*
X114300000Y-71883676D01*
X114448985Y-71869002D01*
X114592246Y-71825546D01*
X114724276Y-71754974D01*
X114811002Y-71683799D01*
X114840001Y-71660001D01*
X114863801Y-71631000D01*
X118049803Y-68444999D01*
X123110524Y-68444999D01*
X123075000Y-68623589D01*
X123075000Y-68896411D01*
X123128225Y-69163989D01*
X123232629Y-69416043D01*
X123384201Y-69642886D01*
X123577114Y-69835799D01*
X123803957Y-69987371D01*
X124056011Y-70091775D01*
X124323589Y-70145000D01*
X124596411Y-70145000D01*
X124863989Y-70091775D01*
X125116043Y-69987371D01*
X125342886Y-69835799D01*
X125535799Y-69642886D01*
X125665290Y-69449089D01*
X131656200Y-75440000D01*
X121353711Y-75440000D01*
X121309774Y-75396063D01*
X121140256Y-75282795D01*
X120951898Y-75204774D01*
X120751939Y-75165000D01*
X120548061Y-75165000D01*
X120348102Y-75204774D01*
X120159744Y-75282795D01*
X119990226Y-75396063D01*
X119846063Y-75540226D01*
X119732795Y-75709744D01*
X119654774Y-75898102D01*
X119615000Y-76098061D01*
X119615000Y-76301939D01*
X119654774Y-76501898D01*
X119732795Y-76690256D01*
X119846063Y-76859774D01*
X119990226Y-77003937D01*
X120159744Y-77117205D01*
X120348102Y-77195226D01*
X120548061Y-77235000D01*
X120751939Y-77235000D01*
X120951898Y-77195226D01*
X121140256Y-77117205D01*
X121309774Y-77003937D01*
X121353711Y-76960000D01*
X121525829Y-76960000D01*
X121368192Y-77007818D01*
X121118899Y-77141068D01*
X120900392Y-77320393D01*
X120721068Y-77538900D01*
X120650000Y-77671858D01*
X120578932Y-77538899D01*
X120399607Y-77320392D01*
X120181100Y-77141068D01*
X119931807Y-77007818D01*
X119661308Y-76925764D01*
X119380000Y-76898057D01*
X119098691Y-76925764D01*
X118828192Y-77007818D01*
X118578899Y-77141068D01*
X118360392Y-77320393D01*
X118181068Y-77538900D01*
X118110000Y-77671858D01*
X118038932Y-77538899D01*
X117859607Y-77320392D01*
X117641100Y-77141068D01*
X117391807Y-77007818D01*
X117121308Y-76925764D01*
X116840000Y-76898057D01*
X116558691Y-76925764D01*
X116288192Y-77007818D01*
X116038899Y-77141068D01*
X115820392Y-77320393D01*
X115641068Y-77538900D01*
X115570000Y-77671858D01*
X115498932Y-77538899D01*
X115319607Y-77320392D01*
X115101100Y-77141068D01*
X114851807Y-77007818D01*
X114581308Y-76925764D01*
X114300000Y-76898057D01*
X114018691Y-76925764D01*
X113748192Y-77007818D01*
X113498899Y-77141068D01*
X113280392Y-77320393D01*
X113101068Y-77538900D01*
X113030000Y-77671858D01*
X112958932Y-77538899D01*
X112779607Y-77320392D01*
X112561100Y-77141068D01*
X112311807Y-77007818D01*
X112041308Y-76925764D01*
X111760000Y-76898057D01*
X111478691Y-76925764D01*
X111250000Y-76995136D01*
X111250000Y-76903711D01*
X111293937Y-76859774D01*
X111407205Y-76690256D01*
X111485226Y-76501898D01*
X111525000Y-76301939D01*
X111525000Y-76098061D01*
X111485226Y-75898102D01*
X111407205Y-75709744D01*
X111293937Y-75540226D01*
X111149774Y-75396063D01*
X110980256Y-75282795D01*
X110791898Y-75204774D01*
X110591939Y-75165000D01*
X110388061Y-75165000D01*
X110188102Y-75204774D01*
X109999744Y-75282795D01*
X109830226Y-75396063D01*
X109686063Y-75540226D01*
X109572795Y-75709744D01*
X109494774Y-75898102D01*
X109455000Y-76098061D01*
X109455000Y-76301939D01*
X109494774Y-76501898D01*
X109572795Y-76690256D01*
X109686063Y-76859774D01*
X109730000Y-76903711D01*
X109730000Y-76995136D01*
X109501308Y-76925764D01*
X109220000Y-76898057D01*
X108938691Y-76925764D01*
X108668192Y-77007818D01*
X108418899Y-77141068D01*
X108200392Y-77320393D01*
X108021068Y-77538900D01*
X107950000Y-77671858D01*
X107878932Y-77538899D01*
X107699607Y-77320392D01*
X107481100Y-77141068D01*
X107231807Y-77007818D01*
X106961308Y-76925764D01*
X106680000Y-76898057D01*
X106398691Y-76925764D01*
X106128192Y-77007818D01*
X105878899Y-77141068D01*
X105660392Y-77320393D01*
X105481068Y-77538900D01*
X105410000Y-77671858D01*
X105338932Y-77538899D01*
X105159607Y-77320392D01*
X104941100Y-77141068D01*
X104691807Y-77007818D01*
X104421308Y-76925764D01*
X104140000Y-76898057D01*
X103858691Y-76925764D01*
X103588192Y-77007818D01*
X103338899Y-77141068D01*
X103120392Y-77320393D01*
X103027581Y-77433483D01*
X103025812Y-77415518D01*
X102989502Y-77295820D01*
X102930537Y-77185506D01*
X102851185Y-77088815D01*
X102754494Y-77009463D01*
X102644180Y-76950498D01*
X102524482Y-76914188D01*
X102400000Y-76901928D01*
X100800000Y-76901928D01*
X100675518Y-76914188D01*
X100555820Y-76950498D01*
X100445506Y-77009463D01*
X100348815Y-77088815D01*
X100269463Y-77185506D01*
X100210498Y-77295820D01*
X100174188Y-77415518D01*
X100161928Y-77540000D01*
X100161928Y-79940000D01*
X100174188Y-80064482D01*
X100210498Y-80184180D01*
X100269463Y-80294494D01*
X100348815Y-80391185D01*
X100445506Y-80470537D01*
X100555820Y-80529502D01*
X100675518Y-80565812D01*
X100800000Y-80578072D01*
X102400000Y-80578072D01*
X102524482Y-80565812D01*
X102644180Y-80529502D01*
X102754494Y-80470537D01*
X102851185Y-80391185D01*
X102930537Y-80294494D01*
X102989502Y-80184180D01*
X103025812Y-80064482D01*
X103027581Y-80046517D01*
X103120393Y-80159608D01*
X103338900Y-80338932D01*
X103588193Y-80472182D01*
X103858692Y-80554236D01*
X104140000Y-80581943D01*
X104421309Y-80554236D01*
X104691808Y-80472182D01*
X104941101Y-80338932D01*
X105159608Y-80159608D01*
X105338932Y-79941101D01*
X105410000Y-79808142D01*
X105481068Y-79941101D01*
X105660393Y-80159608D01*
X105878900Y-80338932D01*
X106128193Y-80472182D01*
X106398692Y-80554236D01*
X106680000Y-80581943D01*
X106961309Y-80554236D01*
X107231808Y-80472182D01*
X107481101Y-80338932D01*
X107699608Y-80159608D01*
X107878932Y-79941101D01*
X107950000Y-79808142D01*
X108021068Y-79941101D01*
X108200393Y-80159608D01*
X108418900Y-80338932D01*
X108668193Y-80472182D01*
X108938692Y-80554236D01*
X109220000Y-80581943D01*
X109501309Y-80554236D01*
X109730001Y-80484864D01*
X109730001Y-82512668D01*
X109726324Y-82550000D01*
X109730001Y-82587333D01*
X109740998Y-82698986D01*
X109749138Y-82725820D01*
X109784454Y-82842246D01*
X109855026Y-82974276D01*
X109891648Y-83018899D01*
X109950000Y-83090001D01*
X109978998Y-83113799D01*
X110359292Y-83494094D01*
X110345764Y-83538691D01*
X110318057Y-83820000D01*
X110345764Y-84101309D01*
X110427818Y-84371808D01*
X110561068Y-84621101D01*
X110740392Y-84839608D01*
X110958899Y-85018932D01*
X111208192Y-85152182D01*
X111478691Y-85234236D01*
X111689508Y-85255000D01*
X111830492Y-85255000D01*
X112041309Y-85234236D01*
X112311808Y-85152182D01*
X112561101Y-85018932D01*
X112779608Y-84839608D01*
X112958932Y-84621101D01*
X112980901Y-84580000D01*
X114115091Y-84580000D01*
X114121082Y-84594463D01*
X114300013Y-84862252D01*
X114527748Y-85089987D01*
X114795537Y-85268918D01*
X115093088Y-85392168D01*
X115408967Y-85455000D01*
X115731033Y-85455000D01*
X116046912Y-85392168D01*
X116344463Y-85268918D01*
X116612252Y-85089987D01*
X116839987Y-84862252D01*
X117018918Y-84594463D01*
X117024909Y-84580000D01*
X120615091Y-84580000D01*
X120621082Y-84594463D01*
X120800013Y-84862252D01*
X121027748Y-85089987D01*
X121295537Y-85268918D01*
X121593088Y-85392168D01*
X121908967Y-85455000D01*
X122231033Y-85455000D01*
X122546912Y-85392168D01*
X122844463Y-85268918D01*
X123112252Y-85089987D01*
X123339987Y-84862252D01*
X123518918Y-84594463D01*
X123642168Y-84296912D01*
X123705000Y-83981033D01*
X123705000Y-83658967D01*
X123642168Y-83343088D01*
X123518918Y-83045537D01*
X123468446Y-82970000D01*
X148371928Y-82970000D01*
X148371928Y-84670000D01*
X148384188Y-84794482D01*
X148420498Y-84914180D01*
X148479463Y-85024494D01*
X148558815Y-85121185D01*
X148655506Y-85200537D01*
X148765820Y-85259502D01*
X148846466Y-85283966D01*
X148762412Y-85359731D01*
X148588359Y-85593080D01*
X148463175Y-85855901D01*
X148418524Y-86003110D01*
X148539845Y-86233000D01*
X149733000Y-86233000D01*
X149733000Y-86213000D01*
X149987000Y-86213000D01*
X149987000Y-86233000D01*
X151180155Y-86233000D01*
X151301476Y-86003110D01*
X151256825Y-85855901D01*
X151131641Y-85593080D01*
X150957588Y-85359731D01*
X150873534Y-85283966D01*
X150954180Y-85259502D01*
X151064494Y-85200537D01*
X151161185Y-85121185D01*
X151240537Y-85024494D01*
X151299502Y-84914180D01*
X151335812Y-84794482D01*
X151348072Y-84670000D01*
X151348072Y-82970000D01*
X151335812Y-82845518D01*
X151299502Y-82725820D01*
X151240537Y-82615506D01*
X151161185Y-82518815D01*
X151064494Y-82439463D01*
X150954180Y-82380498D01*
X150834482Y-82344188D01*
X150710000Y-82331928D01*
X149010000Y-82331928D01*
X148885518Y-82344188D01*
X148765820Y-82380498D01*
X148655506Y-82439463D01*
X148558815Y-82518815D01*
X148479463Y-82615506D01*
X148420498Y-82725820D01*
X148384188Y-82845518D01*
X148371928Y-82970000D01*
X123468446Y-82970000D01*
X123339987Y-82777748D01*
X123112252Y-82550013D01*
X122844463Y-82371082D01*
X122546912Y-82247832D01*
X122231033Y-82185000D01*
X121908967Y-82185000D01*
X121593088Y-82247832D01*
X121295537Y-82371082D01*
X121027748Y-82550013D01*
X120800013Y-82777748D01*
X120621082Y-83045537D01*
X120615091Y-83060000D01*
X117024909Y-83060000D01*
X117018918Y-83045537D01*
X116839987Y-82777748D01*
X116612252Y-82550013D01*
X116344463Y-82371082D01*
X116046912Y-82247832D01*
X115731033Y-82185000D01*
X115408967Y-82185000D01*
X115093088Y-82247832D01*
X114795537Y-82371082D01*
X114527748Y-82550013D01*
X114300013Y-82777748D01*
X114121082Y-83045537D01*
X114115091Y-83060000D01*
X112980901Y-83060000D01*
X112958932Y-83018899D01*
X112779608Y-82800392D01*
X112561101Y-82621068D01*
X112311808Y-82487818D01*
X112041309Y-82405764D01*
X111830492Y-82385000D01*
X111689508Y-82385000D01*
X111478691Y-82405764D01*
X111434094Y-82419292D01*
X111250000Y-82235199D01*
X111250000Y-80484864D01*
X111478692Y-80554236D01*
X111760000Y-80581943D01*
X112041309Y-80554236D01*
X112311808Y-80472182D01*
X112561101Y-80338932D01*
X112779608Y-80159608D01*
X112958932Y-79941101D01*
X113030000Y-79808142D01*
X113101068Y-79941101D01*
X113280393Y-80159608D01*
X113498900Y-80338932D01*
X113748193Y-80472182D01*
X114018692Y-80554236D01*
X114300000Y-80581943D01*
X114581309Y-80554236D01*
X114851808Y-80472182D01*
X115101101Y-80338932D01*
X115319608Y-80159608D01*
X115498932Y-79941101D01*
X115570000Y-79808142D01*
X115641068Y-79941101D01*
X115820393Y-80159608D01*
X116038900Y-80338932D01*
X116288193Y-80472182D01*
X116558692Y-80554236D01*
X116840000Y-80581943D01*
X117121309Y-80554236D01*
X117391808Y-80472182D01*
X117641101Y-80338932D01*
X117859608Y-80159608D01*
X118038932Y-79941101D01*
X118110000Y-79808142D01*
X118181068Y-79941101D01*
X118360393Y-80159608D01*
X118578900Y-80338932D01*
X118828193Y-80472182D01*
X119098692Y-80554236D01*
X119380000Y-80581943D01*
X119661309Y-80554236D01*
X119931808Y-80472182D01*
X120181101Y-80338932D01*
X120399608Y-80159608D01*
X120578932Y-79941101D01*
X120650000Y-79808142D01*
X120721068Y-79941101D01*
X120900393Y-80159608D01*
X121118900Y-80338932D01*
X121368193Y-80472182D01*
X121638692Y-80554236D01*
X121920000Y-80581943D01*
X122201309Y-80554236D01*
X122471808Y-80472182D01*
X122721101Y-80338932D01*
X122939608Y-80159608D01*
X123118932Y-79941101D01*
X123190000Y-79808142D01*
X123261068Y-79941101D01*
X123440393Y-80159608D01*
X123658900Y-80338932D01*
X123908193Y-80472182D01*
X124178692Y-80554236D01*
X124460000Y-80581943D01*
X124741309Y-80554236D01*
X125011808Y-80472182D01*
X125261101Y-80338932D01*
X125479608Y-80159608D01*
X125658932Y-79941101D01*
X125730000Y-79808142D01*
X125801068Y-79941101D01*
X125980393Y-80159608D01*
X126198900Y-80338932D01*
X126448193Y-80472182D01*
X126718692Y-80554236D01*
X127000000Y-80581943D01*
X127281309Y-80554236D01*
X127551808Y-80472182D01*
X127801101Y-80338932D01*
X128019608Y-80159608D01*
X128198932Y-79941101D01*
X128267265Y-79813259D01*
X128417399Y-80042839D01*
X128615105Y-80244500D01*
X128848354Y-80403715D01*
X129108182Y-80514367D01*
X129190961Y-80531904D01*
X129413000Y-80409915D01*
X129413000Y-78867000D01*
X129393000Y-78867000D01*
X129393000Y-78613000D01*
X129413000Y-78613000D01*
X129413000Y-78593000D01*
X129667000Y-78593000D01*
X129667000Y-78613000D01*
X129687000Y-78613000D01*
X129687000Y-78867000D01*
X129667000Y-78867000D01*
X129667000Y-80409915D01*
X129889039Y-80531904D01*
X129971818Y-80514367D01*
X130231646Y-80403715D01*
X130464895Y-80244500D01*
X130662601Y-80042839D01*
X130812735Y-79813259D01*
X130881068Y-79941101D01*
X131060393Y-80159608D01*
X131278900Y-80338932D01*
X131528193Y-80472182D01*
X131798692Y-80554236D01*
X132080000Y-80581943D01*
X132361309Y-80554236D01*
X132631808Y-80472182D01*
X132881101Y-80338932D01*
X133099608Y-80159608D01*
X133278932Y-79941101D01*
X133350000Y-79808142D01*
X133421068Y-79941101D01*
X133600393Y-80159608D01*
X133818900Y-80338932D01*
X134068193Y-80472182D01*
X134338692Y-80554236D01*
X134620000Y-80581943D01*
X134901309Y-80554236D01*
X135171808Y-80472182D01*
X135421101Y-80338932D01*
X135639608Y-80159608D01*
X135818932Y-79941101D01*
X135890000Y-79808142D01*
X135961068Y-79941101D01*
X136140393Y-80159608D01*
X136358900Y-80338932D01*
X136608193Y-80472182D01*
X136878692Y-80554236D01*
X137160000Y-80581943D01*
X137441309Y-80554236D01*
X137711808Y-80472182D01*
X137961101Y-80338932D01*
X138179608Y-80159608D01*
X138358932Y-79941101D01*
X138430000Y-79808142D01*
X138501068Y-79941101D01*
X138680393Y-80159608D01*
X138898900Y-80338932D01*
X139148193Y-80472182D01*
X139418692Y-80554236D01*
X139700000Y-80581943D01*
X139981309Y-80554236D01*
X140251808Y-80472182D01*
X140501101Y-80338932D01*
X140719608Y-80159608D01*
X140898932Y-79941101D01*
X140970000Y-79808142D01*
X141041068Y-79941101D01*
X141220393Y-80159608D01*
X141438900Y-80338932D01*
X141688193Y-80472182D01*
X141958692Y-80554236D01*
X142240000Y-80581943D01*
X142521309Y-80554236D01*
X142791808Y-80472182D01*
X143041101Y-80338932D01*
X143259608Y-80159608D01*
X143438932Y-79941101D01*
X143510000Y-79808142D01*
X143581068Y-79941101D01*
X143760393Y-80159608D01*
X143978900Y-80338932D01*
X144228193Y-80472182D01*
X144498692Y-80554236D01*
X144780000Y-80581943D01*
X145061309Y-80554236D01*
X145331808Y-80472182D01*
X145581101Y-80338932D01*
X145799608Y-80159608D01*
X145978932Y-79941101D01*
X146050000Y-79808142D01*
X146121068Y-79941101D01*
X146300393Y-80159608D01*
X146518900Y-80338932D01*
X146768193Y-80472182D01*
X147038692Y-80554236D01*
X147320000Y-80581943D01*
X147601309Y-80554236D01*
X147871808Y-80472182D01*
X148121101Y-80338932D01*
X148339608Y-80159608D01*
X148518932Y-79941101D01*
X148590000Y-79808142D01*
X148661068Y-79941101D01*
X148840393Y-80159608D01*
X149058900Y-80338932D01*
X149308193Y-80472182D01*
X149578692Y-80554236D01*
X149860000Y-80581943D01*
X150141309Y-80554236D01*
X150411808Y-80472182D01*
X150661101Y-80338932D01*
X150879608Y-80159608D01*
X151058932Y-79941101D01*
X151192182Y-79691808D01*
X151274236Y-79421309D01*
X151275717Y-79406275D01*
X151334276Y-79374974D01*
X151450001Y-79280001D01*
X151473804Y-79250997D01*
X154181009Y-76543794D01*
X154210001Y-76520001D01*
X154233795Y-76491008D01*
X154233799Y-76491004D01*
X154304973Y-76404277D01*
X154304974Y-76404276D01*
X154375546Y-76272247D01*
X154419003Y-76128986D01*
X154430000Y-76017333D01*
X154430000Y-76017324D01*
X154433676Y-75980001D01*
X154430000Y-75942678D01*
X154430000Y-75834013D01*
X154449744Y-75847205D01*
X154638102Y-75925226D01*
X154838061Y-75965000D01*
X155041939Y-75965000D01*
X155241898Y-75925226D01*
X155430256Y-75847205D01*
X155599774Y-75733937D01*
X155743937Y-75589774D01*
X155857205Y-75420256D01*
X155935226Y-75231898D01*
X155975000Y-75031939D01*
X155975000Y-74969801D01*
X158126004Y-72818798D01*
X158155002Y-72795000D01*
X158249975Y-72679275D01*
X158320547Y-72547246D01*
X158364004Y-72403985D01*
X158375001Y-72292332D01*
X158375001Y-72292324D01*
X158378677Y-72254999D01*
X158375001Y-72217674D01*
X158375001Y-63365413D01*
X160334192Y-63365413D01*
X160429956Y-63629814D01*
X160719571Y-63770704D01*
X161031108Y-63852384D01*
X161352595Y-63871718D01*
X161671675Y-63827961D01*
X161976088Y-63722795D01*
X162150044Y-63629814D01*
X162245808Y-63365413D01*
X161290000Y-62409605D01*
X160334192Y-63365413D01*
X158375001Y-63365413D01*
X158375001Y-62292595D01*
X159648282Y-62292595D01*
X159692039Y-62611675D01*
X159797205Y-62916088D01*
X159890186Y-63090044D01*
X160154587Y-63185808D01*
X161110395Y-62230000D01*
X161469605Y-62230000D01*
X162425413Y-63185808D01*
X162689814Y-63090044D01*
X162830704Y-62800429D01*
X162912384Y-62488892D01*
X162931718Y-62167405D01*
X162887961Y-61848325D01*
X162782795Y-61543912D01*
X162689814Y-61369956D01*
X162425413Y-61274192D01*
X161469605Y-62230000D01*
X161110395Y-62230000D01*
X160154587Y-61274192D01*
X159890186Y-61369956D01*
X159749296Y-61659571D01*
X159667616Y-61971108D01*
X159648282Y-62292595D01*
X158375001Y-62292595D01*
X158375001Y-61094587D01*
X160334192Y-61094587D01*
X161290000Y-62050395D01*
X162245808Y-61094587D01*
X162150044Y-60830186D01*
X161860429Y-60689296D01*
X161548892Y-60607616D01*
X161227405Y-60588282D01*
X160908325Y-60632039D01*
X160603912Y-60737205D01*
X160429956Y-60830186D01*
X160334192Y-61094587D01*
X158375001Y-61094587D01*
X158375001Y-59862323D01*
X158378677Y-59825000D01*
X158375001Y-59787677D01*
X158375001Y-59787668D01*
X158364004Y-59676015D01*
X158320547Y-59532754D01*
X158249975Y-59400725D01*
X158197846Y-59337205D01*
X158178800Y-59313997D01*
X158178796Y-59313993D01*
X158155002Y-59285000D01*
X158126010Y-59261207D01*
X156970000Y-58105199D01*
X156970000Y-57100901D01*
X157011101Y-57078932D01*
X157229608Y-56899608D01*
X157408932Y-56681101D01*
X157480000Y-56548142D01*
X157551068Y-56681101D01*
X157730392Y-56899608D01*
X157948899Y-57078932D01*
X158198192Y-57212182D01*
X158468691Y-57294236D01*
X158679508Y-57315000D01*
X158820492Y-57315000D01*
X159031309Y-57294236D01*
X159301808Y-57212182D01*
X159551101Y-57078932D01*
X159769608Y-56899608D01*
X159948932Y-56681101D01*
X160020000Y-56548142D01*
X160091068Y-56681101D01*
X160270392Y-56899608D01*
X160488899Y-57078932D01*
X160738192Y-57212182D01*
X161008691Y-57294236D01*
X161219508Y-57315000D01*
X161360492Y-57315000D01*
X161571309Y-57294236D01*
X161841808Y-57212182D01*
X162091101Y-57078932D01*
X162309608Y-56899608D01*
X162488932Y-56681101D01*
X162560000Y-56548142D01*
X162631068Y-56681101D01*
X162810392Y-56899608D01*
X163028899Y-57078932D01*
X163278192Y-57212182D01*
X163548691Y-57294236D01*
X163759508Y-57315000D01*
X163900492Y-57315000D01*
X164111309Y-57294236D01*
X164381808Y-57212182D01*
X164631101Y-57078932D01*
X164849608Y-56899608D01*
X165028932Y-56681101D01*
X165162182Y-56431808D01*
X165244236Y-56161309D01*
X165271943Y-55880000D01*
X165244236Y-55598691D01*
X165162182Y-55328192D01*
X165028932Y-55078899D01*
X164849608Y-54860392D01*
X164631101Y-54681068D01*
X164381808Y-54547818D01*
X164111309Y-54465764D01*
X163900492Y-54445000D01*
X163759508Y-54445000D01*
X163548691Y-54465764D01*
X163278192Y-54547818D01*
X163028899Y-54681068D01*
X162810392Y-54860392D01*
X162631068Y-55078899D01*
X162560000Y-55211858D01*
X162488932Y-55078899D01*
X162309608Y-54860392D01*
X162091101Y-54681068D01*
X161841808Y-54547818D01*
X161571309Y-54465764D01*
X161360492Y-54445000D01*
X161219508Y-54445000D01*
X161008691Y-54465764D01*
X160738192Y-54547818D01*
X160488899Y-54681068D01*
X160270392Y-54860392D01*
X160091068Y-55078899D01*
X160020000Y-55211858D01*
X159948932Y-55078899D01*
X159769608Y-54860392D01*
X159551101Y-54681068D01*
X159301808Y-54547818D01*
X159031309Y-54465764D01*
X158820492Y-54445000D01*
X158679508Y-54445000D01*
X158468691Y-54465764D01*
X158198192Y-54547818D01*
X157948899Y-54681068D01*
X157730392Y-54860392D01*
X157551068Y-55078899D01*
X157480000Y-55211858D01*
X157408932Y-55078899D01*
X157229608Y-54860392D01*
X157011101Y-54681068D01*
X156761808Y-54547818D01*
X156491309Y-54465764D01*
X156280492Y-54445000D01*
X156139508Y-54445000D01*
X155928691Y-54465764D01*
X155658192Y-54547818D01*
X155408899Y-54681068D01*
X155190392Y-54860392D01*
X155011068Y-55078899D01*
X154937421Y-55216682D01*
X154822385Y-55024869D01*
X154633414Y-54816481D01*
X154407420Y-54648963D01*
X154153087Y-54528754D01*
X154019039Y-54488096D01*
X153797000Y-54610085D01*
X153797000Y-55753000D01*
X153817000Y-55753000D01*
X153817000Y-56007000D01*
X153797000Y-56007000D01*
X153797000Y-57149915D01*
X153905000Y-57209251D01*
X153905000Y-57251939D01*
X153944774Y-57451898D01*
X154022795Y-57640256D01*
X154136063Y-57809774D01*
X154180001Y-57853712D01*
X154180000Y-58986289D01*
X154136063Y-59030226D01*
X154115621Y-59060819D01*
X153435000Y-58380199D01*
X153435000Y-58318061D01*
X153395226Y-58118102D01*
X153317205Y-57929744D01*
X153203937Y-57760226D01*
X153059774Y-57616063D01*
X152890256Y-57502795D01*
X152701898Y-57424774D01*
X152501939Y-57385000D01*
X152298061Y-57385000D01*
X152098102Y-57424774D01*
X151909744Y-57502795D01*
X151740226Y-57616063D01*
X151696289Y-57660000D01*
X127314802Y-57660000D01*
X126765000Y-57110199D01*
X126765000Y-57048061D01*
X126725226Y-56848102D01*
X126647205Y-56659744D01*
X126533937Y-56490226D01*
X126389774Y-56346063D01*
X126220256Y-56232795D01*
X126031898Y-56154774D01*
X125831939Y-56115000D01*
X125628061Y-56115000D01*
X125428102Y-56154774D01*
X125239744Y-56232795D01*
X125220000Y-56245987D01*
X125220000Y-55075266D01*
X125248002Y-55093976D01*
X125436360Y-55171997D01*
X125636319Y-55211771D01*
X125840197Y-55211771D01*
X126040156Y-55171997D01*
X126228514Y-55093976D01*
X126398032Y-54980708D01*
X126441969Y-54936771D01*
X126849875Y-54936771D01*
X126844188Y-54955518D01*
X126831928Y-55080000D01*
X126831928Y-56680000D01*
X126844188Y-56804482D01*
X126880498Y-56924180D01*
X126939463Y-57034494D01*
X127018815Y-57131185D01*
X127115506Y-57210537D01*
X127225820Y-57269502D01*
X127345518Y-57305812D01*
X127470000Y-57318072D01*
X129070000Y-57318072D01*
X129194482Y-57305812D01*
X129314180Y-57269502D01*
X129424494Y-57210537D01*
X129521185Y-57131185D01*
X129600537Y-57034494D01*
X129659502Y-56924180D01*
X129695812Y-56804482D01*
X129697581Y-56786518D01*
X129790392Y-56899608D01*
X130008899Y-57078932D01*
X130258192Y-57212182D01*
X130528691Y-57294236D01*
X130739508Y-57315000D01*
X130880492Y-57315000D01*
X131091309Y-57294236D01*
X131361808Y-57212182D01*
X131611101Y-57078932D01*
X131829608Y-56899608D01*
X132008932Y-56681101D01*
X132080000Y-56548142D01*
X132151068Y-56681101D01*
X132330392Y-56899608D01*
X132548899Y-57078932D01*
X132798192Y-57212182D01*
X133068691Y-57294236D01*
X133279508Y-57315000D01*
X133420492Y-57315000D01*
X133631309Y-57294236D01*
X133901808Y-57212182D01*
X134151101Y-57078932D01*
X134369608Y-56899608D01*
X134548932Y-56681101D01*
X134620000Y-56548142D01*
X134691068Y-56681101D01*
X134870392Y-56899608D01*
X135088899Y-57078932D01*
X135338192Y-57212182D01*
X135608691Y-57294236D01*
X135819508Y-57315000D01*
X135960492Y-57315000D01*
X136171309Y-57294236D01*
X136441808Y-57212182D01*
X136691101Y-57078932D01*
X136909608Y-56899608D01*
X137088932Y-56681101D01*
X137160000Y-56548142D01*
X137231068Y-56681101D01*
X137410392Y-56899608D01*
X137628899Y-57078932D01*
X137878192Y-57212182D01*
X138148691Y-57294236D01*
X138359508Y-57315000D01*
X138500492Y-57315000D01*
X138711309Y-57294236D01*
X138981808Y-57212182D01*
X139231101Y-57078932D01*
X139449608Y-56899608D01*
X139628932Y-56681101D01*
X139700000Y-56548142D01*
X139771068Y-56681101D01*
X139950392Y-56899608D01*
X140168899Y-57078932D01*
X140418192Y-57212182D01*
X140688691Y-57294236D01*
X140899508Y-57315000D01*
X141040492Y-57315000D01*
X141251309Y-57294236D01*
X141521808Y-57212182D01*
X141771101Y-57078932D01*
X141989608Y-56899608D01*
X142168932Y-56681101D01*
X142240000Y-56548142D01*
X142311068Y-56681101D01*
X142490392Y-56899608D01*
X142708899Y-57078932D01*
X142958192Y-57212182D01*
X143228691Y-57294236D01*
X143439508Y-57315000D01*
X143580492Y-57315000D01*
X143791309Y-57294236D01*
X144061808Y-57212182D01*
X144311101Y-57078932D01*
X144529608Y-56899608D01*
X144708932Y-56681101D01*
X144780000Y-56548142D01*
X144851068Y-56681101D01*
X145030392Y-56899608D01*
X145248899Y-57078932D01*
X145498192Y-57212182D01*
X145768691Y-57294236D01*
X145979508Y-57315000D01*
X146120492Y-57315000D01*
X146331309Y-57294236D01*
X146601808Y-57212182D01*
X146851101Y-57078932D01*
X147069608Y-56899608D01*
X147248932Y-56681101D01*
X147320000Y-56548142D01*
X147391068Y-56681101D01*
X147570392Y-56899608D01*
X147788899Y-57078932D01*
X148038192Y-57212182D01*
X148308691Y-57294236D01*
X148519508Y-57315000D01*
X148660492Y-57315000D01*
X148871309Y-57294236D01*
X149141808Y-57212182D01*
X149391101Y-57078932D01*
X149609608Y-56899608D01*
X149788932Y-56681101D01*
X149860000Y-56548142D01*
X149931068Y-56681101D01*
X150110392Y-56899608D01*
X150328899Y-57078932D01*
X150578192Y-57212182D01*
X150848691Y-57294236D01*
X151059508Y-57315000D01*
X151200492Y-57315000D01*
X151411309Y-57294236D01*
X151681808Y-57212182D01*
X151931101Y-57078932D01*
X152149608Y-56899608D01*
X152328932Y-56681101D01*
X152402579Y-56543318D01*
X152517615Y-56735131D01*
X152706586Y-56943519D01*
X152932580Y-57111037D01*
X153186913Y-57231246D01*
X153320961Y-57271904D01*
X153543000Y-57149915D01*
X153543000Y-56007000D01*
X153523000Y-56007000D01*
X153523000Y-55753000D01*
X153543000Y-55753000D01*
X153543000Y-54610085D01*
X153320961Y-54488096D01*
X153186913Y-54528754D01*
X152932580Y-54648963D01*
X152706586Y-54816481D01*
X152517615Y-55024869D01*
X152402579Y-55216682D01*
X152328932Y-55078899D01*
X152149608Y-54860392D01*
X151931101Y-54681068D01*
X151681808Y-54547818D01*
X151411309Y-54465764D01*
X151200492Y-54445000D01*
X151059508Y-54445000D01*
X150848691Y-54465764D01*
X150578192Y-54547818D01*
X150328899Y-54681068D01*
X150110392Y-54860392D01*
X149931068Y-55078899D01*
X149860000Y-55211858D01*
X149788932Y-55078899D01*
X149609608Y-54860392D01*
X149391101Y-54681068D01*
X149141808Y-54547818D01*
X148871309Y-54465764D01*
X148660492Y-54445000D01*
X148519508Y-54445000D01*
X148308691Y-54465764D01*
X148038192Y-54547818D01*
X147788899Y-54681068D01*
X147570392Y-54860392D01*
X147391068Y-55078899D01*
X147320000Y-55211858D01*
X147248932Y-55078899D01*
X147069608Y-54860392D01*
X146851101Y-54681068D01*
X146601808Y-54547818D01*
X146331309Y-54465764D01*
X146120492Y-54445000D01*
X145979508Y-54445000D01*
X145768691Y-54465764D01*
X145498192Y-54547818D01*
X145248899Y-54681068D01*
X145030392Y-54860392D01*
X144851068Y-55078899D01*
X144780000Y-55211858D01*
X144708932Y-55078899D01*
X144529608Y-54860392D01*
X144311101Y-54681068D01*
X144061808Y-54547818D01*
X143791309Y-54465764D01*
X143580492Y-54445000D01*
X143439508Y-54445000D01*
X143228691Y-54465764D01*
X142958192Y-54547818D01*
X142708899Y-54681068D01*
X142490392Y-54860392D01*
X142311068Y-55078899D01*
X142240000Y-55211858D01*
X142168932Y-55078899D01*
X141989608Y-54860392D01*
X141771101Y-54681068D01*
X141521808Y-54547818D01*
X141251309Y-54465764D01*
X141040492Y-54445000D01*
X140899508Y-54445000D01*
X140688691Y-54465764D01*
X140418192Y-54547818D01*
X140168899Y-54681068D01*
X139950392Y-54860392D01*
X139771068Y-55078899D01*
X139700000Y-55211858D01*
X139628932Y-55078899D01*
X139449608Y-54860392D01*
X139231101Y-54681068D01*
X138981808Y-54547818D01*
X138711309Y-54465764D01*
X138500492Y-54445000D01*
X138359508Y-54445000D01*
X138148691Y-54465764D01*
X137878192Y-54547818D01*
X137628899Y-54681068D01*
X137410392Y-54860392D01*
X137231068Y-55078899D01*
X137160000Y-55211858D01*
X137088932Y-55078899D01*
X136909608Y-54860392D01*
X136691101Y-54681068D01*
X136441808Y-54547818D01*
X136171309Y-54465764D01*
X135960492Y-54445000D01*
X135819508Y-54445000D01*
X135608691Y-54465764D01*
X135338192Y-54547818D01*
X135088899Y-54681068D01*
X134870392Y-54860392D01*
X134691068Y-55078899D01*
X134620000Y-55211858D01*
X134548932Y-55078899D01*
X134369608Y-54860392D01*
X134151101Y-54681068D01*
X133901808Y-54547818D01*
X133631309Y-54465764D01*
X133420492Y-54445000D01*
X133279508Y-54445000D01*
X133068691Y-54465764D01*
X132798192Y-54547818D01*
X132548899Y-54681068D01*
X132330392Y-54860392D01*
X132151068Y-55078899D01*
X132080000Y-55211858D01*
X132008932Y-55078899D01*
X131829608Y-54860392D01*
X131611101Y-54681068D01*
X131361808Y-54547818D01*
X131091309Y-54465764D01*
X130880492Y-54445000D01*
X130739508Y-54445000D01*
X130528691Y-54465764D01*
X130258192Y-54547818D01*
X130008899Y-54681068D01*
X129790392Y-54860392D01*
X129697581Y-54973482D01*
X129695812Y-54955518D01*
X129659502Y-54835820D01*
X129600537Y-54725506D01*
X129521185Y-54628815D01*
X129424494Y-54549463D01*
X129314180Y-54490498D01*
X129194482Y-54454188D01*
X129070000Y-54441928D01*
X128924326Y-54441928D01*
X128904974Y-54405724D01*
X128810001Y-54289999D01*
X128781004Y-54266202D01*
X128180574Y-53665773D01*
X128156772Y-53636770D01*
X128041047Y-53541797D01*
X127909018Y-53471225D01*
X127765757Y-53427768D01*
X127654104Y-53416771D01*
X127654093Y-53416771D01*
X127616771Y-53413095D01*
X127579449Y-53416771D01*
X126441969Y-53416771D01*
X126398032Y-53372834D01*
X126228514Y-53259566D01*
X126040156Y-53181545D01*
X125840197Y-53141771D01*
X125636319Y-53141771D01*
X125436360Y-53181545D01*
X125248002Y-53259566D01*
X125220000Y-53278276D01*
X125220000Y-49600953D01*
X125800954Y-49020000D01*
X127049099Y-49020000D01*
X127071068Y-49061101D01*
X127250392Y-49279608D01*
X127468899Y-49458932D01*
X127718192Y-49592182D01*
X127988691Y-49674236D01*
X128199508Y-49695000D01*
X128340492Y-49695000D01*
X128551309Y-49674236D01*
X128821808Y-49592182D01*
X129071101Y-49458932D01*
X129289608Y-49279608D01*
X129468932Y-49061101D01*
X129540000Y-48928142D01*
X129611068Y-49061101D01*
X129790392Y-49279608D01*
X130008899Y-49458932D01*
X130258192Y-49592182D01*
X130528691Y-49674236D01*
X130739508Y-49695000D01*
X130880492Y-49695000D01*
X131091309Y-49674236D01*
X131361808Y-49592182D01*
X131611101Y-49458932D01*
X131829608Y-49279608D01*
X132008932Y-49061101D01*
X132080000Y-48928142D01*
X132151068Y-49061101D01*
X132330392Y-49279608D01*
X132548899Y-49458932D01*
X132798192Y-49592182D01*
X133068691Y-49674236D01*
X133279508Y-49695000D01*
X133420492Y-49695000D01*
X133631309Y-49674236D01*
X133901808Y-49592182D01*
X134151101Y-49458932D01*
X134369608Y-49279608D01*
X134548932Y-49061101D01*
X134620000Y-48928142D01*
X134691068Y-49061101D01*
X134870392Y-49279608D01*
X135088899Y-49458932D01*
X135338192Y-49592182D01*
X135608691Y-49674236D01*
X135819508Y-49695000D01*
X135960492Y-49695000D01*
X136171309Y-49674236D01*
X136441808Y-49592182D01*
X136691101Y-49458932D01*
X136909608Y-49279608D01*
X137088932Y-49061101D01*
X137160000Y-48928142D01*
X137231068Y-49061101D01*
X137410392Y-49279608D01*
X137628899Y-49458932D01*
X137878192Y-49592182D01*
X138148691Y-49674236D01*
X138359508Y-49695000D01*
X138500492Y-49695000D01*
X138711309Y-49674236D01*
X138981808Y-49592182D01*
X139231101Y-49458932D01*
X139449608Y-49279608D01*
X139628932Y-49061101D01*
X139700000Y-48928142D01*
X139771068Y-49061101D01*
X139950392Y-49279608D01*
X140168899Y-49458932D01*
X140418192Y-49592182D01*
X140688691Y-49674236D01*
X140899508Y-49695000D01*
X141040492Y-49695000D01*
X141251309Y-49674236D01*
X141521808Y-49592182D01*
X141771101Y-49458932D01*
X141989608Y-49279608D01*
X142168932Y-49061101D01*
X142240000Y-48928142D01*
X142311068Y-49061101D01*
X142490392Y-49279608D01*
X142708899Y-49458932D01*
X142958192Y-49592182D01*
X143228691Y-49674236D01*
X143439508Y-49695000D01*
X143580492Y-49695000D01*
X143791309Y-49674236D01*
X144061808Y-49592182D01*
X144311101Y-49458932D01*
X144529608Y-49279608D01*
X144708932Y-49061101D01*
X144780000Y-48928142D01*
X144851068Y-49061101D01*
X145030392Y-49279608D01*
X145248899Y-49458932D01*
X145498192Y-49592182D01*
X145768691Y-49674236D01*
X145979508Y-49695000D01*
X146120492Y-49695000D01*
X146331309Y-49674236D01*
X146601808Y-49592182D01*
X146851101Y-49458932D01*
X147069608Y-49279608D01*
X147248932Y-49061101D01*
X147320000Y-48928142D01*
X147391068Y-49061101D01*
X147570392Y-49279608D01*
X147788899Y-49458932D01*
X148038192Y-49592182D01*
X148308691Y-49674236D01*
X148519508Y-49695000D01*
X148660492Y-49695000D01*
X148871309Y-49674236D01*
X149141808Y-49592182D01*
X149391101Y-49458932D01*
X149609608Y-49279608D01*
X149788932Y-49061101D01*
X149860000Y-48928142D01*
X149931068Y-49061101D01*
X150110392Y-49279608D01*
X150328899Y-49458932D01*
X150578192Y-49592182D01*
X150848691Y-49674236D01*
X151059508Y-49695000D01*
X151200492Y-49695000D01*
X151411309Y-49674236D01*
X151681808Y-49592182D01*
X151931101Y-49458932D01*
X152149608Y-49279608D01*
X152328932Y-49061101D01*
X152400000Y-48928142D01*
X152471068Y-49061101D01*
X152650392Y-49279608D01*
X152868899Y-49458932D01*
X153118192Y-49592182D01*
X153388691Y-49674236D01*
X153599508Y-49695000D01*
X153740492Y-49695000D01*
X153951309Y-49674236D01*
X154221808Y-49592182D01*
X154471101Y-49458932D01*
X154689608Y-49279608D01*
X154868932Y-49061101D01*
X154940000Y-48928142D01*
X155011068Y-49061101D01*
X155190392Y-49279608D01*
X155408899Y-49458932D01*
X155658192Y-49592182D01*
X155928691Y-49674236D01*
X156139508Y-49695000D01*
X156280492Y-49695000D01*
X156491309Y-49674236D01*
X156761808Y-49592182D01*
X157011101Y-49458932D01*
X157229608Y-49279608D01*
X157408932Y-49061101D01*
X157482579Y-48923318D01*
X157597615Y-49115131D01*
X157786586Y-49323519D01*
X158012580Y-49491037D01*
X158266913Y-49611246D01*
X158400961Y-49651904D01*
X158623000Y-49529915D01*
X158623000Y-48387000D01*
X158603000Y-48387000D01*
X158603000Y-48133000D01*
X158623000Y-48133000D01*
X158623000Y-46990085D01*
X158877000Y-46990085D01*
X158877000Y-48133000D01*
X158897000Y-48133000D01*
X158897000Y-48387000D01*
X158877000Y-48387000D01*
X158877000Y-49529915D01*
X159099039Y-49651904D01*
X159233087Y-49611246D01*
X159487420Y-49491037D01*
X159713414Y-49323519D01*
X159902385Y-49115131D01*
X160017421Y-48923318D01*
X160091068Y-49061101D01*
X160270392Y-49279608D01*
X160488899Y-49458932D01*
X160738192Y-49592182D01*
X161008691Y-49674236D01*
X161219508Y-49695000D01*
X161360492Y-49695000D01*
X161571309Y-49674236D01*
X161841808Y-49592182D01*
X162091101Y-49458932D01*
X162309608Y-49279608D01*
X162488932Y-49061101D01*
X162562579Y-48923318D01*
X162677615Y-49115131D01*
X162866586Y-49323519D01*
X163092580Y-49491037D01*
X163346913Y-49611246D01*
X163480961Y-49651904D01*
X163703000Y-49529915D01*
X163703000Y-48387000D01*
X163957000Y-48387000D01*
X163957000Y-49529915D01*
X164179039Y-49651904D01*
X164313087Y-49611246D01*
X164567420Y-49491037D01*
X164793414Y-49323519D01*
X164982385Y-49115131D01*
X165127070Y-48873881D01*
X165221909Y-48609040D01*
X165100624Y-48387000D01*
X163957000Y-48387000D01*
X163703000Y-48387000D01*
X163683000Y-48387000D01*
X163683000Y-48133000D01*
X163703000Y-48133000D01*
X163703000Y-46990085D01*
X163957000Y-46990085D01*
X163957000Y-48133000D01*
X165100624Y-48133000D01*
X165221909Y-47910960D01*
X165127070Y-47646119D01*
X164982385Y-47404869D01*
X164793414Y-47196481D01*
X164567420Y-47028963D01*
X164313087Y-46908754D01*
X164179039Y-46868096D01*
X163957000Y-46990085D01*
X163703000Y-46990085D01*
X163480961Y-46868096D01*
X163346913Y-46908754D01*
X163092580Y-47028963D01*
X162866586Y-47196481D01*
X162677615Y-47404869D01*
X162562579Y-47596682D01*
X162488932Y-47458899D01*
X162309608Y-47240392D01*
X162091101Y-47061068D01*
X161841808Y-46927818D01*
X161571309Y-46845764D01*
X161360492Y-46825000D01*
X161219508Y-46825000D01*
X161008691Y-46845764D01*
X160738192Y-46927818D01*
X160488899Y-47061068D01*
X160270392Y-47240392D01*
X160091068Y-47458899D01*
X160017421Y-47596682D01*
X159902385Y-47404869D01*
X159713414Y-47196481D01*
X159487420Y-47028963D01*
X159233087Y-46908754D01*
X159099039Y-46868096D01*
X158877000Y-46990085D01*
X158623000Y-46990085D01*
X158400961Y-46868096D01*
X158266913Y-46908754D01*
X158012580Y-47028963D01*
X157786586Y-47196481D01*
X157597615Y-47404869D01*
X157482579Y-47596682D01*
X157408932Y-47458899D01*
X157229608Y-47240392D01*
X157011101Y-47061068D01*
X156761808Y-46927818D01*
X156491309Y-46845764D01*
X156280492Y-46825000D01*
X156139508Y-46825000D01*
X155928691Y-46845764D01*
X155658192Y-46927818D01*
X155408899Y-47061068D01*
X155190392Y-47240392D01*
X155011068Y-47458899D01*
X154940000Y-47591858D01*
X154868932Y-47458899D01*
X154689608Y-47240392D01*
X154471101Y-47061068D01*
X154221808Y-46927818D01*
X153951309Y-46845764D01*
X153740492Y-46825000D01*
X153599508Y-46825000D01*
X153388691Y-46845764D01*
X153118192Y-46927818D01*
X152868899Y-47061068D01*
X152650392Y-47240392D01*
X152471068Y-47458899D01*
X152400000Y-47591858D01*
X152328932Y-47458899D01*
X152149608Y-47240392D01*
X151931101Y-47061068D01*
X151681808Y-46927818D01*
X151411309Y-46845764D01*
X151200492Y-46825000D01*
X151059508Y-46825000D01*
X150848691Y-46845764D01*
X150578192Y-46927818D01*
X150328899Y-47061068D01*
X150110392Y-47240392D01*
X149931068Y-47458899D01*
X149860000Y-47591858D01*
X149788932Y-47458899D01*
X149609608Y-47240392D01*
X149391101Y-47061068D01*
X149141808Y-46927818D01*
X148871309Y-46845764D01*
X148660492Y-46825000D01*
X148519508Y-46825000D01*
X148308691Y-46845764D01*
X148038192Y-46927818D01*
X147788899Y-47061068D01*
X147570392Y-47240392D01*
X147391068Y-47458899D01*
X147320000Y-47591858D01*
X147248932Y-47458899D01*
X147069608Y-47240392D01*
X146851101Y-47061068D01*
X146601808Y-46927818D01*
X146331309Y-46845764D01*
X146120492Y-46825000D01*
X145979508Y-46825000D01*
X145768691Y-46845764D01*
X145498192Y-46927818D01*
X145248899Y-47061068D01*
X145030392Y-47240392D01*
X144851068Y-47458899D01*
X144780000Y-47591858D01*
X144708932Y-47458899D01*
X144529608Y-47240392D01*
X144311101Y-47061068D01*
X144061808Y-46927818D01*
X143791309Y-46845764D01*
X143580492Y-46825000D01*
X143439508Y-46825000D01*
X143228691Y-46845764D01*
X142958192Y-46927818D01*
X142708899Y-47061068D01*
X142490392Y-47240392D01*
X142311068Y-47458899D01*
X142240000Y-47591858D01*
X142168932Y-47458899D01*
X141989608Y-47240392D01*
X141771101Y-47061068D01*
X141521808Y-46927818D01*
X141251309Y-46845764D01*
X141040492Y-46825000D01*
X140899508Y-46825000D01*
X140688691Y-46845764D01*
X140418192Y-46927818D01*
X140168899Y-47061068D01*
X139950392Y-47240392D01*
X139771068Y-47458899D01*
X139700000Y-47591858D01*
X139628932Y-47458899D01*
X139449608Y-47240392D01*
X139231101Y-47061068D01*
X138981808Y-46927818D01*
X138711309Y-46845764D01*
X138500492Y-46825000D01*
X138359508Y-46825000D01*
X138148691Y-46845764D01*
X137878192Y-46927818D01*
X137628899Y-47061068D01*
X137410392Y-47240392D01*
X137231068Y-47458899D01*
X137160000Y-47591858D01*
X137088932Y-47458899D01*
X136909608Y-47240392D01*
X136691101Y-47061068D01*
X136441808Y-46927818D01*
X136171309Y-46845764D01*
X135960492Y-46825000D01*
X135819508Y-46825000D01*
X135608691Y-46845764D01*
X135338192Y-46927818D01*
X135088899Y-47061068D01*
X134870392Y-47240392D01*
X134691068Y-47458899D01*
X134620000Y-47591858D01*
X134548932Y-47458899D01*
X134369608Y-47240392D01*
X134151101Y-47061068D01*
X133901808Y-46927818D01*
X133631309Y-46845764D01*
X133420492Y-46825000D01*
X133279508Y-46825000D01*
X133068691Y-46845764D01*
X132798192Y-46927818D01*
X132548899Y-47061068D01*
X132330392Y-47240392D01*
X132151068Y-47458899D01*
X132080000Y-47591858D01*
X132008932Y-47458899D01*
X131829608Y-47240392D01*
X131611101Y-47061068D01*
X131361808Y-46927818D01*
X131091309Y-46845764D01*
X130880492Y-46825000D01*
X130739508Y-46825000D01*
X130528691Y-46845764D01*
X130258192Y-46927818D01*
X130008899Y-47061068D01*
X129790392Y-47240392D01*
X129611068Y-47458899D01*
X129540000Y-47591858D01*
X129468932Y-47458899D01*
X129289608Y-47240392D01*
X129071101Y-47061068D01*
X128821808Y-46927818D01*
X128551309Y-46845764D01*
X128340492Y-46825000D01*
X128199508Y-46825000D01*
X127988691Y-46845764D01*
X127718192Y-46927818D01*
X127468899Y-47061068D01*
X127250392Y-47240392D01*
X127071068Y-47458899D01*
X127049099Y-47500000D01*
X125523474Y-47500000D01*
X125486151Y-47496324D01*
X125448828Y-47500000D01*
X125448819Y-47500000D01*
X125337166Y-47510997D01*
X125193905Y-47554454D01*
X125061875Y-47625026D01*
X125000982Y-47675000D01*
X124946151Y-47719999D01*
X124922353Y-47748997D01*
X124460000Y-48211350D01*
X122628649Y-46380000D01*
X128302419Y-46380000D01*
X128335661Y-46376726D01*
X128352137Y-46376726D01*
X128361302Y-46375763D01*
X128607618Y-46348134D01*
X128666098Y-46335703D01*
X128724808Y-46324079D01*
X128733611Y-46321353D01*
X128969869Y-46246408D01*
X129024824Y-46222854D01*
X129080158Y-46200047D01*
X129088264Y-46195664D01*
X129305466Y-46076256D01*
X129354791Y-46042482D01*
X129404648Y-46009357D01*
X129411749Y-46003483D01*
X129601621Y-45844160D01*
X129643465Y-45801431D01*
X129685918Y-45759273D01*
X129691742Y-45752132D01*
X129847053Y-45558965D01*
X129879814Y-45508901D01*
X129913260Y-45459315D01*
X129917586Y-45451179D01*
X130032418Y-45231524D01*
X130054802Y-45176120D01*
X130078007Y-45120919D01*
X130080670Y-45112097D01*
X130150652Y-44874321D01*
X130161861Y-44815559D01*
X130173890Y-44756962D01*
X130174789Y-44747791D01*
X130197253Y-44500951D01*
X130196835Y-44441135D01*
X130197253Y-44381318D01*
X130196354Y-44372147D01*
X130170446Y-44125644D01*
X130158412Y-44067017D01*
X130147208Y-44008284D01*
X130144544Y-43999462D01*
X130071249Y-43762686D01*
X130048074Y-43707555D01*
X130025661Y-43652080D01*
X130021334Y-43643944D01*
X129903446Y-43425914D01*
X129870012Y-43376346D01*
X129837240Y-43326265D01*
X129831416Y-43319124D01*
X129673423Y-43128144D01*
X129630988Y-43086005D01*
X129589125Y-43043255D01*
X129582024Y-43037381D01*
X129389946Y-42880727D01*
X129340169Y-42847655D01*
X129290763Y-42813826D01*
X129282657Y-42809444D01*
X129063809Y-42693081D01*
X129008532Y-42670298D01*
X128953525Y-42646721D01*
X128944722Y-42643997D01*
X128707441Y-42572357D01*
X128695538Y-42570000D01*
X167607721Y-42570000D01*
X167757869Y-42584722D01*
X167871246Y-42618953D01*
X167975819Y-42674555D01*
X168067596Y-42749407D01*
X168143091Y-42840664D01*
X168199419Y-42944844D01*
X168234440Y-43057976D01*
X168250000Y-43206022D01*
X168250001Y-90137711D01*
X168235278Y-90287869D01*
X168201047Y-90401246D01*
X168145446Y-90505817D01*
X168070594Y-90597595D01*
X167979335Y-90673091D01*
X167875160Y-90729419D01*
X167762024Y-90764440D01*
X167613979Y-90780000D01*
X82582279Y-90780000D01*
X82432131Y-90765278D01*
X82318754Y-90731047D01*
X82214183Y-90675446D01*
X82122405Y-90600594D01*
X82046909Y-90509335D01*
X81990581Y-90405160D01*
X81955560Y-90292024D01*
X81940000Y-90143979D01*
X81940000Y-89455413D01*
X114614192Y-89455413D01*
X114709956Y-89719814D01*
X114999571Y-89860704D01*
X115311108Y-89942384D01*
X115632595Y-89961718D01*
X115951675Y-89917961D01*
X116256088Y-89812795D01*
X116430044Y-89719814D01*
X116525808Y-89455413D01*
X121114192Y-89455413D01*
X121209956Y-89719814D01*
X121499571Y-89860704D01*
X121811108Y-89942384D01*
X122132595Y-89961718D01*
X122451675Y-89917961D01*
X122756088Y-89812795D01*
X122930044Y-89719814D01*
X123025808Y-89455413D01*
X122070000Y-88499605D01*
X121114192Y-89455413D01*
X116525808Y-89455413D01*
X115570000Y-88499605D01*
X114614192Y-89455413D01*
X81940000Y-89455413D01*
X81940000Y-88382595D01*
X113928282Y-88382595D01*
X113972039Y-88701675D01*
X114077205Y-89006088D01*
X114170186Y-89180044D01*
X114434587Y-89275808D01*
X115390395Y-88320000D01*
X115749605Y-88320000D01*
X116705413Y-89275808D01*
X116969814Y-89180044D01*
X117110704Y-88890429D01*
X117192384Y-88578892D01*
X117204189Y-88382595D01*
X120428282Y-88382595D01*
X120472039Y-88701675D01*
X120577205Y-89006088D01*
X120670186Y-89180044D01*
X120934587Y-89275808D01*
X121890395Y-88320000D01*
X122249605Y-88320000D01*
X123205413Y-89275808D01*
X123469814Y-89180044D01*
X123610704Y-88890429D01*
X123692384Y-88578892D01*
X123711718Y-88257405D01*
X123667961Y-87938325D01*
X123562795Y-87633912D01*
X123469814Y-87459956D01*
X123205413Y-87364192D01*
X122249605Y-88320000D01*
X121890395Y-88320000D01*
X120934587Y-87364192D01*
X120670186Y-87459956D01*
X120529296Y-87749571D01*
X120447616Y-88061108D01*
X120428282Y-88382595D01*
X117204189Y-88382595D01*
X117211718Y-88257405D01*
X117167961Y-87938325D01*
X117062795Y-87633912D01*
X116969814Y-87459956D01*
X116705413Y-87364192D01*
X115749605Y-88320000D01*
X115390395Y-88320000D01*
X114434587Y-87364192D01*
X114170186Y-87459956D01*
X114029296Y-87749571D01*
X113947616Y-88061108D01*
X113928282Y-88382595D01*
X81940000Y-88382595D01*
X81940000Y-87184587D01*
X114614192Y-87184587D01*
X115570000Y-88140395D01*
X116525808Y-87184587D01*
X121114192Y-87184587D01*
X122070000Y-88140395D01*
X123025808Y-87184587D01*
X122930044Y-86920186D01*
X122640429Y-86779296D01*
X122402406Y-86716890D01*
X148418524Y-86716890D01*
X148463175Y-86864099D01*
X148588359Y-87126920D01*
X148762412Y-87360269D01*
X148978645Y-87555178D01*
X149228748Y-87704157D01*
X149503109Y-87801481D01*
X149733000Y-87680814D01*
X149733000Y-86487000D01*
X149987000Y-86487000D01*
X149987000Y-87680814D01*
X150216891Y-87801481D01*
X150491252Y-87704157D01*
X150741355Y-87555178D01*
X150957588Y-87360269D01*
X151131641Y-87126920D01*
X151256825Y-86864099D01*
X151301476Y-86716890D01*
X151180155Y-86487000D01*
X149987000Y-86487000D01*
X149733000Y-86487000D01*
X148539845Y-86487000D01*
X148418524Y-86716890D01*
X122402406Y-86716890D01*
X122328892Y-86697616D01*
X122007405Y-86678282D01*
X121688325Y-86722039D01*
X121383912Y-86827205D01*
X121209956Y-86920186D01*
X121114192Y-87184587D01*
X116525808Y-87184587D01*
X116430044Y-86920186D01*
X116140429Y-86779296D01*
X115828892Y-86697616D01*
X115507405Y-86678282D01*
X115188325Y-86722039D01*
X114883912Y-86827205D01*
X114709956Y-86920186D01*
X114614192Y-87184587D01*
X81940000Y-87184587D01*
X81940000Y-83678665D01*
X100165000Y-83678665D01*
X100165000Y-83961335D01*
X100220147Y-84238574D01*
X100328320Y-84499727D01*
X100485363Y-84734759D01*
X100685241Y-84934637D01*
X100920273Y-85091680D01*
X101181426Y-85199853D01*
X101458665Y-85255000D01*
X101741335Y-85255000D01*
X102018574Y-85199853D01*
X102279727Y-85091680D01*
X102514759Y-84934637D01*
X102714637Y-84734759D01*
X102871680Y-84499727D01*
X102979853Y-84238574D01*
X103035000Y-83961335D01*
X103035000Y-83678665D01*
X102979853Y-83401426D01*
X102871680Y-83140273D01*
X102714637Y-82905241D01*
X102514759Y-82705363D01*
X102279727Y-82548320D01*
X102018574Y-82440147D01*
X101741335Y-82385000D01*
X101458665Y-82385000D01*
X101181426Y-82440147D01*
X100920273Y-82548320D01*
X100685241Y-82705363D01*
X100485363Y-82905241D01*
X100328320Y-83140273D01*
X100220147Y-83401426D01*
X100165000Y-83678665D01*
X81940000Y-83678665D01*
X81940000Y-73498967D01*
X93615000Y-73498967D01*
X93615000Y-73821033D01*
X93677832Y-74136912D01*
X93801082Y-74434463D01*
X93980013Y-74702252D01*
X94207748Y-74929987D01*
X94475537Y-75108918D01*
X94773088Y-75232168D01*
X95088967Y-75295000D01*
X95411033Y-75295000D01*
X95726912Y-75232168D01*
X96024463Y-75108918D01*
X96292252Y-74929987D01*
X96519987Y-74702252D01*
X96698918Y-74434463D01*
X96822168Y-74136912D01*
X96885000Y-73821033D01*
X96885000Y-73523589D01*
X123075000Y-73523589D01*
X123075000Y-73796411D01*
X123128225Y-74063989D01*
X123232629Y-74316043D01*
X123384201Y-74542886D01*
X123577114Y-74735799D01*
X123803957Y-74887371D01*
X124056011Y-74991775D01*
X124323589Y-75045000D01*
X124596411Y-75045000D01*
X124863989Y-74991775D01*
X125116043Y-74887371D01*
X125342886Y-74735799D01*
X125535799Y-74542886D01*
X125687371Y-74316043D01*
X125791775Y-74063989D01*
X125845000Y-73796411D01*
X125845000Y-73523589D01*
X125791775Y-73256011D01*
X125687371Y-73003957D01*
X125535799Y-72777114D01*
X125342886Y-72584201D01*
X125116043Y-72432629D01*
X124863989Y-72328225D01*
X124596411Y-72275000D01*
X124323589Y-72275000D01*
X124056011Y-72328225D01*
X123803957Y-72432629D01*
X123577114Y-72584201D01*
X123384201Y-72777114D01*
X123232629Y-73003957D01*
X123128225Y-73256011D01*
X123075000Y-73523589D01*
X96885000Y-73523589D01*
X96885000Y-73498967D01*
X96822168Y-73183088D01*
X96698918Y-72885537D01*
X96519987Y-72617748D01*
X96292252Y-72390013D01*
X96024463Y-72211082D01*
X95726912Y-72087832D01*
X95411033Y-72025000D01*
X95088967Y-72025000D01*
X94773088Y-72087832D01*
X94475537Y-72211082D01*
X94207748Y-72390013D01*
X93980013Y-72617748D01*
X93801082Y-72885537D01*
X93677832Y-73183088D01*
X93615000Y-73498967D01*
X81940000Y-73498967D01*
X81940000Y-69795413D01*
X94294192Y-69795413D01*
X94389956Y-70059814D01*
X94679571Y-70200704D01*
X94991108Y-70282384D01*
X95312595Y-70301718D01*
X95631675Y-70257961D01*
X95936088Y-70152795D01*
X96110044Y-70059814D01*
X96205808Y-69795413D01*
X95250000Y-68839605D01*
X94294192Y-69795413D01*
X81940000Y-69795413D01*
X81940000Y-68722595D01*
X93608282Y-68722595D01*
X93652039Y-69041675D01*
X93757205Y-69346088D01*
X93850186Y-69520044D01*
X94114587Y-69615808D01*
X95070395Y-68660000D01*
X95429605Y-68660000D01*
X96385413Y-69615808D01*
X96649814Y-69520044D01*
X96790704Y-69230429D01*
X96872384Y-68918892D01*
X96891718Y-68597405D01*
X96847961Y-68278325D01*
X96742795Y-67973912D01*
X96649814Y-67799956D01*
X96385413Y-67704192D01*
X95429605Y-68660000D01*
X95070395Y-68660000D01*
X94114587Y-67704192D01*
X93850186Y-67799956D01*
X93709296Y-68089571D01*
X93627616Y-68401108D01*
X93608282Y-68722595D01*
X81940000Y-68722595D01*
X81940000Y-43212279D01*
X81954722Y-43062131D01*
X81988953Y-42948754D01*
X82044555Y-42844181D01*
X82119407Y-42752404D01*
X82210664Y-42676909D01*
X82314844Y-42620581D01*
X82427976Y-42585560D01*
X82576022Y-42570000D01*
X121495101Y-42570000D01*
X121465192Y-42575922D01*
X121465192Y-42575922D01*
G37*
X121465192Y-42575922D02*
X121456389Y-42578647D01*
X121220131Y-42653592D01*
X121165209Y-42677132D01*
X121109842Y-42699952D01*
X121101736Y-42704336D01*
X120884534Y-42823744D01*
X120835171Y-42857543D01*
X120785352Y-42890643D01*
X120778252Y-42896517D01*
X120588379Y-43055839D01*
X120546516Y-43098588D01*
X120504082Y-43140727D01*
X120498258Y-43147868D01*
X120342947Y-43341035D01*
X120310186Y-43391099D01*
X120276740Y-43440685D01*
X120272418Y-43448814D01*
X120272415Y-43448819D01*
X120272414Y-43448822D01*
X120157582Y-43668476D01*
X120135173Y-43723942D01*
X120111994Y-43779081D01*
X120109330Y-43787903D01*
X120039348Y-44025679D01*
X120028139Y-44084441D01*
X120019822Y-44124953D01*
X88502370Y-44124953D01*
X88465047Y-44121277D01*
X88427724Y-44124953D01*
X88427714Y-44124953D01*
X88316061Y-44135950D01*
X88172800Y-44179407D01*
X88040771Y-44249979D01*
X87925046Y-44344952D01*
X87901248Y-44373950D01*
X85415907Y-46859292D01*
X85371309Y-46845764D01*
X85160492Y-46825000D01*
X85019508Y-46825000D01*
X84808691Y-46845764D01*
X84538192Y-46927818D01*
X84288899Y-47061068D01*
X84070392Y-47240392D01*
X83891068Y-47458899D01*
X83757818Y-47708192D01*
X83675764Y-47978691D01*
X83648057Y-48260000D01*
X83675764Y-48541309D01*
X83757818Y-48811808D01*
X83891068Y-49061101D01*
X84070392Y-49279608D01*
X84288899Y-49458932D01*
X84538192Y-49592182D01*
X84808691Y-49674236D01*
X85019508Y-49695000D01*
X85160492Y-49695000D01*
X85371309Y-49674236D01*
X85641808Y-49592182D01*
X85891101Y-49458932D01*
X86109608Y-49279608D01*
X86288932Y-49061101D01*
X86360000Y-48928142D01*
X86431068Y-49061101D01*
X86610392Y-49279608D01*
X86828899Y-49458932D01*
X87078192Y-49592182D01*
X87348691Y-49674236D01*
X87559508Y-49695000D01*
X87700492Y-49695000D01*
X87911309Y-49674236D01*
X88181808Y-49592182D01*
X88431101Y-49458932D01*
X88649608Y-49279608D01*
X88828932Y-49061101D01*
X88900000Y-48928142D01*
X88971068Y-49061101D01*
X89150392Y-49279608D01*
X89368899Y-49458932D01*
X89618192Y-49592182D01*
X89888691Y-49674236D01*
X90099508Y-49695000D01*
X90240492Y-49695000D01*
X90451309Y-49674236D01*
X90721808Y-49592182D01*
X90971101Y-49458932D01*
X91189608Y-49279608D01*
X91368932Y-49061101D01*
X91440000Y-48928142D01*
X91511068Y-49061101D01*
X91690392Y-49279608D01*
X91908899Y-49458932D01*
X92158192Y-49592182D01*
X92428691Y-49674236D01*
X92639508Y-49695000D01*
X92780492Y-49695000D01*
X92991309Y-49674236D01*
X93261808Y-49592182D01*
X93511101Y-49458932D01*
X93729608Y-49279608D01*
X93908932Y-49061101D01*
X93980000Y-48928142D01*
X94051068Y-49061101D01*
X94230392Y-49279608D01*
X94448899Y-49458932D01*
X94698192Y-49592182D01*
X94968691Y-49674236D01*
X95179508Y-49695000D01*
X95320492Y-49695000D01*
X95531309Y-49674236D01*
X95801808Y-49592182D01*
X96051101Y-49458932D01*
X96269608Y-49279608D01*
X96448932Y-49061101D01*
X96520000Y-48928142D01*
X96591068Y-49061101D01*
X96770392Y-49279608D01*
X96988899Y-49458932D01*
X97238192Y-49592182D01*
X97508691Y-49674236D01*
X97719508Y-49695000D01*
X97860492Y-49695000D01*
X98071309Y-49674236D01*
X98341808Y-49592182D01*
X98591101Y-49458932D01*
X98809608Y-49279608D01*
X98988932Y-49061101D01*
X99060000Y-48928142D01*
X99131068Y-49061101D01*
X99310392Y-49279608D01*
X99528899Y-49458932D01*
X99778192Y-49592182D01*
X100048691Y-49674236D01*
X100259508Y-49695000D01*
X100400492Y-49695000D01*
X100611309Y-49674236D01*
X100881808Y-49592182D01*
X101131101Y-49458932D01*
X101349608Y-49279608D01*
X101528932Y-49061101D01*
X101600000Y-48928142D01*
X101671068Y-49061101D01*
X101850392Y-49279608D01*
X102068899Y-49458932D01*
X102318192Y-49592182D01*
X102588691Y-49674236D01*
X102799508Y-49695000D01*
X102940492Y-49695000D01*
X103151309Y-49674236D01*
X103421808Y-49592182D01*
X103671101Y-49458932D01*
X103889608Y-49279608D01*
X104068932Y-49061101D01*
X104140000Y-48928142D01*
X104211068Y-49061101D01*
X104390392Y-49279608D01*
X104608899Y-49458932D01*
X104858192Y-49592182D01*
X105128691Y-49674236D01*
X105339508Y-49695000D01*
X105480492Y-49695000D01*
X105691309Y-49674236D01*
X105961808Y-49592182D01*
X106211101Y-49458932D01*
X106429608Y-49279608D01*
X106608932Y-49061101D01*
X106680000Y-48928142D01*
X106751068Y-49061101D01*
X106930392Y-49279608D01*
X107148899Y-49458932D01*
X107398192Y-49592182D01*
X107668691Y-49674236D01*
X107879508Y-49695000D01*
X108020492Y-49695000D01*
X108231309Y-49674236D01*
X108501808Y-49592182D01*
X108751101Y-49458932D01*
X108969608Y-49279608D01*
X109148932Y-49061101D01*
X109220000Y-48928142D01*
X109291068Y-49061101D01*
X109470392Y-49279608D01*
X109688899Y-49458932D01*
X109730000Y-49480901D01*
X109730000Y-49895988D01*
X109710256Y-49882795D01*
X109521898Y-49804774D01*
X109321939Y-49765000D01*
X109118061Y-49765000D01*
X108918102Y-49804774D01*
X108729744Y-49882795D01*
X108560226Y-49996063D01*
X108516289Y-50040000D01*
X105447322Y-50040000D01*
X105409999Y-50036324D01*
X105372676Y-50040000D01*
X105372667Y-50040000D01*
X105261014Y-50050997D01*
X105117753Y-50094454D01*
X104985724Y-50165026D01*
X104869999Y-50259999D01*
X104846201Y-50288997D01*
X103629003Y-51506196D01*
X103599999Y-51529999D01*
X103559175Y-51579744D01*
X103505026Y-51645724D01*
X103439613Y-51768102D01*
X103434454Y-51777754D01*
X103390997Y-51921015D01*
X103380000Y-52032668D01*
X103380000Y-52032678D01*
X103376324Y-52070000D01*
X103380000Y-52107322D01*
X103380000Y-54535136D01*
X103151309Y-54465764D01*
X102940492Y-54445000D01*
X102799508Y-54445000D01*
X102588691Y-54465764D01*
X102318192Y-54547818D01*
X102068899Y-54681068D01*
X101850392Y-54860392D01*
X101671068Y-55078899D01*
X101600000Y-55211858D01*
X101528932Y-55078899D01*
X101349608Y-54860392D01*
X101131101Y-54681068D01*
X100881808Y-54547818D01*
X100611309Y-54465764D01*
X100400492Y-54445000D01*
X100259508Y-54445000D01*
X100048691Y-54465764D01*
X99778192Y-54547818D01*
X99528899Y-54681068D01*
X99310392Y-54860392D01*
X99131068Y-55078899D01*
X99060000Y-55211858D01*
X98988932Y-55078899D01*
X98809608Y-54860392D01*
X98591101Y-54681068D01*
X98341808Y-54547818D01*
X98071309Y-54465764D01*
X97860492Y-54445000D01*
X97719508Y-54445000D01*
X97508691Y-54465764D01*
X97464094Y-54479292D01*
X96328785Y-53343984D01*
X96304982Y-53314980D01*
X96189257Y-53220007D01*
X96057228Y-53149435D01*
X95913967Y-53105978D01*
X95802314Y-53094981D01*
X95802303Y-53094981D01*
X95764981Y-53091305D01*
X95727659Y-53094981D01*
X84967350Y-53094981D01*
X84930017Y-53091304D01*
X84892684Y-53094981D01*
X84781031Y-53105978D01*
X84637770Y-53149435D01*
X84505741Y-53220007D01*
X84390016Y-53314980D01*
X84366218Y-53343978D01*
X83453997Y-54256200D01*
X83424999Y-54279998D01*
X83401201Y-54308996D01*
X83401200Y-54308997D01*
X83330025Y-54395723D01*
X83259453Y-54527753D01*
X83236330Y-54603984D01*
X83220635Y-54655725D01*
X83215997Y-54671014D01*
X83201323Y-54819999D01*
X83205000Y-54857331D01*
X83204999Y-57315088D01*
X83201323Y-57352411D01*
X83204999Y-57389733D01*
X83204999Y-57389743D01*
X83215996Y-57501396D01*
X83240264Y-57581397D01*
X83259453Y-57644657D01*
X83330025Y-57776687D01*
X83336869Y-57785026D01*
X83424998Y-57892412D01*
X83454002Y-57916215D01*
X92423826Y-66886040D01*
X92447624Y-66915038D01*
X92476622Y-66938836D01*
X92563348Y-67010011D01*
X92660685Y-67062039D01*
X92695378Y-67080583D01*
X92838639Y-67124040D01*
X92950292Y-67135037D01*
X92950301Y-67135037D01*
X92987624Y-67138713D01*
X93024947Y-67135037D01*
X94657025Y-67135037D01*
X94563912Y-67167205D01*
X94389956Y-67260186D01*
X94294192Y-67524587D01*
X95250000Y-68480395D01*
X96205808Y-67524587D01*
X96110044Y-67260186D01*
X95852786Y-67135037D01*
X117207138Y-67135037D01*
X117195000Y-67144998D01*
X117171202Y-67173996D01*
X114300000Y-70045199D01*
X114065000Y-69810199D01*
X114065000Y-69748061D01*
X114025226Y-69548102D01*
X113947205Y-69359744D01*
X113833937Y-69190226D01*
X113689774Y-69046063D01*
X113520256Y-68932795D01*
X113331898Y-68854774D01*
X113131939Y-68815000D01*
X112928061Y-68815000D01*
X112728102Y-68854774D01*
X112539744Y-68932795D01*
X112370226Y-69046063D01*
X112226063Y-69190226D01*
X112112795Y-69359744D01*
X112034774Y-69548102D01*
X111995000Y-69748061D01*
X111995000Y-69951939D01*
X112034774Y-70151898D01*
X112112795Y-70340256D01*
X112226063Y-70509774D01*
X112370226Y-70653937D01*
X112539744Y-70767205D01*
X112728102Y-70845226D01*
X112928061Y-70885000D01*
X112990199Y-70885000D01*
X113736201Y-71631003D01*
X113759999Y-71660001D01*
X113875724Y-71754974D01*
X113937181Y-71787824D01*
X114007753Y-71825546D01*
X114151013Y-71869002D01*
X114299999Y-71883676D01*
X114300000Y-71883676D01*
X114448985Y-71869002D01*
X114592246Y-71825546D01*
X114724276Y-71754974D01*
X114811002Y-71683799D01*
X114840001Y-71660001D01*
X114863801Y-71631000D01*
X118049803Y-68444999D01*
X123110524Y-68444999D01*
X123075000Y-68623589D01*
X123075000Y-68896411D01*
X123128225Y-69163989D01*
X123232629Y-69416043D01*
X123384201Y-69642886D01*
X123577114Y-69835799D01*
X123803957Y-69987371D01*
X124056011Y-70091775D01*
X124323589Y-70145000D01*
X124596411Y-70145000D01*
X124863989Y-70091775D01*
X125116043Y-69987371D01*
X125342886Y-69835799D01*
X125535799Y-69642886D01*
X125665290Y-69449089D01*
X131656200Y-75440000D01*
X121353711Y-75440000D01*
X121309774Y-75396063D01*
X121140256Y-75282795D01*
X120951898Y-75204774D01*
X120751939Y-75165000D01*
X120548061Y-75165000D01*
X120348102Y-75204774D01*
X120159744Y-75282795D01*
X119990226Y-75396063D01*
X119846063Y-75540226D01*
X119732795Y-75709744D01*
X119654774Y-75898102D01*
X119615000Y-76098061D01*
X119615000Y-76301939D01*
X119654774Y-76501898D01*
X119732795Y-76690256D01*
X119846063Y-76859774D01*
X119990226Y-77003937D01*
X120159744Y-77117205D01*
X120348102Y-77195226D01*
X120548061Y-77235000D01*
X120751939Y-77235000D01*
X120951898Y-77195226D01*
X121140256Y-77117205D01*
X121309774Y-77003937D01*
X121353711Y-76960000D01*
X121525829Y-76960000D01*
X121368192Y-77007818D01*
X121118899Y-77141068D01*
X120900392Y-77320393D01*
X120721068Y-77538900D01*
X120650000Y-77671858D01*
X120578932Y-77538899D01*
X120399607Y-77320392D01*
X120181100Y-77141068D01*
X119931807Y-77007818D01*
X119661308Y-76925764D01*
X119380000Y-76898057D01*
X119098691Y-76925764D01*
X118828192Y-77007818D01*
X118578899Y-77141068D01*
X118360392Y-77320393D01*
X118181068Y-77538900D01*
X118110000Y-77671858D01*
X118038932Y-77538899D01*
X117859607Y-77320392D01*
X117641100Y-77141068D01*
X117391807Y-77007818D01*
X117121308Y-76925764D01*
X116840000Y-76898057D01*
X116558691Y-76925764D01*
X116288192Y-77007818D01*
X116038899Y-77141068D01*
X115820392Y-77320393D01*
X115641068Y-77538900D01*
X115570000Y-77671858D01*
X115498932Y-77538899D01*
X115319607Y-77320392D01*
X115101100Y-77141068D01*
X114851807Y-77007818D01*
X114581308Y-76925764D01*
X114300000Y-76898057D01*
X114018691Y-76925764D01*
X113748192Y-77007818D01*
X113498899Y-77141068D01*
X113280392Y-77320393D01*
X113101068Y-77538900D01*
X113030000Y-77671858D01*
X112958932Y-77538899D01*
X112779607Y-77320392D01*
X112561100Y-77141068D01*
X112311807Y-77007818D01*
X112041308Y-76925764D01*
X111760000Y-76898057D01*
X111478691Y-76925764D01*
X111250000Y-76995136D01*
X111250000Y-76903711D01*
X111293937Y-76859774D01*
X111407205Y-76690256D01*
X111485226Y-76501898D01*
X111525000Y-76301939D01*
X111525000Y-76098061D01*
X111485226Y-75898102D01*
X111407205Y-75709744D01*
X111293937Y-75540226D01*
X111149774Y-75396063D01*
X110980256Y-75282795D01*
X110791898Y-75204774D01*
X110591939Y-75165000D01*
X110388061Y-75165000D01*
X110188102Y-75204774D01*
X109999744Y-75282795D01*
X109830226Y-75396063D01*
X109686063Y-75540226D01*
X109572795Y-75709744D01*
X109494774Y-75898102D01*
X109455000Y-76098061D01*
X109455000Y-76301939D01*
X109494774Y-76501898D01*
X109572795Y-76690256D01*
X109686063Y-76859774D01*
X109730000Y-76903711D01*
X109730000Y-76995136D01*
X109501308Y-76925764D01*
X109220000Y-76898057D01*
X108938691Y-76925764D01*
X108668192Y-77007818D01*
X108418899Y-77141068D01*
X108200392Y-77320393D01*
X108021068Y-77538900D01*
X107950000Y-77671858D01*
X107878932Y-77538899D01*
X107699607Y-77320392D01*
X107481100Y-77141068D01*
X107231807Y-77007818D01*
X106961308Y-76925764D01*
X106680000Y-76898057D01*
X106398691Y-76925764D01*
X106128192Y-77007818D01*
X105878899Y-77141068D01*
X105660392Y-77320393D01*
X105481068Y-77538900D01*
X105410000Y-77671858D01*
X105338932Y-77538899D01*
X105159607Y-77320392D01*
X104941100Y-77141068D01*
X104691807Y-77007818D01*
X104421308Y-76925764D01*
X104140000Y-76898057D01*
X103858691Y-76925764D01*
X103588192Y-77007818D01*
X103338899Y-77141068D01*
X103120392Y-77320393D01*
X103027581Y-77433483D01*
X103025812Y-77415518D01*
X102989502Y-77295820D01*
X102930537Y-77185506D01*
X102851185Y-77088815D01*
X102754494Y-77009463D01*
X102644180Y-76950498D01*
X102524482Y-76914188D01*
X102400000Y-76901928D01*
X100800000Y-76901928D01*
X100675518Y-76914188D01*
X100555820Y-76950498D01*
X100445506Y-77009463D01*
X100348815Y-77088815D01*
X100269463Y-77185506D01*
X100210498Y-77295820D01*
X100174188Y-77415518D01*
X100161928Y-77540000D01*
X100161928Y-79940000D01*
X100174188Y-80064482D01*
X100210498Y-80184180D01*
X100269463Y-80294494D01*
X100348815Y-80391185D01*
X100445506Y-80470537D01*
X100555820Y-80529502D01*
X100675518Y-80565812D01*
X100800000Y-80578072D01*
X102400000Y-80578072D01*
X102524482Y-80565812D01*
X102644180Y-80529502D01*
X102754494Y-80470537D01*
X102851185Y-80391185D01*
X102930537Y-80294494D01*
X102989502Y-80184180D01*
X103025812Y-80064482D01*
X103027581Y-80046517D01*
X103120393Y-80159608D01*
X103338900Y-80338932D01*
X103588193Y-80472182D01*
X103858692Y-80554236D01*
X104140000Y-80581943D01*
X104421309Y-80554236D01*
X104691808Y-80472182D01*
X104941101Y-80338932D01*
X105159608Y-80159608D01*
X105338932Y-79941101D01*
X105410000Y-79808142D01*
X105481068Y-79941101D01*
X105660393Y-80159608D01*
X105878900Y-80338932D01*
X106128193Y-80472182D01*
X106398692Y-80554236D01*
X106680000Y-80581943D01*
X106961309Y-80554236D01*
X107231808Y-80472182D01*
X107481101Y-80338932D01*
X107699608Y-80159608D01*
X107878932Y-79941101D01*
X107950000Y-79808142D01*
X108021068Y-79941101D01*
X108200393Y-80159608D01*
X108418900Y-80338932D01*
X108668193Y-80472182D01*
X108938692Y-80554236D01*
X109220000Y-80581943D01*
X109501309Y-80554236D01*
X109730001Y-80484864D01*
X109730001Y-82512668D01*
X109726324Y-82550000D01*
X109730001Y-82587333D01*
X109740998Y-82698986D01*
X109749138Y-82725820D01*
X109784454Y-82842246D01*
X109855026Y-82974276D01*
X109891648Y-83018899D01*
X109950000Y-83090001D01*
X109978998Y-83113799D01*
X110359292Y-83494094D01*
X110345764Y-83538691D01*
X110318057Y-83820000D01*
X110345764Y-84101309D01*
X110427818Y-84371808D01*
X110561068Y-84621101D01*
X110740392Y-84839608D01*
X110958899Y-85018932D01*
X111208192Y-85152182D01*
X111478691Y-85234236D01*
X111689508Y-85255000D01*
X111830492Y-85255000D01*
X112041309Y-85234236D01*
X112311808Y-85152182D01*
X112561101Y-85018932D01*
X112779608Y-84839608D01*
X112958932Y-84621101D01*
X112980901Y-84580000D01*
X114115091Y-84580000D01*
X114121082Y-84594463D01*
X114300013Y-84862252D01*
X114527748Y-85089987D01*
X114795537Y-85268918D01*
X115093088Y-85392168D01*
X115408967Y-85455000D01*
X115731033Y-85455000D01*
X116046912Y-85392168D01*
X116344463Y-85268918D01*
X116612252Y-85089987D01*
X116839987Y-84862252D01*
X117018918Y-84594463D01*
X117024909Y-84580000D01*
X120615091Y-84580000D01*
X120621082Y-84594463D01*
X120800013Y-84862252D01*
X121027748Y-85089987D01*
X121295537Y-85268918D01*
X121593088Y-85392168D01*
X121908967Y-85455000D01*
X122231033Y-85455000D01*
X122546912Y-85392168D01*
X122844463Y-85268918D01*
X123112252Y-85089987D01*
X123339987Y-84862252D01*
X123518918Y-84594463D01*
X123642168Y-84296912D01*
X123705000Y-83981033D01*
X123705000Y-83658967D01*
X123642168Y-83343088D01*
X123518918Y-83045537D01*
X123468446Y-82970000D01*
X148371928Y-82970000D01*
X148371928Y-84670000D01*
X148384188Y-84794482D01*
X148420498Y-84914180D01*
X148479463Y-85024494D01*
X148558815Y-85121185D01*
X148655506Y-85200537D01*
X148765820Y-85259502D01*
X148846466Y-85283966D01*
X148762412Y-85359731D01*
X148588359Y-85593080D01*
X148463175Y-85855901D01*
X148418524Y-86003110D01*
X148539845Y-86233000D01*
X149733000Y-86233000D01*
X149733000Y-86213000D01*
X149987000Y-86213000D01*
X149987000Y-86233000D01*
X151180155Y-86233000D01*
X151301476Y-86003110D01*
X151256825Y-85855901D01*
X151131641Y-85593080D01*
X150957588Y-85359731D01*
X150873534Y-85283966D01*
X150954180Y-85259502D01*
X151064494Y-85200537D01*
X151161185Y-85121185D01*
X151240537Y-85024494D01*
X151299502Y-84914180D01*
X151335812Y-84794482D01*
X151348072Y-84670000D01*
X151348072Y-82970000D01*
X151335812Y-82845518D01*
X151299502Y-82725820D01*
X151240537Y-82615506D01*
X151161185Y-82518815D01*
X151064494Y-82439463D01*
X150954180Y-82380498D01*
X150834482Y-82344188D01*
X150710000Y-82331928D01*
X149010000Y-82331928D01*
X148885518Y-82344188D01*
X148765820Y-82380498D01*
X148655506Y-82439463D01*
X148558815Y-82518815D01*
X148479463Y-82615506D01*
X148420498Y-82725820D01*
X148384188Y-82845518D01*
X148371928Y-82970000D01*
X123468446Y-82970000D01*
X123339987Y-82777748D01*
X123112252Y-82550013D01*
X122844463Y-82371082D01*
X122546912Y-82247832D01*
X122231033Y-82185000D01*
X121908967Y-82185000D01*
X121593088Y-82247832D01*
X121295537Y-82371082D01*
X121027748Y-82550013D01*
X120800013Y-82777748D01*
X120621082Y-83045537D01*
X120615091Y-83060000D01*
X117024909Y-83060000D01*
X117018918Y-83045537D01*
X116839987Y-82777748D01*
X116612252Y-82550013D01*
X116344463Y-82371082D01*
X116046912Y-82247832D01*
X115731033Y-82185000D01*
X115408967Y-82185000D01*
X115093088Y-82247832D01*
X114795537Y-82371082D01*
X114527748Y-82550013D01*
X114300013Y-82777748D01*
X114121082Y-83045537D01*
X114115091Y-83060000D01*
X112980901Y-83060000D01*
X112958932Y-83018899D01*
X112779608Y-82800392D01*
X112561101Y-82621068D01*
X112311808Y-82487818D01*
X112041309Y-82405764D01*
X111830492Y-82385000D01*
X111689508Y-82385000D01*
X111478691Y-82405764D01*
X111434094Y-82419292D01*
X111250000Y-82235199D01*
X111250000Y-80484864D01*
X111478692Y-80554236D01*
X111760000Y-80581943D01*
X112041309Y-80554236D01*
X112311808Y-80472182D01*
X112561101Y-80338932D01*
X112779608Y-80159608D01*
X112958932Y-79941101D01*
X113030000Y-79808142D01*
X113101068Y-79941101D01*
X113280393Y-80159608D01*
X113498900Y-80338932D01*
X113748193Y-80472182D01*
X114018692Y-80554236D01*
X114300000Y-80581943D01*
X114581309Y-80554236D01*
X114851808Y-80472182D01*
X115101101Y-80338932D01*
X115319608Y-80159608D01*
X115498932Y-79941101D01*
X115570000Y-79808142D01*
X115641068Y-79941101D01*
X115820393Y-80159608D01*
X116038900Y-80338932D01*
X116288193Y-80472182D01*
X116558692Y-80554236D01*
X116840000Y-80581943D01*
X117121309Y-80554236D01*
X117391808Y-80472182D01*
X117641101Y-80338932D01*
X117859608Y-80159608D01*
X118038932Y-79941101D01*
X118110000Y-79808142D01*
X118181068Y-79941101D01*
X118360393Y-80159608D01*
X118578900Y-80338932D01*
X118828193Y-80472182D01*
X119098692Y-80554236D01*
X119380000Y-80581943D01*
X119661309Y-80554236D01*
X119931808Y-80472182D01*
X120181101Y-80338932D01*
X120399608Y-80159608D01*
X120578932Y-79941101D01*
X120650000Y-79808142D01*
X120721068Y-79941101D01*
X120900393Y-80159608D01*
X121118900Y-80338932D01*
X121368193Y-80472182D01*
X121638692Y-80554236D01*
X121920000Y-80581943D01*
X122201309Y-80554236D01*
X122471808Y-80472182D01*
X122721101Y-80338932D01*
X122939608Y-80159608D01*
X123118932Y-79941101D01*
X123190000Y-79808142D01*
X123261068Y-79941101D01*
X123440393Y-80159608D01*
X123658900Y-80338932D01*
X123908193Y-80472182D01*
X124178692Y-80554236D01*
X124460000Y-80581943D01*
X124741309Y-80554236D01*
X125011808Y-80472182D01*
X125261101Y-80338932D01*
X125479608Y-80159608D01*
X125658932Y-79941101D01*
X125730000Y-79808142D01*
X125801068Y-79941101D01*
X125980393Y-80159608D01*
X126198900Y-80338932D01*
X126448193Y-80472182D01*
X126718692Y-80554236D01*
X127000000Y-80581943D01*
X127281309Y-80554236D01*
X127551808Y-80472182D01*
X127801101Y-80338932D01*
X128019608Y-80159608D01*
X128198932Y-79941101D01*
X128267265Y-79813259D01*
X128417399Y-80042839D01*
X128615105Y-80244500D01*
X128848354Y-80403715D01*
X129108182Y-80514367D01*
X129190961Y-80531904D01*
X129413000Y-80409915D01*
X129413000Y-78867000D01*
X129393000Y-78867000D01*
X129393000Y-78613000D01*
X129413000Y-78613000D01*
X129413000Y-78593000D01*
X129667000Y-78593000D01*
X129667000Y-78613000D01*
X129687000Y-78613000D01*
X129687000Y-78867000D01*
X129667000Y-78867000D01*
X129667000Y-80409915D01*
X129889039Y-80531904D01*
X129971818Y-80514367D01*
X130231646Y-80403715D01*
X130464895Y-80244500D01*
X130662601Y-80042839D01*
X130812735Y-79813259D01*
X130881068Y-79941101D01*
X131060393Y-80159608D01*
X131278900Y-80338932D01*
X131528193Y-80472182D01*
X131798692Y-80554236D01*
X132080000Y-80581943D01*
X132361309Y-80554236D01*
X132631808Y-80472182D01*
X132881101Y-80338932D01*
X133099608Y-80159608D01*
X133278932Y-79941101D01*
X133350000Y-79808142D01*
X133421068Y-79941101D01*
X133600393Y-80159608D01*
X133818900Y-80338932D01*
X134068193Y-80472182D01*
X134338692Y-80554236D01*
X134620000Y-80581943D01*
X134901309Y-80554236D01*
X135171808Y-80472182D01*
X135421101Y-80338932D01*
X135639608Y-80159608D01*
X135818932Y-79941101D01*
X135890000Y-79808142D01*
X135961068Y-79941101D01*
X136140393Y-80159608D01*
X136358900Y-80338932D01*
X136608193Y-80472182D01*
X136878692Y-80554236D01*
X137160000Y-80581943D01*
X137441309Y-80554236D01*
X137711808Y-80472182D01*
X137961101Y-80338932D01*
X138179608Y-80159608D01*
X138358932Y-79941101D01*
X138430000Y-79808142D01*
X138501068Y-79941101D01*
X138680393Y-80159608D01*
X138898900Y-80338932D01*
X139148193Y-80472182D01*
X139418692Y-80554236D01*
X139700000Y-80581943D01*
X139981309Y-80554236D01*
X140251808Y-80472182D01*
X140501101Y-80338932D01*
X140719608Y-80159608D01*
X140898932Y-79941101D01*
X140970000Y-79808142D01*
X141041068Y-79941101D01*
X141220393Y-80159608D01*
X141438900Y-80338932D01*
X141688193Y-80472182D01*
X141958692Y-80554236D01*
X142240000Y-80581943D01*
X142521309Y-80554236D01*
X142791808Y-80472182D01*
X143041101Y-80338932D01*
X143259608Y-80159608D01*
X143438932Y-79941101D01*
X143510000Y-79808142D01*
X143581068Y-79941101D01*
X143760393Y-80159608D01*
X143978900Y-80338932D01*
X144228193Y-80472182D01*
X144498692Y-80554236D01*
X144780000Y-80581943D01*
X145061309Y-80554236D01*
X145331808Y-80472182D01*
X145581101Y-80338932D01*
X145799608Y-80159608D01*
X145978932Y-79941101D01*
X146050000Y-79808142D01*
X146121068Y-79941101D01*
X146300393Y-80159608D01*
X146518900Y-80338932D01*
X146768193Y-80472182D01*
X147038692Y-80554236D01*
X147320000Y-80581943D01*
X147601309Y-80554236D01*
X147871808Y-80472182D01*
X148121101Y-80338932D01*
X148339608Y-80159608D01*
X148518932Y-79941101D01*
X148590000Y-79808142D01*
X148661068Y-79941101D01*
X148840393Y-80159608D01*
X149058900Y-80338932D01*
X149308193Y-80472182D01*
X149578692Y-80554236D01*
X149860000Y-80581943D01*
X150141309Y-80554236D01*
X150411808Y-80472182D01*
X150661101Y-80338932D01*
X150879608Y-80159608D01*
X151058932Y-79941101D01*
X151192182Y-79691808D01*
X151274236Y-79421309D01*
X151275717Y-79406275D01*
X151334276Y-79374974D01*
X151450001Y-79280001D01*
X151473804Y-79250997D01*
X154181009Y-76543794D01*
X154210001Y-76520001D01*
X154233795Y-76491008D01*
X154233799Y-76491004D01*
X154304973Y-76404277D01*
X154304974Y-76404276D01*
X154375546Y-76272247D01*
X154419003Y-76128986D01*
X154430000Y-76017333D01*
X154430000Y-76017324D01*
X154433676Y-75980001D01*
X154430000Y-75942678D01*
X154430000Y-75834013D01*
X154449744Y-75847205D01*
X154638102Y-75925226D01*
X154838061Y-75965000D01*
X155041939Y-75965000D01*
X155241898Y-75925226D01*
X155430256Y-75847205D01*
X155599774Y-75733937D01*
X155743937Y-75589774D01*
X155857205Y-75420256D01*
X155935226Y-75231898D01*
X155975000Y-75031939D01*
X155975000Y-74969801D01*
X158126004Y-72818798D01*
X158155002Y-72795000D01*
X158249975Y-72679275D01*
X158320547Y-72547246D01*
X158364004Y-72403985D01*
X158375001Y-72292332D01*
X158375001Y-72292324D01*
X158378677Y-72254999D01*
X158375001Y-72217674D01*
X158375001Y-63365413D01*
X160334192Y-63365413D01*
X160429956Y-63629814D01*
X160719571Y-63770704D01*
X161031108Y-63852384D01*
X161352595Y-63871718D01*
X161671675Y-63827961D01*
X161976088Y-63722795D01*
X162150044Y-63629814D01*
X162245808Y-63365413D01*
X161290000Y-62409605D01*
X160334192Y-63365413D01*
X158375001Y-63365413D01*
X158375001Y-62292595D01*
X159648282Y-62292595D01*
X159692039Y-62611675D01*
X159797205Y-62916088D01*
X159890186Y-63090044D01*
X160154587Y-63185808D01*
X161110395Y-62230000D01*
X161469605Y-62230000D01*
X162425413Y-63185808D01*
X162689814Y-63090044D01*
X162830704Y-62800429D01*
X162912384Y-62488892D01*
X162931718Y-62167405D01*
X162887961Y-61848325D01*
X162782795Y-61543912D01*
X162689814Y-61369956D01*
X162425413Y-61274192D01*
X161469605Y-62230000D01*
X161110395Y-62230000D01*
X160154587Y-61274192D01*
X159890186Y-61369956D01*
X159749296Y-61659571D01*
X159667616Y-61971108D01*
X159648282Y-62292595D01*
X158375001Y-62292595D01*
X158375001Y-61094587D01*
X160334192Y-61094587D01*
X161290000Y-62050395D01*
X162245808Y-61094587D01*
X162150044Y-60830186D01*
X161860429Y-60689296D01*
X161548892Y-60607616D01*
X161227405Y-60588282D01*
X160908325Y-60632039D01*
X160603912Y-60737205D01*
X160429956Y-60830186D01*
X160334192Y-61094587D01*
X158375001Y-61094587D01*
X158375001Y-59862323D01*
X158378677Y-59825000D01*
X158375001Y-59787677D01*
X158375001Y-59787668D01*
X158364004Y-59676015D01*
X158320547Y-59532754D01*
X158249975Y-59400725D01*
X158197846Y-59337205D01*
X158178800Y-59313997D01*
X158178796Y-59313993D01*
X158155002Y-59285000D01*
X158126010Y-59261207D01*
X156970000Y-58105199D01*
X156970000Y-57100901D01*
X157011101Y-57078932D01*
X157229608Y-56899608D01*
X157408932Y-56681101D01*
X157480000Y-56548142D01*
X157551068Y-56681101D01*
X157730392Y-56899608D01*
X157948899Y-57078932D01*
X158198192Y-57212182D01*
X158468691Y-57294236D01*
X158679508Y-57315000D01*
X158820492Y-57315000D01*
X159031309Y-57294236D01*
X159301808Y-57212182D01*
X159551101Y-57078932D01*
X159769608Y-56899608D01*
X159948932Y-56681101D01*
X160020000Y-56548142D01*
X160091068Y-56681101D01*
X160270392Y-56899608D01*
X160488899Y-57078932D01*
X160738192Y-57212182D01*
X161008691Y-57294236D01*
X161219508Y-57315000D01*
X161360492Y-57315000D01*
X161571309Y-57294236D01*
X161841808Y-57212182D01*
X162091101Y-57078932D01*
X162309608Y-56899608D01*
X162488932Y-56681101D01*
X162560000Y-56548142D01*
X162631068Y-56681101D01*
X162810392Y-56899608D01*
X163028899Y-57078932D01*
X163278192Y-57212182D01*
X163548691Y-57294236D01*
X163759508Y-57315000D01*
X163900492Y-57315000D01*
X164111309Y-57294236D01*
X164381808Y-57212182D01*
X164631101Y-57078932D01*
X164849608Y-56899608D01*
X165028932Y-56681101D01*
X165162182Y-56431808D01*
X165244236Y-56161309D01*
X165271943Y-55880000D01*
X165244236Y-55598691D01*
X165162182Y-55328192D01*
X165028932Y-55078899D01*
X164849608Y-54860392D01*
X164631101Y-54681068D01*
X164381808Y-54547818D01*
X164111309Y-54465764D01*
X163900492Y-54445000D01*
X163759508Y-54445000D01*
X163548691Y-54465764D01*
X163278192Y-54547818D01*
X163028899Y-54681068D01*
X162810392Y-54860392D01*
X162631068Y-55078899D01*
X162560000Y-55211858D01*
X162488932Y-55078899D01*
X162309608Y-54860392D01*
X162091101Y-54681068D01*
X161841808Y-54547818D01*
X161571309Y-54465764D01*
X161360492Y-54445000D01*
X161219508Y-54445000D01*
X161008691Y-54465764D01*
X160738192Y-54547818D01*
X160488899Y-54681068D01*
X160270392Y-54860392D01*
X160091068Y-55078899D01*
X160020000Y-55211858D01*
X159948932Y-55078899D01*
X159769608Y-54860392D01*
X159551101Y-54681068D01*
X159301808Y-54547818D01*
X159031309Y-54465764D01*
X158820492Y-54445000D01*
X158679508Y-54445000D01*
X158468691Y-54465764D01*
X158198192Y-54547818D01*
X157948899Y-54681068D01*
X157730392Y-54860392D01*
X157551068Y-55078899D01*
X157480000Y-55211858D01*
X157408932Y-55078899D01*
X157229608Y-54860392D01*
X157011101Y-54681068D01*
X156761808Y-54547818D01*
X156491309Y-54465764D01*
X156280492Y-54445000D01*
X156139508Y-54445000D01*
X155928691Y-54465764D01*
X155658192Y-54547818D01*
X155408899Y-54681068D01*
X155190392Y-54860392D01*
X155011068Y-55078899D01*
X154937421Y-55216682D01*
X154822385Y-55024869D01*
X154633414Y-54816481D01*
X154407420Y-54648963D01*
X154153087Y-54528754D01*
X154019039Y-54488096D01*
X153797000Y-54610085D01*
X153797000Y-55753000D01*
X153817000Y-55753000D01*
X153817000Y-56007000D01*
X153797000Y-56007000D01*
X153797000Y-57149915D01*
X153905000Y-57209251D01*
X153905000Y-57251939D01*
X153944774Y-57451898D01*
X154022795Y-57640256D01*
X154136063Y-57809774D01*
X154180001Y-57853712D01*
X154180000Y-58986289D01*
X154136063Y-59030226D01*
X154115621Y-59060819D01*
X153435000Y-58380199D01*
X153435000Y-58318061D01*
X153395226Y-58118102D01*
X153317205Y-57929744D01*
X153203937Y-57760226D01*
X153059774Y-57616063D01*
X152890256Y-57502795D01*
X152701898Y-57424774D01*
X152501939Y-57385000D01*
X152298061Y-57385000D01*
X152098102Y-57424774D01*
X151909744Y-57502795D01*
X151740226Y-57616063D01*
X151696289Y-57660000D01*
X127314802Y-57660000D01*
X126765000Y-57110199D01*
X126765000Y-57048061D01*
X126725226Y-56848102D01*
X126647205Y-56659744D01*
X126533937Y-56490226D01*
X126389774Y-56346063D01*
X126220256Y-56232795D01*
X126031898Y-56154774D01*
X125831939Y-56115000D01*
X125628061Y-56115000D01*
X125428102Y-56154774D01*
X125239744Y-56232795D01*
X125220000Y-56245987D01*
X125220000Y-55075266D01*
X125248002Y-55093976D01*
X125436360Y-55171997D01*
X125636319Y-55211771D01*
X125840197Y-55211771D01*
X126040156Y-55171997D01*
X126228514Y-55093976D01*
X126398032Y-54980708D01*
X126441969Y-54936771D01*
X126849875Y-54936771D01*
X126844188Y-54955518D01*
X126831928Y-55080000D01*
X126831928Y-56680000D01*
X126844188Y-56804482D01*
X126880498Y-56924180D01*
X126939463Y-57034494D01*
X127018815Y-57131185D01*
X127115506Y-57210537D01*
X127225820Y-57269502D01*
X127345518Y-57305812D01*
X127470000Y-57318072D01*
X129070000Y-57318072D01*
X129194482Y-57305812D01*
X129314180Y-57269502D01*
X129424494Y-57210537D01*
X129521185Y-57131185D01*
X129600537Y-57034494D01*
X129659502Y-56924180D01*
X129695812Y-56804482D01*
X129697581Y-56786518D01*
X129790392Y-56899608D01*
X130008899Y-57078932D01*
X130258192Y-57212182D01*
X130528691Y-57294236D01*
X130739508Y-57315000D01*
X130880492Y-57315000D01*
X131091309Y-57294236D01*
X131361808Y-57212182D01*
X131611101Y-57078932D01*
X131829608Y-56899608D01*
X132008932Y-56681101D01*
X132080000Y-56548142D01*
X132151068Y-56681101D01*
X132330392Y-56899608D01*
X132548899Y-57078932D01*
X132798192Y-57212182D01*
X133068691Y-57294236D01*
X133279508Y-57315000D01*
X133420492Y-57315000D01*
X133631309Y-57294236D01*
X133901808Y-57212182D01*
X134151101Y-57078932D01*
X134369608Y-56899608D01*
X134548932Y-56681101D01*
X134620000Y-56548142D01*
X134691068Y-56681101D01*
X134870392Y-56899608D01*
X135088899Y-57078932D01*
X135338192Y-57212182D01*
X135608691Y-57294236D01*
X135819508Y-57315000D01*
X135960492Y-57315000D01*
X136171309Y-57294236D01*
X136441808Y-57212182D01*
X136691101Y-57078932D01*
X136909608Y-56899608D01*
X137088932Y-56681101D01*
X137160000Y-56548142D01*
X137231068Y-56681101D01*
X137410392Y-56899608D01*
X137628899Y-57078932D01*
X137878192Y-57212182D01*
X138148691Y-57294236D01*
X138359508Y-57315000D01*
X138500492Y-57315000D01*
X138711309Y-57294236D01*
X138981808Y-57212182D01*
X139231101Y-57078932D01*
X139449608Y-56899608D01*
X139628932Y-56681101D01*
X139700000Y-56548142D01*
X139771068Y-56681101D01*
X139950392Y-56899608D01*
X140168899Y-57078932D01*
X140418192Y-57212182D01*
X140688691Y-57294236D01*
X140899508Y-57315000D01*
X141040492Y-57315000D01*
X141251309Y-57294236D01*
X141521808Y-57212182D01*
X141771101Y-57078932D01*
X141989608Y-56899608D01*
X142168932Y-56681101D01*
X142240000Y-56548142D01*
X142311068Y-56681101D01*
X142490392Y-56899608D01*
X142708899Y-57078932D01*
X142958192Y-57212182D01*
X143228691Y-57294236D01*
X143439508Y-57315000D01*
X143580492Y-57315000D01*
X143791309Y-57294236D01*
X144061808Y-57212182D01*
X144311101Y-57078932D01*
X144529608Y-56899608D01*
X144708932Y-56681101D01*
X144780000Y-56548142D01*
X144851068Y-56681101D01*
X145030392Y-56899608D01*
X145248899Y-57078932D01*
X145498192Y-57212182D01*
X145768691Y-57294236D01*
X145979508Y-57315000D01*
X146120492Y-57315000D01*
X146331309Y-57294236D01*
X146601808Y-57212182D01*
X146851101Y-57078932D01*
X147069608Y-56899608D01*
X147248932Y-56681101D01*
X147320000Y-56548142D01*
X147391068Y-56681101D01*
X147570392Y-56899608D01*
X147788899Y-57078932D01*
X148038192Y-57212182D01*
X148308691Y-57294236D01*
X148519508Y-57315000D01*
X148660492Y-57315000D01*
X148871309Y-57294236D01*
X149141808Y-57212182D01*
X149391101Y-57078932D01*
X149609608Y-56899608D01*
X149788932Y-56681101D01*
X149860000Y-56548142D01*
X149931068Y-56681101D01*
X150110392Y-56899608D01*
X150328899Y-57078932D01*
X150578192Y-57212182D01*
X150848691Y-57294236D01*
X151059508Y-57315000D01*
X151200492Y-57315000D01*
X151411309Y-57294236D01*
X151681808Y-57212182D01*
X151931101Y-57078932D01*
X152149608Y-56899608D01*
X152328932Y-56681101D01*
X152402579Y-56543318D01*
X152517615Y-56735131D01*
X152706586Y-56943519D01*
X152932580Y-57111037D01*
X153186913Y-57231246D01*
X153320961Y-57271904D01*
X153543000Y-57149915D01*
X153543000Y-56007000D01*
X153523000Y-56007000D01*
X153523000Y-55753000D01*
X153543000Y-55753000D01*
X153543000Y-54610085D01*
X153320961Y-54488096D01*
X153186913Y-54528754D01*
X152932580Y-54648963D01*
X152706586Y-54816481D01*
X152517615Y-55024869D01*
X152402579Y-55216682D01*
X152328932Y-55078899D01*
X152149608Y-54860392D01*
X151931101Y-54681068D01*
X151681808Y-54547818D01*
X151411309Y-54465764D01*
X151200492Y-54445000D01*
X151059508Y-54445000D01*
X150848691Y-54465764D01*
X150578192Y-54547818D01*
X150328899Y-54681068D01*
X150110392Y-54860392D01*
X149931068Y-55078899D01*
X149860000Y-55211858D01*
X149788932Y-55078899D01*
X149609608Y-54860392D01*
X149391101Y-54681068D01*
X149141808Y-54547818D01*
X148871309Y-54465764D01*
X148660492Y-54445000D01*
X148519508Y-54445000D01*
X148308691Y-54465764D01*
X148038192Y-54547818D01*
X147788899Y-54681068D01*
X147570392Y-54860392D01*
X147391068Y-55078899D01*
X147320000Y-55211858D01*
X147248932Y-55078899D01*
X147069608Y-54860392D01*
X146851101Y-54681068D01*
X146601808Y-54547818D01*
X146331309Y-54465764D01*
X146120492Y-54445000D01*
X145979508Y-54445000D01*
X145768691Y-54465764D01*
X145498192Y-54547818D01*
X145248899Y-54681068D01*
X145030392Y-54860392D01*
X144851068Y-55078899D01*
X144780000Y-55211858D01*
X144708932Y-55078899D01*
X144529608Y-54860392D01*
X144311101Y-54681068D01*
X144061808Y-54547818D01*
X143791309Y-54465764D01*
X143580492Y-54445000D01*
X143439508Y-54445000D01*
X143228691Y-54465764D01*
X142958192Y-54547818D01*
X142708899Y-54681068D01*
X142490392Y-54860392D01*
X142311068Y-55078899D01*
X142240000Y-55211858D01*
X142168932Y-55078899D01*
X141989608Y-54860392D01*
X141771101Y-54681068D01*
X141521808Y-54547818D01*
X141251309Y-54465764D01*
X141040492Y-54445000D01*
X140899508Y-54445000D01*
X140688691Y-54465764D01*
X140418192Y-54547818D01*
X140168899Y-54681068D01*
X139950392Y-54860392D01*
X139771068Y-55078899D01*
X139700000Y-55211858D01*
X139628932Y-55078899D01*
X139449608Y-54860392D01*
X139231101Y-54681068D01*
X138981808Y-54547818D01*
X138711309Y-54465764D01*
X138500492Y-54445000D01*
X138359508Y-54445000D01*
X138148691Y-54465764D01*
X137878192Y-54547818D01*
X137628899Y-54681068D01*
X137410392Y-54860392D01*
X137231068Y-55078899D01*
X137160000Y-55211858D01*
X137088932Y-55078899D01*
X136909608Y-54860392D01*
X136691101Y-54681068D01*
X136441808Y-54547818D01*
X136171309Y-54465764D01*
X135960492Y-54445000D01*
X135819508Y-54445000D01*
X135608691Y-54465764D01*
X135338192Y-54547818D01*
X135088899Y-54681068D01*
X134870392Y-54860392D01*
X134691068Y-55078899D01*
X134620000Y-55211858D01*
X134548932Y-55078899D01*
X134369608Y-54860392D01*
X134151101Y-54681068D01*
X133901808Y-54547818D01*
X133631309Y-54465764D01*
X133420492Y-54445000D01*
X133279508Y-54445000D01*
X133068691Y-54465764D01*
X132798192Y-54547818D01*
X132548899Y-54681068D01*
X132330392Y-54860392D01*
X132151068Y-55078899D01*
X132080000Y-55211858D01*
X132008932Y-55078899D01*
X131829608Y-54860392D01*
X131611101Y-54681068D01*
X131361808Y-54547818D01*
X131091309Y-54465764D01*
X130880492Y-54445000D01*
X130739508Y-54445000D01*
X130528691Y-54465764D01*
X130258192Y-54547818D01*
X130008899Y-54681068D01*
X129790392Y-54860392D01*
X129697581Y-54973482D01*
X129695812Y-54955518D01*
X129659502Y-54835820D01*
X129600537Y-54725506D01*
X129521185Y-54628815D01*
X129424494Y-54549463D01*
X129314180Y-54490498D01*
X129194482Y-54454188D01*
X129070000Y-54441928D01*
X128924326Y-54441928D01*
X128904974Y-54405724D01*
X128810001Y-54289999D01*
X128781004Y-54266202D01*
X128180574Y-53665773D01*
X128156772Y-53636770D01*
X128041047Y-53541797D01*
X127909018Y-53471225D01*
X127765757Y-53427768D01*
X127654104Y-53416771D01*
X127654093Y-53416771D01*
X127616771Y-53413095D01*
X127579449Y-53416771D01*
X126441969Y-53416771D01*
X126398032Y-53372834D01*
X126228514Y-53259566D01*
X126040156Y-53181545D01*
X125840197Y-53141771D01*
X125636319Y-53141771D01*
X125436360Y-53181545D01*
X125248002Y-53259566D01*
X125220000Y-53278276D01*
X125220000Y-49600953D01*
X125800954Y-49020000D01*
X127049099Y-49020000D01*
X127071068Y-49061101D01*
X127250392Y-49279608D01*
X127468899Y-49458932D01*
X127718192Y-49592182D01*
X127988691Y-49674236D01*
X128199508Y-49695000D01*
X128340492Y-49695000D01*
X128551309Y-49674236D01*
X128821808Y-49592182D01*
X129071101Y-49458932D01*
X129289608Y-49279608D01*
X129468932Y-49061101D01*
X129540000Y-48928142D01*
X129611068Y-49061101D01*
X129790392Y-49279608D01*
X130008899Y-49458932D01*
X130258192Y-49592182D01*
X130528691Y-49674236D01*
X130739508Y-49695000D01*
X130880492Y-49695000D01*
X131091309Y-49674236D01*
X131361808Y-49592182D01*
X131611101Y-49458932D01*
X131829608Y-49279608D01*
X132008932Y-49061101D01*
X132080000Y-48928142D01*
X132151068Y-49061101D01*
X132330392Y-49279608D01*
X132548899Y-49458932D01*
X132798192Y-49592182D01*
X133068691Y-49674236D01*
X133279508Y-49695000D01*
X133420492Y-49695000D01*
X133631309Y-49674236D01*
X133901808Y-49592182D01*
X134151101Y-49458932D01*
X134369608Y-49279608D01*
X134548932Y-49061101D01*
X134620000Y-48928142D01*
X134691068Y-49061101D01*
X134870392Y-49279608D01*
X135088899Y-49458932D01*
X135338192Y-49592182D01*
X135608691Y-49674236D01*
X135819508Y-49695000D01*
X135960492Y-49695000D01*
X136171309Y-49674236D01*
X136441808Y-49592182D01*
X136691101Y-49458932D01*
X136909608Y-49279608D01*
X137088932Y-49061101D01*
X137160000Y-48928142D01*
X137231068Y-49061101D01*
X137410392Y-49279608D01*
X137628899Y-49458932D01*
X137878192Y-49592182D01*
X138148691Y-49674236D01*
X138359508Y-49695000D01*
X138500492Y-49695000D01*
X138711309Y-49674236D01*
X138981808Y-49592182D01*
X139231101Y-49458932D01*
X139449608Y-49279608D01*
X139628932Y-49061101D01*
X139700000Y-48928142D01*
X139771068Y-49061101D01*
X139950392Y-49279608D01*
X140168899Y-49458932D01*
X140418192Y-49592182D01*
X140688691Y-49674236D01*
X140899508Y-49695000D01*
X141040492Y-49695000D01*
X141251309Y-49674236D01*
X141521808Y-49592182D01*
X141771101Y-49458932D01*
X141989608Y-49279608D01*
X142168932Y-49061101D01*
X142240000Y-48928142D01*
X142311068Y-49061101D01*
X142490392Y-49279608D01*
X142708899Y-49458932D01*
X142958192Y-49592182D01*
X143228691Y-49674236D01*
X143439508Y-49695000D01*
X143580492Y-49695000D01*
X143791309Y-49674236D01*
X144061808Y-49592182D01*
X144311101Y-49458932D01*
X144529608Y-49279608D01*
X144708932Y-49061101D01*
X144780000Y-48928142D01*
X144851068Y-49061101D01*
X145030392Y-49279608D01*
X145248899Y-49458932D01*
X145498192Y-49592182D01*
X145768691Y-49674236D01*
X145979508Y-49695000D01*
X146120492Y-49695000D01*
X146331309Y-49674236D01*
X146601808Y-49592182D01*
X146851101Y-49458932D01*
X147069608Y-49279608D01*
X147248932Y-49061101D01*
X147320000Y-48928142D01*
X147391068Y-49061101D01*
X147570392Y-49279608D01*
X147788899Y-49458932D01*
X148038192Y-49592182D01*
X148308691Y-49674236D01*
X148519508Y-49695000D01*
X148660492Y-49695000D01*
X148871309Y-49674236D01*
X149141808Y-49592182D01*
X149391101Y-49458932D01*
X149609608Y-49279608D01*
X149788932Y-49061101D01*
X149860000Y-48928142D01*
X149931068Y-49061101D01*
X150110392Y-49279608D01*
X150328899Y-49458932D01*
X150578192Y-49592182D01*
X150848691Y-49674236D01*
X151059508Y-49695000D01*
X151200492Y-49695000D01*
X151411309Y-49674236D01*
X151681808Y-49592182D01*
X151931101Y-49458932D01*
X152149608Y-49279608D01*
X152328932Y-49061101D01*
X152400000Y-48928142D01*
X152471068Y-49061101D01*
X152650392Y-49279608D01*
X152868899Y-49458932D01*
X153118192Y-49592182D01*
X153388691Y-49674236D01*
X153599508Y-49695000D01*
X153740492Y-49695000D01*
X153951309Y-49674236D01*
X154221808Y-49592182D01*
X154471101Y-49458932D01*
X154689608Y-49279608D01*
X154868932Y-49061101D01*
X154940000Y-48928142D01*
X155011068Y-49061101D01*
X155190392Y-49279608D01*
X155408899Y-49458932D01*
X155658192Y-49592182D01*
X155928691Y-49674236D01*
X156139508Y-49695000D01*
X156280492Y-49695000D01*
X156491309Y-49674236D01*
X156761808Y-49592182D01*
X157011101Y-49458932D01*
X157229608Y-49279608D01*
X157408932Y-49061101D01*
X157482579Y-48923318D01*
X157597615Y-49115131D01*
X157786586Y-49323519D01*
X158012580Y-49491037D01*
X158266913Y-49611246D01*
X158400961Y-49651904D01*
X158623000Y-49529915D01*
X158623000Y-48387000D01*
X158603000Y-48387000D01*
X158603000Y-48133000D01*
X158623000Y-48133000D01*
X158623000Y-46990085D01*
X158877000Y-46990085D01*
X158877000Y-48133000D01*
X158897000Y-48133000D01*
X158897000Y-48387000D01*
X158877000Y-48387000D01*
X158877000Y-49529915D01*
X159099039Y-49651904D01*
X159233087Y-49611246D01*
X159487420Y-49491037D01*
X159713414Y-49323519D01*
X159902385Y-49115131D01*
X160017421Y-48923318D01*
X160091068Y-49061101D01*
X160270392Y-49279608D01*
X160488899Y-49458932D01*
X160738192Y-49592182D01*
X161008691Y-49674236D01*
X161219508Y-49695000D01*
X161360492Y-49695000D01*
X161571309Y-49674236D01*
X161841808Y-49592182D01*
X162091101Y-49458932D01*
X162309608Y-49279608D01*
X162488932Y-49061101D01*
X162562579Y-48923318D01*
X162677615Y-49115131D01*
X162866586Y-49323519D01*
X163092580Y-49491037D01*
X163346913Y-49611246D01*
X163480961Y-49651904D01*
X163703000Y-49529915D01*
X163703000Y-48387000D01*
X163957000Y-48387000D01*
X163957000Y-49529915D01*
X164179039Y-49651904D01*
X164313087Y-49611246D01*
X164567420Y-49491037D01*
X164793414Y-49323519D01*
X164982385Y-49115131D01*
X165127070Y-48873881D01*
X165221909Y-48609040D01*
X165100624Y-48387000D01*
X163957000Y-48387000D01*
X163703000Y-48387000D01*
X163683000Y-48387000D01*
X163683000Y-48133000D01*
X163703000Y-48133000D01*
X163703000Y-46990085D01*
X163957000Y-46990085D01*
X163957000Y-48133000D01*
X165100624Y-48133000D01*
X165221909Y-47910960D01*
X165127070Y-47646119D01*
X164982385Y-47404869D01*
X164793414Y-47196481D01*
X164567420Y-47028963D01*
X164313087Y-46908754D01*
X164179039Y-46868096D01*
X163957000Y-46990085D01*
X163703000Y-46990085D01*
X163480961Y-46868096D01*
X163346913Y-46908754D01*
X163092580Y-47028963D01*
X162866586Y-47196481D01*
X162677615Y-47404869D01*
X162562579Y-47596682D01*
X162488932Y-47458899D01*
X162309608Y-47240392D01*
X162091101Y-47061068D01*
X161841808Y-46927818D01*
X161571309Y-46845764D01*
X161360492Y-46825000D01*
X161219508Y-46825000D01*
X161008691Y-46845764D01*
X160738192Y-46927818D01*
X160488899Y-47061068D01*
X160270392Y-47240392D01*
X160091068Y-47458899D01*
X160017421Y-47596682D01*
X159902385Y-47404869D01*
X159713414Y-47196481D01*
X159487420Y-47028963D01*
X159233087Y-46908754D01*
X159099039Y-46868096D01*
X158877000Y-46990085D01*
X158623000Y-46990085D01*
X158400961Y-46868096D01*
X158266913Y-46908754D01*
X158012580Y-47028963D01*
X157786586Y-47196481D01*
X157597615Y-47404869D01*
X157482579Y-47596682D01*
X157408932Y-47458899D01*
X157229608Y-47240392D01*
X157011101Y-47061068D01*
X156761808Y-46927818D01*
X156491309Y-46845764D01*
X156280492Y-46825000D01*
X156139508Y-46825000D01*
X155928691Y-46845764D01*
X155658192Y-46927818D01*
X155408899Y-47061068D01*
X155190392Y-47240392D01*
X155011068Y-47458899D01*
X154940000Y-47591858D01*
X154868932Y-47458899D01*
X154689608Y-47240392D01*
X154471101Y-47061068D01*
X154221808Y-46927818D01*
X153951309Y-46845764D01*
X153740492Y-46825000D01*
X153599508Y-46825000D01*
X153388691Y-46845764D01*
X153118192Y-46927818D01*
X152868899Y-47061068D01*
X152650392Y-47240392D01*
X152471068Y-47458899D01*
X152400000Y-47591858D01*
X152328932Y-47458899D01*
X152149608Y-47240392D01*
X151931101Y-47061068D01*
X151681808Y-46927818D01*
X151411309Y-46845764D01*
X151200492Y-46825000D01*
X151059508Y-46825000D01*
X150848691Y-46845764D01*
X150578192Y-46927818D01*
X150328899Y-47061068D01*
X150110392Y-47240392D01*
X149931068Y-47458899D01*
X149860000Y-47591858D01*
X149788932Y-47458899D01*
X149609608Y-47240392D01*
X149391101Y-47061068D01*
X149141808Y-46927818D01*
X148871309Y-46845764D01*
X148660492Y-46825000D01*
X148519508Y-46825000D01*
X148308691Y-46845764D01*
X148038192Y-46927818D01*
X147788899Y-47061068D01*
X147570392Y-47240392D01*
X147391068Y-47458899D01*
X147320000Y-47591858D01*
X147248932Y-47458899D01*
X147069608Y-47240392D01*
X146851101Y-47061068D01*
X146601808Y-46927818D01*
X146331309Y-46845764D01*
X146120492Y-46825000D01*
X145979508Y-46825000D01*
X145768691Y-46845764D01*
X145498192Y-46927818D01*
X145248899Y-47061068D01*
X145030392Y-47240392D01*
X144851068Y-47458899D01*
X144780000Y-47591858D01*
X144708932Y-47458899D01*
X144529608Y-47240392D01*
X144311101Y-47061068D01*
X144061808Y-46927818D01*
X143791309Y-46845764D01*
X143580492Y-46825000D01*
X143439508Y-46825000D01*
X143228691Y-46845764D01*
X142958192Y-46927818D01*
X142708899Y-47061068D01*
X142490392Y-47240392D01*
X142311068Y-47458899D01*
X142240000Y-47591858D01*
X142168932Y-47458899D01*
X141989608Y-47240392D01*
X141771101Y-47061068D01*
X141521808Y-46927818D01*
X141251309Y-46845764D01*
X141040492Y-46825000D01*
X140899508Y-46825000D01*
X140688691Y-46845764D01*
X140418192Y-46927818D01*
X140168899Y-47061068D01*
X139950392Y-47240392D01*
X139771068Y-47458899D01*
X139700000Y-47591858D01*
X139628932Y-47458899D01*
X139449608Y-47240392D01*
X139231101Y-47061068D01*
X138981808Y-46927818D01*
X138711309Y-46845764D01*
X138500492Y-46825000D01*
X138359508Y-46825000D01*
X138148691Y-46845764D01*
X137878192Y-46927818D01*
X137628899Y-47061068D01*
X137410392Y-47240392D01*
X137231068Y-47458899D01*
X137160000Y-47591858D01*
X137088932Y-47458899D01*
X136909608Y-47240392D01*
X136691101Y-47061068D01*
X136441808Y-46927818D01*
X136171309Y-46845764D01*
X135960492Y-46825000D01*
X135819508Y-46825000D01*
X135608691Y-46845764D01*
X135338192Y-46927818D01*
X135088899Y-47061068D01*
X134870392Y-47240392D01*
X134691068Y-47458899D01*
X134620000Y-47591858D01*
X134548932Y-47458899D01*
X134369608Y-47240392D01*
X134151101Y-47061068D01*
X133901808Y-46927818D01*
X133631309Y-46845764D01*
X133420492Y-46825000D01*
X133279508Y-46825000D01*
X133068691Y-46845764D01*
X132798192Y-46927818D01*
X132548899Y-47061068D01*
X132330392Y-47240392D01*
X132151068Y-47458899D01*
X132080000Y-47591858D01*
X132008932Y-47458899D01*
X131829608Y-47240392D01*
X131611101Y-47061068D01*
X131361808Y-46927818D01*
X131091309Y-46845764D01*
X130880492Y-46825000D01*
X130739508Y-46825000D01*
X130528691Y-46845764D01*
X130258192Y-46927818D01*
X130008899Y-47061068D01*
X129790392Y-47240392D01*
X129611068Y-47458899D01*
X129540000Y-47591858D01*
X129468932Y-47458899D01*
X129289608Y-47240392D01*
X129071101Y-47061068D01*
X128821808Y-46927818D01*
X128551309Y-46845764D01*
X128340492Y-46825000D01*
X128199508Y-46825000D01*
X127988691Y-46845764D01*
X127718192Y-46927818D01*
X127468899Y-47061068D01*
X127250392Y-47240392D01*
X127071068Y-47458899D01*
X127049099Y-47500000D01*
X125523474Y-47500000D01*
X125486151Y-47496324D01*
X125448828Y-47500000D01*
X125448819Y-47500000D01*
X125337166Y-47510997D01*
X125193905Y-47554454D01*
X125061875Y-47625026D01*
X125000982Y-47675000D01*
X124946151Y-47719999D01*
X124922353Y-47748997D01*
X124460000Y-48211350D01*
X122628649Y-46380000D01*
X128302419Y-46380000D01*
X128335661Y-46376726D01*
X128352137Y-46376726D01*
X128361302Y-46375763D01*
X128607618Y-46348134D01*
X128666098Y-46335703D01*
X128724808Y-46324079D01*
X128733611Y-46321353D01*
X128969869Y-46246408D01*
X129024824Y-46222854D01*
X129080158Y-46200047D01*
X129088264Y-46195664D01*
X129305466Y-46076256D01*
X129354791Y-46042482D01*
X129404648Y-46009357D01*
X129411749Y-46003483D01*
X129601621Y-45844160D01*
X129643465Y-45801431D01*
X129685918Y-45759273D01*
X129691742Y-45752132D01*
X129847053Y-45558965D01*
X129879814Y-45508901D01*
X129913260Y-45459315D01*
X129917586Y-45451179D01*
X130032418Y-45231524D01*
X130054802Y-45176120D01*
X130078007Y-45120919D01*
X130080670Y-45112097D01*
X130150652Y-44874321D01*
X130161861Y-44815559D01*
X130173890Y-44756962D01*
X130174789Y-44747791D01*
X130197253Y-44500951D01*
X130196835Y-44441135D01*
X130197253Y-44381318D01*
X130196354Y-44372147D01*
X130170446Y-44125644D01*
X130158412Y-44067017D01*
X130147208Y-44008284D01*
X130144544Y-43999462D01*
X130071249Y-43762686D01*
X130048074Y-43707555D01*
X130025661Y-43652080D01*
X130021334Y-43643944D01*
X129903446Y-43425914D01*
X129870012Y-43376346D01*
X129837240Y-43326265D01*
X129831416Y-43319124D01*
X129673423Y-43128144D01*
X129630988Y-43086005D01*
X129589125Y-43043255D01*
X129582024Y-43037381D01*
X129389946Y-42880727D01*
X129340169Y-42847655D01*
X129290763Y-42813826D01*
X129282657Y-42809444D01*
X129063809Y-42693081D01*
X129008532Y-42670298D01*
X128953525Y-42646721D01*
X128944722Y-42643997D01*
X128707441Y-42572357D01*
X128695538Y-42570000D01*
X167607721Y-42570000D01*
X167757869Y-42584722D01*
X167871246Y-42618953D01*
X167975819Y-42674555D01*
X168067596Y-42749407D01*
X168143091Y-42840664D01*
X168199419Y-42944844D01*
X168234440Y-43057976D01*
X168250000Y-43206022D01*
X168250001Y-90137711D01*
X168235278Y-90287869D01*
X168201047Y-90401246D01*
X168145446Y-90505817D01*
X168070594Y-90597595D01*
X167979335Y-90673091D01*
X167875160Y-90729419D01*
X167762024Y-90764440D01*
X167613979Y-90780000D01*
X82582279Y-90780000D01*
X82432131Y-90765278D01*
X82318754Y-90731047D01*
X82214183Y-90675446D01*
X82122405Y-90600594D01*
X82046909Y-90509335D01*
X81990581Y-90405160D01*
X81955560Y-90292024D01*
X81940000Y-90143979D01*
X81940000Y-89455413D01*
X114614192Y-89455413D01*
X114709956Y-89719814D01*
X114999571Y-89860704D01*
X115311108Y-89942384D01*
X115632595Y-89961718D01*
X115951675Y-89917961D01*
X116256088Y-89812795D01*
X116430044Y-89719814D01*
X116525808Y-89455413D01*
X121114192Y-89455413D01*
X121209956Y-89719814D01*
X121499571Y-89860704D01*
X121811108Y-89942384D01*
X122132595Y-89961718D01*
X122451675Y-89917961D01*
X122756088Y-89812795D01*
X122930044Y-89719814D01*
X123025808Y-89455413D01*
X122070000Y-88499605D01*
X121114192Y-89455413D01*
X116525808Y-89455413D01*
X115570000Y-88499605D01*
X114614192Y-89455413D01*
X81940000Y-89455413D01*
X81940000Y-88382595D01*
X113928282Y-88382595D01*
X113972039Y-88701675D01*
X114077205Y-89006088D01*
X114170186Y-89180044D01*
X114434587Y-89275808D01*
X115390395Y-88320000D01*
X115749605Y-88320000D01*
X116705413Y-89275808D01*
X116969814Y-89180044D01*
X117110704Y-88890429D01*
X117192384Y-88578892D01*
X117204189Y-88382595D01*
X120428282Y-88382595D01*
X120472039Y-88701675D01*
X120577205Y-89006088D01*
X120670186Y-89180044D01*
X120934587Y-89275808D01*
X121890395Y-88320000D01*
X122249605Y-88320000D01*
X123205413Y-89275808D01*
X123469814Y-89180044D01*
X123610704Y-88890429D01*
X123692384Y-88578892D01*
X123711718Y-88257405D01*
X123667961Y-87938325D01*
X123562795Y-87633912D01*
X123469814Y-87459956D01*
X123205413Y-87364192D01*
X122249605Y-88320000D01*
X121890395Y-88320000D01*
X120934587Y-87364192D01*
X120670186Y-87459956D01*
X120529296Y-87749571D01*
X120447616Y-88061108D01*
X120428282Y-88382595D01*
X117204189Y-88382595D01*
X117211718Y-88257405D01*
X117167961Y-87938325D01*
X117062795Y-87633912D01*
X116969814Y-87459956D01*
X116705413Y-87364192D01*
X115749605Y-88320000D01*
X115390395Y-88320000D01*
X114434587Y-87364192D01*
X114170186Y-87459956D01*
X114029296Y-87749571D01*
X113947616Y-88061108D01*
X113928282Y-88382595D01*
X81940000Y-88382595D01*
X81940000Y-87184587D01*
X114614192Y-87184587D01*
X115570000Y-88140395D01*
X116525808Y-87184587D01*
X121114192Y-87184587D01*
X122070000Y-88140395D01*
X123025808Y-87184587D01*
X122930044Y-86920186D01*
X122640429Y-86779296D01*
X122402406Y-86716890D01*
X148418524Y-86716890D01*
X148463175Y-86864099D01*
X148588359Y-87126920D01*
X148762412Y-87360269D01*
X148978645Y-87555178D01*
X149228748Y-87704157D01*
X149503109Y-87801481D01*
X149733000Y-87680814D01*
X149733000Y-86487000D01*
X149987000Y-86487000D01*
X149987000Y-87680814D01*
X150216891Y-87801481D01*
X150491252Y-87704157D01*
X150741355Y-87555178D01*
X150957588Y-87360269D01*
X151131641Y-87126920D01*
X151256825Y-86864099D01*
X151301476Y-86716890D01*
X151180155Y-86487000D01*
X149987000Y-86487000D01*
X149733000Y-86487000D01*
X148539845Y-86487000D01*
X148418524Y-86716890D01*
X122402406Y-86716890D01*
X122328892Y-86697616D01*
X122007405Y-86678282D01*
X121688325Y-86722039D01*
X121383912Y-86827205D01*
X121209956Y-86920186D01*
X121114192Y-87184587D01*
X116525808Y-87184587D01*
X116430044Y-86920186D01*
X116140429Y-86779296D01*
X115828892Y-86697616D01*
X115507405Y-86678282D01*
X115188325Y-86722039D01*
X114883912Y-86827205D01*
X114709956Y-86920186D01*
X114614192Y-87184587D01*
X81940000Y-87184587D01*
X81940000Y-83678665D01*
X100165000Y-83678665D01*
X100165000Y-83961335D01*
X100220147Y-84238574D01*
X100328320Y-84499727D01*
X100485363Y-84734759D01*
X100685241Y-84934637D01*
X100920273Y-85091680D01*
X101181426Y-85199853D01*
X101458665Y-85255000D01*
X101741335Y-85255000D01*
X102018574Y-85199853D01*
X102279727Y-85091680D01*
X102514759Y-84934637D01*
X102714637Y-84734759D01*
X102871680Y-84499727D01*
X102979853Y-84238574D01*
X103035000Y-83961335D01*
X103035000Y-83678665D01*
X102979853Y-83401426D01*
X102871680Y-83140273D01*
X102714637Y-82905241D01*
X102514759Y-82705363D01*
X102279727Y-82548320D01*
X102018574Y-82440147D01*
X101741335Y-82385000D01*
X101458665Y-82385000D01*
X101181426Y-82440147D01*
X100920273Y-82548320D01*
X100685241Y-82705363D01*
X100485363Y-82905241D01*
X100328320Y-83140273D01*
X100220147Y-83401426D01*
X100165000Y-83678665D01*
X81940000Y-83678665D01*
X81940000Y-73498967D01*
X93615000Y-73498967D01*
X93615000Y-73821033D01*
X93677832Y-74136912D01*
X93801082Y-74434463D01*
X93980013Y-74702252D01*
X94207748Y-74929987D01*
X94475537Y-75108918D01*
X94773088Y-75232168D01*
X95088967Y-75295000D01*
X95411033Y-75295000D01*
X95726912Y-75232168D01*
X96024463Y-75108918D01*
X96292252Y-74929987D01*
X96519987Y-74702252D01*
X96698918Y-74434463D01*
X96822168Y-74136912D01*
X96885000Y-73821033D01*
X96885000Y-73523589D01*
X123075000Y-73523589D01*
X123075000Y-73796411D01*
X123128225Y-74063989D01*
X123232629Y-74316043D01*
X123384201Y-74542886D01*
X123577114Y-74735799D01*
X123803957Y-74887371D01*
X124056011Y-74991775D01*
X124323589Y-75045000D01*
X124596411Y-75045000D01*
X124863989Y-74991775D01*
X125116043Y-74887371D01*
X125342886Y-74735799D01*
X125535799Y-74542886D01*
X125687371Y-74316043D01*
X125791775Y-74063989D01*
X125845000Y-73796411D01*
X125845000Y-73523589D01*
X125791775Y-73256011D01*
X125687371Y-73003957D01*
X125535799Y-72777114D01*
X125342886Y-72584201D01*
X125116043Y-72432629D01*
X124863989Y-72328225D01*
X124596411Y-72275000D01*
X124323589Y-72275000D01*
X124056011Y-72328225D01*
X123803957Y-72432629D01*
X123577114Y-72584201D01*
X123384201Y-72777114D01*
X123232629Y-73003957D01*
X123128225Y-73256011D01*
X123075000Y-73523589D01*
X96885000Y-73523589D01*
X96885000Y-73498967D01*
X96822168Y-73183088D01*
X96698918Y-72885537D01*
X96519987Y-72617748D01*
X96292252Y-72390013D01*
X96024463Y-72211082D01*
X95726912Y-72087832D01*
X95411033Y-72025000D01*
X95088967Y-72025000D01*
X94773088Y-72087832D01*
X94475537Y-72211082D01*
X94207748Y-72390013D01*
X93980013Y-72617748D01*
X93801082Y-72885537D01*
X93677832Y-73183088D01*
X93615000Y-73498967D01*
X81940000Y-73498967D01*
X81940000Y-69795413D01*
X94294192Y-69795413D01*
X94389956Y-70059814D01*
X94679571Y-70200704D01*
X94991108Y-70282384D01*
X95312595Y-70301718D01*
X95631675Y-70257961D01*
X95936088Y-70152795D01*
X96110044Y-70059814D01*
X96205808Y-69795413D01*
X95250000Y-68839605D01*
X94294192Y-69795413D01*
X81940000Y-69795413D01*
X81940000Y-68722595D01*
X93608282Y-68722595D01*
X93652039Y-69041675D01*
X93757205Y-69346088D01*
X93850186Y-69520044D01*
X94114587Y-69615808D01*
X95070395Y-68660000D01*
X95429605Y-68660000D01*
X96385413Y-69615808D01*
X96649814Y-69520044D01*
X96790704Y-69230429D01*
X96872384Y-68918892D01*
X96891718Y-68597405D01*
X96847961Y-68278325D01*
X96742795Y-67973912D01*
X96649814Y-67799956D01*
X96385413Y-67704192D01*
X95429605Y-68660000D01*
X95070395Y-68660000D01*
X94114587Y-67704192D01*
X93850186Y-67799956D01*
X93709296Y-68089571D01*
X93627616Y-68401108D01*
X93608282Y-68722595D01*
X81940000Y-68722595D01*
X81940000Y-43212279D01*
X81954722Y-43062131D01*
X81988953Y-42948754D01*
X82044555Y-42844181D01*
X82119407Y-42752404D01*
X82210664Y-42676909D01*
X82314844Y-42620581D01*
X82427976Y-42585560D01*
X82576022Y-42570000D01*
X121495101Y-42570000D01*
X121465192Y-42575922D01*
G36*
X101671068Y-56681101D02*
G01*
X101850392Y-56899608D01*
X102068899Y-57078932D01*
X102318192Y-57212182D01*
X102588691Y-57294236D01*
X102799508Y-57315000D01*
X102940492Y-57315000D01*
X103151309Y-57294236D01*
X103380001Y-57224864D01*
X103380001Y-59375197D01*
X102830199Y-59925000D01*
X102768061Y-59925000D01*
X102568102Y-59964774D01*
X102379744Y-60042795D01*
X102210226Y-60156063D01*
X102066063Y-60300226D01*
X101952795Y-60469744D01*
X101874774Y-60658102D01*
X101835000Y-60858061D01*
X101835000Y-61061939D01*
X101874774Y-61261898D01*
X101952795Y-61450256D01*
X102066063Y-61619774D01*
X102210226Y-61763937D01*
X102379744Y-61877205D01*
X102568102Y-61955226D01*
X102768061Y-61995000D01*
X102971939Y-61995000D01*
X103171898Y-61955226D01*
X103360256Y-61877205D01*
X103529774Y-61763937D01*
X103673937Y-61619774D01*
X103787205Y-61450256D01*
X103865226Y-61261898D01*
X103905000Y-61061939D01*
X103905000Y-60999801D01*
X104651003Y-60253799D01*
X104680001Y-60230001D01*
X104774974Y-60114276D01*
X104845546Y-59982247D01*
X104889003Y-59838986D01*
X104900000Y-59727333D01*
X104900000Y-59727324D01*
X104903676Y-59690001D01*
X104900000Y-59652678D01*
X104900000Y-57224864D01*
X105128691Y-57294236D01*
X105339508Y-57315000D01*
X105480492Y-57315000D01*
X105691309Y-57294236D01*
X105920001Y-57224864D01*
X105920000Y-61879099D01*
X105878899Y-61901068D01*
X105660392Y-62080393D01*
X105481068Y-62298900D01*
X105410000Y-62431858D01*
X105338932Y-62298899D01*
X105159607Y-62080392D01*
X104941100Y-61901068D01*
X104691807Y-61767818D01*
X104421308Y-61685764D01*
X104140000Y-61658057D01*
X103858691Y-61685764D01*
X103588192Y-61767818D01*
X103338899Y-61901068D01*
X103120392Y-62080393D01*
X102941068Y-62298900D01*
X102870000Y-62431858D01*
X102798932Y-62298899D01*
X102619607Y-62080392D01*
X102401100Y-61901068D01*
X102151807Y-61767818D01*
X101881308Y-61685764D01*
X101600000Y-61658057D01*
X101318691Y-61685764D01*
X101048192Y-61767818D01*
X100798899Y-61901068D01*
X100580392Y-62080393D01*
X100401068Y-62298900D01*
X100267818Y-62548193D01*
X100185764Y-62818692D01*
X100165000Y-63029509D01*
X100165000Y-63970492D01*
X100185764Y-64181309D01*
X100211154Y-64265010D01*
X97588811Y-64265010D01*
X95797006Y-62473206D01*
X95856088Y-62452795D01*
X96030044Y-62359814D01*
X96125808Y-62095413D01*
X95170000Y-61139605D01*
X95155858Y-61153748D01*
X94976253Y-60974143D01*
X94990395Y-60960000D01*
X95349605Y-60960000D01*
X96305413Y-61915808D01*
X96569814Y-61820044D01*
X96710704Y-61530429D01*
X96792384Y-61218892D01*
X96811718Y-60897405D01*
X96767961Y-60578325D01*
X96662795Y-60273912D01*
X96569814Y-60099956D01*
X96305413Y-60004192D01*
X95349605Y-60960000D01*
X94990395Y-60960000D01*
X94034587Y-60004192D01*
X93770186Y-60099956D01*
X93656811Y-60333011D01*
X93148387Y-59824587D01*
X94214192Y-59824587D01*
X95170000Y-60780395D01*
X96125808Y-59824587D01*
X96030044Y-59560186D01*
X95740429Y-59419296D01*
X95428892Y-59337616D01*
X95107405Y-59318282D01*
X94788325Y-59362039D01*
X94483912Y-59467205D01*
X94309956Y-59560186D01*
X94214192Y-59824587D01*
X93148387Y-59824587D01*
X90930000Y-57606201D01*
X90930000Y-57100901D01*
X90971101Y-57078932D01*
X91189608Y-56899608D01*
X91368932Y-56681101D01*
X91440000Y-56548142D01*
X91511068Y-56681101D01*
X91690392Y-56899608D01*
X91908899Y-57078932D01*
X92158192Y-57212182D01*
X92428691Y-57294236D01*
X92639508Y-57315000D01*
X92780492Y-57315000D01*
X92991309Y-57294236D01*
X93261808Y-57212182D01*
X93511101Y-57078932D01*
X93729608Y-56899608D01*
X93908932Y-56681101D01*
X93980000Y-56548142D01*
X94051068Y-56681101D01*
X94230392Y-56899608D01*
X94448899Y-57078932D01*
X94698192Y-57212182D01*
X94968691Y-57294236D01*
X95179508Y-57315000D01*
X95320492Y-57315000D01*
X95531309Y-57294236D01*
X95801808Y-57212182D01*
X96051101Y-57078932D01*
X96269608Y-56899608D01*
X96448932Y-56681101D01*
X96520000Y-56548142D01*
X96591068Y-56681101D01*
X96770392Y-56899608D01*
X96988899Y-57078932D01*
X97238192Y-57212182D01*
X97508691Y-57294236D01*
X97719508Y-57315000D01*
X97860492Y-57315000D01*
X98071309Y-57294236D01*
X98341808Y-57212182D01*
X98591101Y-57078932D01*
X98809608Y-56899608D01*
X98988932Y-56681101D01*
X99060000Y-56548142D01*
X99131068Y-56681101D01*
X99310392Y-56899608D01*
X99528899Y-57078932D01*
X99778192Y-57212182D01*
X100048691Y-57294236D01*
X100259508Y-57315000D01*
X100400492Y-57315000D01*
X100611309Y-57294236D01*
X100881808Y-57212182D01*
X101131101Y-57078932D01*
X101349608Y-56899608D01*
X101528932Y-56681101D01*
X101600000Y-56548142D01*
X101671068Y-56681101D01*
X101671068Y-56681101D01*
G37*
X101671068Y-56681101D02*
X101850392Y-56899608D01*
X102068899Y-57078932D01*
X102318192Y-57212182D01*
X102588691Y-57294236D01*
X102799508Y-57315000D01*
X102940492Y-57315000D01*
X103151309Y-57294236D01*
X103380001Y-57224864D01*
X103380001Y-59375197D01*
X102830199Y-59925000D01*
X102768061Y-59925000D01*
X102568102Y-59964774D01*
X102379744Y-60042795D01*
X102210226Y-60156063D01*
X102066063Y-60300226D01*
X101952795Y-60469744D01*
X101874774Y-60658102D01*
X101835000Y-60858061D01*
X101835000Y-61061939D01*
X101874774Y-61261898D01*
X101952795Y-61450256D01*
X102066063Y-61619774D01*
X102210226Y-61763937D01*
X102379744Y-61877205D01*
X102568102Y-61955226D01*
X102768061Y-61995000D01*
X102971939Y-61995000D01*
X103171898Y-61955226D01*
X103360256Y-61877205D01*
X103529774Y-61763937D01*
X103673937Y-61619774D01*
X103787205Y-61450256D01*
X103865226Y-61261898D01*
X103905000Y-61061939D01*
X103905000Y-60999801D01*
X104651003Y-60253799D01*
X104680001Y-60230001D01*
X104774974Y-60114276D01*
X104845546Y-59982247D01*
X104889003Y-59838986D01*
X104900000Y-59727333D01*
X104900000Y-59727324D01*
X104903676Y-59690001D01*
X104900000Y-59652678D01*
X104900000Y-57224864D01*
X105128691Y-57294236D01*
X105339508Y-57315000D01*
X105480492Y-57315000D01*
X105691309Y-57294236D01*
X105920001Y-57224864D01*
X105920000Y-61879099D01*
X105878899Y-61901068D01*
X105660392Y-62080393D01*
X105481068Y-62298900D01*
X105410000Y-62431858D01*
X105338932Y-62298899D01*
X105159607Y-62080392D01*
X104941100Y-61901068D01*
X104691807Y-61767818D01*
X104421308Y-61685764D01*
X104140000Y-61658057D01*
X103858691Y-61685764D01*
X103588192Y-61767818D01*
X103338899Y-61901068D01*
X103120392Y-62080393D01*
X102941068Y-62298900D01*
X102870000Y-62431858D01*
X102798932Y-62298899D01*
X102619607Y-62080392D01*
X102401100Y-61901068D01*
X102151807Y-61767818D01*
X101881308Y-61685764D01*
X101600000Y-61658057D01*
X101318691Y-61685764D01*
X101048192Y-61767818D01*
X100798899Y-61901068D01*
X100580392Y-62080393D01*
X100401068Y-62298900D01*
X100267818Y-62548193D01*
X100185764Y-62818692D01*
X100165000Y-63029509D01*
X100165000Y-63970492D01*
X100185764Y-64181309D01*
X100211154Y-64265010D01*
X97588811Y-64265010D01*
X95797006Y-62473206D01*
X95856088Y-62452795D01*
X96030044Y-62359814D01*
X96125808Y-62095413D01*
X95170000Y-61139605D01*
X95155858Y-61153748D01*
X94976253Y-60974143D01*
X94990395Y-60960000D01*
X95349605Y-60960000D01*
X96305413Y-61915808D01*
X96569814Y-61820044D01*
X96710704Y-61530429D01*
X96792384Y-61218892D01*
X96811718Y-60897405D01*
X96767961Y-60578325D01*
X96662795Y-60273912D01*
X96569814Y-60099956D01*
X96305413Y-60004192D01*
X95349605Y-60960000D01*
X94990395Y-60960000D01*
X94034587Y-60004192D01*
X93770186Y-60099956D01*
X93656811Y-60333011D01*
X93148387Y-59824587D01*
X94214192Y-59824587D01*
X95170000Y-60780395D01*
X96125808Y-59824587D01*
X96030044Y-59560186D01*
X95740429Y-59419296D01*
X95428892Y-59337616D01*
X95107405Y-59318282D01*
X94788325Y-59362039D01*
X94483912Y-59467205D01*
X94309956Y-59560186D01*
X94214192Y-59824587D01*
X93148387Y-59824587D01*
X90930000Y-57606201D01*
X90930000Y-57100901D01*
X90971101Y-57078932D01*
X91189608Y-56899608D01*
X91368932Y-56681101D01*
X91440000Y-56548142D01*
X91511068Y-56681101D01*
X91690392Y-56899608D01*
X91908899Y-57078932D01*
X92158192Y-57212182D01*
X92428691Y-57294236D01*
X92639508Y-57315000D01*
X92780492Y-57315000D01*
X92991309Y-57294236D01*
X93261808Y-57212182D01*
X93511101Y-57078932D01*
X93729608Y-56899608D01*
X93908932Y-56681101D01*
X93980000Y-56548142D01*
X94051068Y-56681101D01*
X94230392Y-56899608D01*
X94448899Y-57078932D01*
X94698192Y-57212182D01*
X94968691Y-57294236D01*
X95179508Y-57315000D01*
X95320492Y-57315000D01*
X95531309Y-57294236D01*
X95801808Y-57212182D01*
X96051101Y-57078932D01*
X96269608Y-56899608D01*
X96448932Y-56681101D01*
X96520000Y-56548142D01*
X96591068Y-56681101D01*
X96770392Y-56899608D01*
X96988899Y-57078932D01*
X97238192Y-57212182D01*
X97508691Y-57294236D01*
X97719508Y-57315000D01*
X97860492Y-57315000D01*
X98071309Y-57294236D01*
X98341808Y-57212182D01*
X98591101Y-57078932D01*
X98809608Y-56899608D01*
X98988932Y-56681101D01*
X99060000Y-56548142D01*
X99131068Y-56681101D01*
X99310392Y-56899608D01*
X99528899Y-57078932D01*
X99778192Y-57212182D01*
X100048691Y-57294236D01*
X100259508Y-57315000D01*
X100400492Y-57315000D01*
X100611309Y-57294236D01*
X100881808Y-57212182D01*
X101131101Y-57078932D01*
X101349608Y-56899608D01*
X101528932Y-56681101D01*
X101600000Y-56548142D01*
X101671068Y-56681101D01*
G36*
X115697000Y-48133000D02*
G01*
X115717000Y-48133000D01*
X115717000Y-48387000D01*
X115697000Y-48387000D01*
X115697000Y-49529915D01*
X115919039Y-49651904D01*
X116053087Y-49611246D01*
X116080001Y-49598525D01*
X116080000Y-51366289D01*
X116036063Y-51410226D01*
X115922795Y-51579744D01*
X115844774Y-51768102D01*
X115805000Y-51968061D01*
X115805000Y-52171939D01*
X115844774Y-52371898D01*
X115922795Y-52560256D01*
X116036063Y-52729774D01*
X116080001Y-52773712D01*
X116080001Y-54535136D01*
X115851309Y-54465764D01*
X115640492Y-54445000D01*
X115499508Y-54445000D01*
X115288691Y-54465764D01*
X115060000Y-54535136D01*
X115060000Y-54043711D01*
X115103937Y-53999774D01*
X115217205Y-53830256D01*
X115295226Y-53641898D01*
X115335000Y-53441939D01*
X115335000Y-53238061D01*
X115295226Y-53038102D01*
X115217205Y-52849744D01*
X115103937Y-52680226D01*
X115060000Y-52636289D01*
X115060000Y-49598526D01*
X115086913Y-49611246D01*
X115220961Y-49651904D01*
X115443000Y-49529915D01*
X115443000Y-48387000D01*
X115423000Y-48387000D01*
X115423000Y-48133000D01*
X115443000Y-48133000D01*
X115443000Y-48113000D01*
X115697000Y-48113000D01*
X115697000Y-48133000D01*
X115697000Y-48133000D01*
G37*
X115697000Y-48133000D02*
X115717000Y-48133000D01*
X115717000Y-48387000D01*
X115697000Y-48387000D01*
X115697000Y-49529915D01*
X115919039Y-49651904D01*
X116053087Y-49611246D01*
X116080001Y-49598525D01*
X116080000Y-51366289D01*
X116036063Y-51410226D01*
X115922795Y-51579744D01*
X115844774Y-51768102D01*
X115805000Y-51968061D01*
X115805000Y-52171939D01*
X115844774Y-52371898D01*
X115922795Y-52560256D01*
X116036063Y-52729774D01*
X116080001Y-52773712D01*
X116080001Y-54535136D01*
X115851309Y-54465764D01*
X115640492Y-54445000D01*
X115499508Y-54445000D01*
X115288691Y-54465764D01*
X115060000Y-54535136D01*
X115060000Y-54043711D01*
X115103937Y-53999774D01*
X115217205Y-53830256D01*
X115295226Y-53641898D01*
X115335000Y-53441939D01*
X115335000Y-53238061D01*
X115295226Y-53038102D01*
X115217205Y-52849744D01*
X115103937Y-52680226D01*
X115060000Y-52636289D01*
X115060000Y-49598526D01*
X115086913Y-49611246D01*
X115220961Y-49651904D01*
X115443000Y-49529915D01*
X115443000Y-48387000D01*
X115423000Y-48387000D01*
X115423000Y-48133000D01*
X115443000Y-48133000D01*
X115443000Y-48113000D01*
X115697000Y-48113000D01*
X115697000Y-48133000D01*
G36*
X108560226Y-51603937D02*
G01*
X108729744Y-51717205D01*
X108918102Y-51795226D01*
X109118061Y-51835000D01*
X109321939Y-51835000D01*
X109521898Y-51795226D01*
X109710256Y-51717205D01*
X109730001Y-51704012D01*
X109730001Y-52032658D01*
X109730000Y-52032668D01*
X109730000Y-52580000D01*
X109337804Y-52580000D01*
X108861804Y-52104001D01*
X108838002Y-52074998D01*
X108722277Y-51980025D01*
X108590248Y-51909453D01*
X108446987Y-51865996D01*
X108335334Y-51854999D01*
X108335323Y-51854999D01*
X108298001Y-51851323D01*
X108260679Y-51854999D01*
X107442323Y-51854999D01*
X107405000Y-51851323D01*
X107367677Y-51854999D01*
X107367668Y-51854999D01*
X107256015Y-51865996D01*
X107112754Y-51909453D01*
X106980725Y-51980025D01*
X106865000Y-52074998D01*
X106841197Y-52104002D01*
X106640199Y-52305000D01*
X106578061Y-52305000D01*
X106378102Y-52344774D01*
X106189744Y-52422795D01*
X106020226Y-52536063D01*
X105876063Y-52680226D01*
X105762795Y-52849744D01*
X105684774Y-53038102D01*
X105645000Y-53238061D01*
X105645000Y-53441939D01*
X105684774Y-53641898D01*
X105762795Y-53830256D01*
X105876063Y-53999774D01*
X105920001Y-54043712D01*
X105920001Y-54535136D01*
X105691309Y-54465764D01*
X105480492Y-54445000D01*
X105339508Y-54445000D01*
X105128691Y-54465764D01*
X104900000Y-54535136D01*
X104900000Y-52384801D01*
X105724802Y-51560000D01*
X108516289Y-51560000D01*
X108560226Y-51603937D01*
X108560226Y-51603937D01*
G37*
X108560226Y-51603937D02*
X108729744Y-51717205D01*
X108918102Y-51795226D01*
X109118061Y-51835000D01*
X109321939Y-51835000D01*
X109521898Y-51795226D01*
X109710256Y-51717205D01*
X109730001Y-51704012D01*
X109730001Y-52032658D01*
X109730000Y-52032668D01*
X109730000Y-52580000D01*
X109337804Y-52580000D01*
X108861804Y-52104001D01*
X108838002Y-52074998D01*
X108722277Y-51980025D01*
X108590248Y-51909453D01*
X108446987Y-51865996D01*
X108335334Y-51854999D01*
X108335323Y-51854999D01*
X108298001Y-51851323D01*
X108260679Y-51854999D01*
X107442323Y-51854999D01*
X107405000Y-51851323D01*
X107367677Y-51854999D01*
X107367668Y-51854999D01*
X107256015Y-51865996D01*
X107112754Y-51909453D01*
X106980725Y-51980025D01*
X106865000Y-52074998D01*
X106841197Y-52104002D01*
X106640199Y-52305000D01*
X106578061Y-52305000D01*
X106378102Y-52344774D01*
X106189744Y-52422795D01*
X106020226Y-52536063D01*
X105876063Y-52680226D01*
X105762795Y-52849744D01*
X105684774Y-53038102D01*
X105645000Y-53238061D01*
X105645000Y-53441939D01*
X105684774Y-53641898D01*
X105762795Y-53830256D01*
X105876063Y-53999774D01*
X105920001Y-54043712D01*
X105920001Y-54535136D01*
X105691309Y-54465764D01*
X105480492Y-54445000D01*
X105339508Y-54445000D01*
X105128691Y-54465764D01*
X104900000Y-54535136D01*
X104900000Y-52384801D01*
X105724802Y-51560000D01*
X108516289Y-51560000D01*
X108560226Y-51603937D01*
G36*
X120777000Y-48133000D02*
G01*
X120797000Y-48133000D01*
X120797000Y-48387000D01*
X120777000Y-48387000D01*
X120777000Y-49529915D01*
X120885000Y-49589251D01*
X120885000Y-49631939D01*
X120924774Y-49831898D01*
X121002795Y-50020256D01*
X121116063Y-50189774D01*
X121160001Y-50233712D01*
X121160001Y-54535136D01*
X120931309Y-54465764D01*
X120720492Y-54445000D01*
X120579508Y-54445000D01*
X120368691Y-54465764D01*
X120140000Y-54535136D01*
X120140000Y-51503711D01*
X120183937Y-51459774D01*
X120297205Y-51290256D01*
X120375226Y-51101898D01*
X120415000Y-50901939D01*
X120415000Y-50698061D01*
X120375226Y-50498102D01*
X120297205Y-50309744D01*
X120183937Y-50140226D01*
X120140000Y-50096289D01*
X120140000Y-49598526D01*
X120166913Y-49611246D01*
X120300961Y-49651904D01*
X120523000Y-49529915D01*
X120523000Y-48387000D01*
X120503000Y-48387000D01*
X120503000Y-48133000D01*
X120523000Y-48133000D01*
X120523000Y-48113000D01*
X120777000Y-48113000D01*
X120777000Y-48133000D01*
X120777000Y-48133000D01*
G37*
X120777000Y-48133000D02*
X120797000Y-48133000D01*
X120797000Y-48387000D01*
X120777000Y-48387000D01*
X120777000Y-49529915D01*
X120885000Y-49589251D01*
X120885000Y-49631939D01*
X120924774Y-49831898D01*
X121002795Y-50020256D01*
X121116063Y-50189774D01*
X121160001Y-50233712D01*
X121160001Y-54535136D01*
X120931309Y-54465764D01*
X120720492Y-54445000D01*
X120579508Y-54445000D01*
X120368691Y-54465764D01*
X120140000Y-54535136D01*
X120140000Y-51503711D01*
X120183937Y-51459774D01*
X120297205Y-51290256D01*
X120375226Y-51101898D01*
X120415000Y-50901939D01*
X120415000Y-50698061D01*
X120375226Y-50498102D01*
X120297205Y-50309744D01*
X120183937Y-50140226D01*
X120140000Y-50096289D01*
X120140000Y-49598526D01*
X120166913Y-49611246D01*
X120300961Y-49651904D01*
X120523000Y-49529915D01*
X120523000Y-48387000D01*
X120503000Y-48387000D01*
X120503000Y-48133000D01*
X120523000Y-48133000D01*
X120523000Y-48113000D01*
X120777000Y-48113000D01*
X120777000Y-48133000D01*
M02*
